<mxfile host="Electron" agent="Mozilla/5.0 (Windows NT 10.0; Win64; x64) AppleWebKit/537.36 (KHTML, like Gecko) draw.io/28.2.8 Chrome/140.0.7339.240 Electron/38.4.0 Safari/537.36" version="28.2.8">
  <diagram id="8l8L-8UfcnOk66naEJXx" name="ページ1">
    <mxGraphModel dx="692" dy="595" grid="1" gridSize="10" guides="1" tooltips="1" connect="1" arrows="1" fold="1" page="1" pageScale="1" pageWidth="827" pageHeight="1169" math="0" shadow="0">
      <root>
        <mxCell id="0" />
        <mxCell id="1" parent="0" />
        <mxCell id="jHoJDD90ZgZnOCXI9R-W-1" value="" style="shape=image;imageAspect=0;aspect=fixed;verticalLabelPosition=bottom;verticalAlign=top;image=data:image/png,iVBORw0KGgoAAAANSUhEUgAAAm4AAAHlCAIAAADDVefCAAAAAXNSR0IArs4c6QAAAARnQU1BAACxjwv8YQUAAAAJcEhZcwAADsMAAA7DAcdvqGQAAAAYdEVYdFNvZnR3YXJlAFBhaW50Lk5FVCA1LjEuOWxu2j4AAAC2ZVhJZklJKgAIAAAABQAaAQUAAQAAAEoAAAAbAQUAAQAAAFIAAAAoAQMAAQAAAAIAAAAxAQIAEAAAAFoAAABphwQAAQAAAGoAAAAAAAAAYAAAAAEAAABgAAAAAQAAAFBhaW50Lk5FVCA1LjEuOQADAACQBwAEAAAAMDIzMAGgAwABAAAAAQAAAAWgBAABAAAAlAAAAAAAAAACAAEAAgAEAAAAUjk4AAIABwAEAAAAMDEwMAAAAABMz8BIJY/XoAAA/r9JREFUeF7s3XeYFOX9APDvtO1998ru9X7HVeBoRzuKgqgoalTUaKLGaGxJrLHF2I0aRbHXKAIqCIf03stxXOV63Wt7ZXvfnfb7Y2DZWw5EAWN+mc9zPA8z7ztlZ2fnO2+ZdxCxWAy8XxOWZQEARVHuPyzLhv4DABiGRS4AAAAIgnAZwhcJX0+4UGYEQSKSQn40AwdFUaFQCAA0TSMIwjAMTdMoihIEJhKJ/H4/RdEIAMPQOILRDI1jGIZhgCDAslabHQHAcVwkFtEMAIIAAIIAAtx/kNN349T+IAzDcAfqRDYEQVAUpWmay8YBAIZhGIZFEQxBEAzDEBQBYFmW4aAocLvNMCyKIhiOAcuSJI2iGIqi3IGiaZpl2dAkt/3wL4VlAUURFEW5ox3Kj2EYwzAoihIEAQAkSaIohuMYw9AAwLIMgiAYhvp8PpYFmVxGkRRN0wzLwIlPjYY+BQAEyCBBECiKkmSQZVmCEFAUKRAIEQRwDGdYhqYZoVAoEolYlnU6nTQFAgGBYTiOYyRJ+v0BuVzGrZAkyUAgIBQKEQQJBoNisThIUgKh8OR3R0gkEm7PA4GATCYTCoQssEKhUCaToSjq8/kQBBEKhWKxmKGZQDCAYRiKosFAwOvzBYPBQCAAADiOBwMB7tPRNEtRFLcUyzIWi9Xj8QiFQm5DLMvQNMMdNBzHMQxDEZY7lzjcl3Xiqz952EP/53Y1fE5I+GnAna7c/0c5o07ivuiTZwXDrSd8/WcS8UMLX3PobDlxXiJIxB6ennnUyVDO8NMvXGg9Z0oaed6e+HGFr5YjEAhCPxIuD3dYuN/X6Svnjk/E98IteJbDEi5898IXP30loW2dvhsRQnlCHzC0qvBlIw5a+Joj9vZsh/f0UEonldCGsYw2jRWrgYhM5fF4PB7vfxBC+VG/HbN24qYqoudweEwdEUpZTXJw3G1MdM6pRXk8Ho/H442Em5vFNctQm/FEwTcUSqkxC8mimyKz83g8Ho/HG42wdiXR+AOCIBjXinMijrIs117F4/F4PB7v7OiYPJSlCGsbytXr8nGUx+PxeLyfyp9/A61KxAiCCE59kJVG8XGUx+PxeLyfipYbEEH2nODUB0KzxmMDp9IRYCmGZoDFURRHMfpUZ3QOyqAIizIIQ6MUyzLVTHxEBh6Px+Px/t9DacO4yHnhUARDEQIFHCJLrQiCMBjQODAIyzIMxZAjknk8Ho/H+9+AMtrUyHkhLACC0MDSNMMyNAACgIQeTKVpJkhTJJAMSgOCoMjoQwfweDwej/f/G8qK1SPnsAAjhoGQiAi5WCDCMWABWAwBFAAQBIQEphARIgJQlEVQhECFI1bD4/F4PN7/BjRiPCMEYbk/bhwHHEVyk6Im5sSnxukAEAQQDFBgQSTAsxJ1U3MTUqOUYgJl2FMDcfF4PB6P9z8lcmBJFKFQhEaAZQEYAJEQv3523pO/nfG7eYUahQgBCmFphoIEneq+RRMfXTxtZmGqSiKhgjR6qup3hENPTGc/WfjAnFGqkbmk6RlaACi7b2Lo/2fyzk354aviJs+08guo5cU53IbOsofc/nN/79yUH5of2knur+y+iSMWA5ieoQ2ltrw4JyI13ANzUs1vzY+ce5qzbCvkgTmpox7JUQ9my4tzzrJj3Koi5wKEvt/IuQCHnph+9g9ifmv+qAeTx+P9B0XJBWMTleOTVKP+jU1URskFkcv8R/W+Wrp4oj5y7kmLJ+qNL8+MnPtzRYZShsUZFmNZBGFZjGGFLCAMy7KsSiYanxbLsIw3QCkkopQYTbRKiuMYQeAoijCnje0bYfGkuIg50zO0GdHS0ORVS8uRO9fta7WMyDTS/cvrkDvXvb2jg5u8b3bKgyuOh8+5SBpNLuTOdcid65bu7Nz72NTIZAAAiFYIuTwzXj1w3+yUUABI1IgPd9i4JOTOdVctLY9Y8PoJhhmvHuBSuTATkYHDfrJwyeK8yLmnMb81f131ALcbC4tizxSHnrky88EVx7njVnbfxMUT40J7GHEw37kpPyPm1Nf0k0x5aR/3obj1hMLnlJf2WT3kmSI9+8nCFeV9oYOZqPmRUaDNb80/08fk8XgXULxaPOAItAy6R/0bcATi1T/ya/2FPbK6+eObx4waTRdP1H9885jH17REJvxckaGUZVGWRRGWxRgagEFYhKHZfrPL5vaNy9SLhQTJMLE6aYpBZbK47G4/w7Ioip2+nnCtg57JqeqI8tzD89Ksnp/f6ZdbW1W3IzLhIgjFv/uX13HlsMgcAFNe2sf9Z1+r5XCHrThZxU1GK4RDzsCIrCPdv7wudAOxpX4o/PYihAuQS3d2RiaMxEUUbm/3tVrWVQ/My42OzATwzk35Vg/JhczpGdqFRbG6P2+OzHTS4olx66rDno+6QJbu7FxYFBs5F+Cdm/It7iB3nLlPcfrNB4/H+49AEcQdoFz+0f/cAQr9lTXzrSg3/eHrhtOjKRdH//B1w4pyU/j88zF6CEQAAGEZhCVRBMPRfrOra8CRqFfFamVCIZYQK4/VSSpbTR5fEBDgXkkUuYowFk+wddDz8Ly08JkLi2K31A+FJsPrCQ89MZ3746r4QgU1ri50eob2nZvyudLh3semhso6ofwRtYLcJDefmxOqPzz0xPSWF+eEF49CSWep0ryo8XvU2wvdnzefS0QpTla1DnlCkzsazRopMSIHAJctdOQfnpd2uMMWmeOkQ09MP9Bm7bb6IhNOE15NHV5vzH07LS/OuW92ilYmCB3Yt3d0WNzB029KWgc9WtkZ64hCm+BOCe6c0coE981O4bYbXvYd9aQK1cOfvYaZx+P9/3B6NL0YcfSMoZRBUBLFgzhKIgxBYDaXr2vAzrBsVoI2Ri01aOUiAX60qR9FEARjGYRiWIoN6/d7ui31Q1PTNaHJd27Kbx30fHu0f0SmMJNT1RVddq6Kb3KqOuKae//yuhmvHgCAGa8e4EpULS/O0UoFo1axclXBoRrUlhfnWD0kNznkDITXXprfmn+gzXqWutZDT0w/3GE7ey00AGRESyu67Nz/tVLBwqLYH2285Nw3O+VHi55noZUKwkvAVd2OUcNSRrQ0dORz9PKKLnv4vUUo2zs35WdES88lhAPAmnsnhOrAlyzOi6iByHxyx9KdnRZ3ELlzXeaTO7iZVg85J0cXno0Lsa2DnlGbbNlPFi7d2cltJSNaWnbfxLd3dCB3rrO4g9z8H63nn5yqBgBuDVYPeZa7JR6P9/9GeDS9SHF0lFAaavREACFoBKcZFGFpCiwWf0u3JTclenymQSOXmG3ern4rhgLGYiwNLEszLB2xqnBclV0ovM3LjQ4vkp6uddDDLbKv1dI66Dn9mhvugTmpGTHS0DX69LrNUHyKyHnV0nKLO8j9n6v2DEWOpTs7uStveK+cIWcgVJF7JlyoDlVRZj65IxTgFxbFjhpNQ92aZrx64EfjwfnTygThdwP3zU557ocWbicnp6q5PZyeob1vdsqid4+OWPLMQjnvX153eg3EqBpNrmjFKA9QcXF3yeK88E5eZfdNPNxhCx3VFeV94Xdm56h10BP6fu/4ojojRnqmTmQ83i8jVNFylr/IZXg/XSiaXqQ4OkooxTCUe1s6sICwCIKiAAiGog6vv6K1LzFGOW9CmlwirO8aDgZpBABYQABDEeJHh2g40GblwhsXz0KXxVFZPCciHPf/Ua+5IRkx0tbBUxWbp9dthlJPzxmqUE3UiDNipKHTN7yPD9fdiSuqnqUTL1eu5YJBZALAvlbL0p2dowaAULhdc++Ecy8qhXe7PfelTreueiAUv9dVD+To5Vwpc+nOztPL3+EdlcOLsOE5f/T7+lHcAV9XPbD3sanc7Ve0Qjg5VR3a9H2zUyKXOQfhJxW3w2MTlSNy8Hi/rFB3v7P8RS7D+1U6PZQiJ5uOWa7JlGEBwcBLBpuMZmAgPU4TIKn6rmEMx1hAWAAEUAQ5MXTDWVy1tJwrByyedFF6spy/8K62o57EVy0tP9xh++dvxkTMDzUWrijvGzWOciKi+Ol0f96cESM9vW5zVKEAH6o1jYhhYxOVoTL3Oeq2+jRS4p2b8kMNkFzc4m4ypmdouY7W3N9ZCuhn72l1jq5aWr50Z+fiiSf6fnM9k0N/Z+kqde4uarM3j8f7lQjV647aC+mCOC3+sXCy1RMBFliWK3UCQ7Nms7+mdbCp29zcY+6zOAUCHEERBM7W4SjC4Q7bp78rmpyqfn1Le2TaeWgd9EQ8sDEnRzdq/53Tc4Ymu62+UXvPnqO9j019cMXxsxe1M2Kko+7VhVLRZQ//CHNydOG9kEIs7mCoYB1Ry5qoEXO10+FBa+nOztZBz9kfVQovqWdES8+lp9KP9m0Ov/kYcga44vLZRfRaiviutdJTSdz9ylk+EY/H+/8hvH309F5IF0pkKCUpmqYZhmW5oilDswgAyqI4QzBBdNXuhtdWHtxR2RmkaBRBTnTdRVh25HCDZ7LiSF9GjPRceu78JFxflVAlJ/eAx6j9d7iOo6GayfAqyvuX12llgvDewlyrYdl9E0PFxAfmpE5OVT/6XUNoKQ7Xi2rUZs7wvbpvdgrXQswVYbmqy/C62UNPTA+tx/zW/NP7PZ0d9xG41XIH4fRd5eq0r59g4P5/1dLyyanqUBv2mY7bj/r0d0Xcf7iDdvotxeldc0eNuO/clB/RX4y7G3h9S3tGjDTU0sx11uX+b/WQoWdPQ0/KhhY/sSIALrKGlnrmysxfZ9UIj8e7gE7vZ3SRomlkKA3DAgCDsUMuj9XppymGxVmH3z9kd3v8QRRBaIbpt7jtbr+fDVJEkMLO1u2Iw8W8FUf6IhPOG1fDyVVIcgXEUQMbV4kaanWr6LK3DnpCF3Su301oJVzReUejmesCwzWgznj1wOn3ARHtrNwfl6SREuF7dXqMsXiCoUW0UsFZ6ofPBdd7ObS503eV600d3icrtAjXRfZMx+3sttQPcWs401Oq3E1MqFn3gTmpWpng9KPROugJ7Qz7yUKLJ8hVI+9rtXD9tkJfRGjZLfVD3HzujufBFcdD2R5ccTx85Yc7bPNyo7mk1qFTXZB4PN65YFhWJsTlotH/ZEL8R8fq+YWdHkc5FyOaInBHWfj0eGwA2BNjACLAYjiSbFAF/ciA2e+lg4iARmkWYQEBIDA0I0HrcPuH3G53MEAAXkWeKOv8FzG/Nf+5H1p+Xvz47/Uf/9QtL85pNLl+yWDGFfHP0r7L4/HOLkouiFeLzzQOA8OyvTbfsOun9c+4qIwvz3x8TcuZ+usunqh/7dqs+Md2Ryb8LKeHUhND4yyDICiLcgVNhGUZlGFRGgWUAJxmgRnxDnCW66DEQiV9wSL8L+PQE9MzoqWjlqL+f3tgTuqSxXlnKbtfVP+Rw86HUh7vfw3CjSb/i4gMpcW4iaZwhkFQlMVwimURAAAWGAASEAJDUJY9094do0cZCu7XxvzW/FCjXeug5zwrVHn/LfhQyuPxLp7IUDoeGzgRPgG4V61xGBZIBoQogiBnCKT/JaGUx+PxeLwLKzKU8ng8Ho/H+0nO0oOXx+PxeDzej+NDKY/H4/F454UPpTwej8fjnRc+lPJ4PB6Pd174UMrj8Xg83nnhQymPx+PxeOcFgTvK+LfL8ng8Ho/3s/GlUh6Px+PxzgsfSnk8Ho/HOy98KOXxeDwe77zwoZTH4/F4vPPCh1Iej8fj8c4LH0p5PB6PxzsvfCjl8Xg8Hu+88KGUx+PxeLzzwodSHo/H4/HOCx9KeTwej8c7L3wo5V1427Ztu3KkBx98kGVZAHjvvffCJ/+zWlpauN3btm1bZNo5W7JkyZVXXvnII49EJoRpbGzkNrRjx44ffvjhyiuvvOaaa7q7uyOyvfnmm1deeeVjjz0WMf+Ce/3116+88sonnniCm3zttdfCJ3k83k/Fh1LeBbZhw4alS5dWVFSMHz++uLi4uLgYRdFvv/322Wef7evrq6urW79+/b59+34NodRut69fv379+vWnR7VzV1NTs379+gMHDkQmhLHZbNyGent7Ozs7169fv2nTJpfLFZGturp6/fr1Bw8ejJh/wVVVVa1fv/7QoUPcZGpqanFxcXZ2dmQ+Ho93bvjh7HkX2L333vvee+8VFRVVVFRgGAYAn3zyyR/+8AcAKC8v/+yzzz744IPU1NR//etfCIIUFBQkJyeHlq2tre3q6gpNFhYWJiUlcf/fu3ev3W7n/o8gyIwZM5RKJRcO9+7dG1pEpVLNmDGDi3BGozEic4Ty8vJJkyZxe3jHHXfYbLZ9+/aFUtVq9fTp00OTEakajaakpGTv3r0vvPDCjh07srKyXn/99RkzZigUis7Ozrq6Oi7b2LFjExISDh48OHXqVAD44osvHA7Hgw8+KBKJKioqcnNzQysEgNtuu+3LL7+cNm1a+IZCqqqqenp6QpPjxo2Lj48HAJqm9+zZ43a7ufk4js+YMUMmkwGAxWIJxfi0tLTc3FyKovbu3fuPf/xj7969eXl5r7766owZM5qbm/v6+nQ6XUlJCQAcO3asr68vtKHx48fHxcWZzebwGB/KzOPxAADgjjKWx7tw/vSnPwFAUVERRVHcnOXLl8fFxcXFxVVXV999990AQBBEXFycQCB4+eWXbTYbl21oaOiWW26RSqVcZoIgXnnlFZvNFgwGe3t78/PzVSpVXFxcVFQUgiCbNm1yu91ut3vjxo0AEB0dzS21YMEClmUHBwdvuukmqVQaFRWFoujmzZvdbveIvWRZlmWPHDnC/Qg++eQTlmUPHz7MTarVapVKNW7cuL6+vmAwyLKs2+1et24dgiChDS1cuDAYDM6ZM0cikQCAQCBITk5ubGy0Wq3PP/+8QCAwGAwEQbz55pt2uz0Uz7744oslS5YAgEgkOn78eMT+3HrrrQAwbdq0iPkMwwwMDFx77bUymSwuLs5gMOA4/vbbb9vtdr/f39LSkp6erlar4+LidDqdRCLZvXu3x+NxuVyrVq1CECQmJkYsFt91113Dw8Nut3vGjBlisRgAhEJhZmZme3v74sWLAWDWrFnchq666ipuQ3q9Hsfx9957z26379ixg/sIGo1GqVROnTq1v7+fJMmIXeXx/jfxoZR3gZ0eSr1er8lkMplMwWCQC6V5eXl9fX1FRUUKheKhhx7iss2bN08ikdxyyy1c5sLCQoVC8fDDD9fU1MTGxhIE8dprr5lMps2bNwOAVqv96quvvvzyS61WiyDI1q1buaXMZjNN03PnzhWLxbfeeuumTZu4zF9//fWIvWTZs4TSN9988+WXXyYIIj4+vr6+nmXZzz77TKvVEgSxc+fO0IYYhhkeHr7xxhu5otvAwABJkg8++KBCoSguLjYajdnZ2Uql8oknnjjPUOr1eqdPny4Wi//whz+YTKaOjo6MjAylUvnMM88cOnQoJiYGx/F3333XZDKtWbMGQRCdTrd69eoPPvhAo9FIpdL9+/cvWrRIKpVec8013D4vWrQIAEpKSrh9DoVSp9NZUlIiEonuuecek8nU0tKSkpKiUqmee+65UCj98MMPn376aYFAkJGR0dnZGbGrPN7/Jr6tlHfR7du3784777zzzjtDlbcEQXDR0el0Op1ObqbFYvF6vRKJJDY2NjyVJEnuiq9QKGJjY7VabSjzzJkzn376aZZln3vuuTvvvHP16tWhVJ/Pt3v37hdeeCGUecQ+nZVCoZDL5SRJDg4OkiQJALNnz37iiScoivr73/9+5513rl27lgvhOp2OK+EJBAIupP3+97+/6aab2tvb77777r6+PofDcXqb6E/FsqzZbPb5fFKpNDY2ltsQt+ZgMDg4OEhRlFKpjI2NnTFjxg8//PDFF19MmjTp0ksvffTRRwOBwJNPPnnkyBGPx2O1Wkfd54gN+f3+8A3Z7fbwj6BUKuVyeTAYHBoaoigqNJ/H+1/Gh1LeRdfd3b1hw4YNGzaEGjsvlMTExOuvv/4f//jHJZdcMjAw8Pnnn3/44Yeh1JiYmEsvvfQf//jHP/7xj/Hjx49Y8idKSkq64YYbnn322blz5/b393/22Wcff/xxZCYAAOjo6Ojq6pLJZBMmTOAi1i/J5XKVl5eXl5dbLBaTydTY2IiiaGFhoU6ni8zK4/EuHD6U8i6wgoKCoqIih8Oxbt26srKysrKy6upqpVK5cOFClUoVmTvMzJkzk5OTu7q6uKXsdnthYWFhYaFKpbrqqqtUKlVNTU1ZWdmePXvCM5eXl3PZtFqtxWJpbW1FEGTmzJlJSUlarZZLKiws1Gg0kdv7KTo7OysqKkKrMpvNbW1tXFJRUVF+fr7Vav3hhx+cTmdPT09fX59UKs3PzxeJRJErOgcWi4U7Apz9+/djGDZ79uyEhIT29vaysrL169e7XK5x48bl5eVptdrLL79cJpNVVlaWlZUtX778xRdf3L9/v81mGx4ebmtrQ1E0Kysr4siPHz8+NzfXbDZv2LAh1F+J67I0Z86cuLi4tra2srKyjRs3ut3u4uLiMWPGhC/O4/FOw7eV8i60FStWxI80b948mqZZln388cdDk5dffnl8fPwjjzwSWvCxxx4LX2rZsmWhpMsuuyw0PyEhoba2lmXZZcuWhed//PHHQ/kfeeSR8KTly5eHkkKqqqq41BUrVrAsW1lZyU2uXLnyiy++iI+PT05O5tpKucmQp556Knw9n3/+eXx8fEpKSmNjI9ewGp756aefrqio4P7/3Xffffrpp/Hx8Wlpac3NzeErYVn2wQcfDF+Qc80113CpDzzwQPj81atXc/M9Hs/MmTND8zMzM9va2rikQ4cOhS/ym9/8JrStDz/8MD4+Pisrq729/d57742Pj7/++uu5JG4ypKysjGXZ/fv3c5Pr1q17//334+Pjc3Jy+LZSHo/DPwzDu/B8Pl+oBZSD4zjXiul0On0+HzdptVpJkhSLxQqFgsvGpYaWUigUoTpSLnMoSaPREAQRsaFzXFUISZJWqzWUGj7JsqzL5UIQRKPR4Dju9XrD2wslEolcLg9NcqlnySwSic605lC20/eZIxAI1Go1ADgcDr/fH5qvVCq5Ui/LslarNdRsGb7mYDBos9lOX1X4Pmu1Wrfb7ff7z76h0KqUSiXDMKFlueedeLz/cXwo5fF4PB7vvPBtpTwej8fjnZcLXyplWbZrwN495AQABCA7UadVijE0MmYHSbrBOOz2BWmGVUiEyXqVSipEEISimWG7t63fqpKKUvQqmVgQseA5Iimma8Budnq1CnGaQYOhSHiq2eEdtnscngBJ0QwLcTp5rEb2s7f1C2NY1ucnrS6fwxPw+skgRbMsCAlMLhFolRKtYpSjzePxeLyLB4Nxi59dmBU5+zzQNLty5/FXVxzYerR927GOVIM6TqcQEiPahFiWNTu8Ly7b993uhg2HW4wD9lSDJkYtw1DEFyD31hif/3KPyeLKTorSKSXhC547lzewbFvtv7fUeHzBidkGAj/RosOyrD9I76nuWrOvcdWehh8OtWw60oahqF4r+9nb+oX5glR95/Cu6q5NR9rWH2pZf7h1a0XH0eY+46CDZlitQiwRCVBkxK0Dj8fj8S6ei1h8QRBgGLa+a7h3aEQPFADw+MmuAXvvkCMQPNWR5JfhC1IH63tW72041NBrcfpIionM8evGMGy/2fX3L3Z/s/N4Vatp0Ob2BymSpAZtnkMNvZ9vrFqy+ojd7aPp/7LPxePxeP+9LnyplGHYYy399V3DCqlIIiIoikmIVqTHjXiqb8Dm3l1trGkf1KmkOIYppcLi7Di9RoahCIYiWoV4QnbctPzExGiFgPiZ/QMxFI2PUkweEz8hy6BVSkOlNLcvuPFIy/HOoZykqBtm5V5fmrtgcsbEnDiDVv6zt/VLYllwegMH63vGZsTOHpsyf2LG5ZMzZo1NyUrQUTQzYHO7vAGJSBCnk0tEROTCPB6Px7sILmIoVctFmfHaIZsnSiXLiNeE6nhZlu002X441MyyYNDJSZoRCfBQKEVRRCYWJEQrolTS84ltGIqo5eI4nVyjEIfXdrp9wfWHWvot7ql5iVdNy85K1CXFqNRy8fls6xeGoohKJpqYHVeQFpudGJVm0CTGKON0cgGBOzyBPrOLwLCC9FiV7OeMD8Dj8Xi8n+pihdLjnUMauXju+NSWXiuOIYnRymiVlMvgDZC1HUPbKtoL0mIUUpHD5SdwLBRKKZoZtLmr2wYcnoBUJOAiHMuy3gB5vHOo3+KiaQbHsC6Tvb3f1jFg7xt22lx+FEMFOBre3Yak6I5+W0uPxRegVHIxiiAWp6+931bbPnigvtfh9hu0cqmI6B5y9A47FVKhSIADAM0wFofPOGjvMNk6TbbuIeeQze0LUBiGCgkMORmSgyTdZ3bVdQ55/EECx6xOX0e/rb3f2mmyCXBMSOAYhpIUM2BxdZhsHf0246Bj0ObxBymRAO8ZdjZ2m60uX7RKGlohx+MnByzujgF7R7+ty2TvM7ssTh9JMyIBhmMnPhqCICIBnhmv1WvlCqlQSGAYiuAYKpcIBTg2bPc2dZtVMtHkMfFqeeRjlDwej8e7GC5iKNWpJDfMyqvrGLQ4fGq5eExyFJehe8BxqKG3uceyaFp2gKT7hp3hodQXIPfWdD//1V6TxR3qdkTRbN+w8/VvDu2v66YZlsCxb3fVr97TsP5Qy75aY0uPRUBgOqVELCRCBVCXN7hsW114t6PKFtPy7XVfbau1u/0UzbT0WrZWtG+v6Nhb2z0pJ06vlVM0Y3H6DhzvWbu/ac3+pg2HWndWdla2mMwOn0iIq+UiLtwCgNXl31rR/sa3B20uv0QkONZi+nZP/fd7GzccakmIVhl0chxHB6zuzUfbV+1pWLu/afux9srWAavLp1NKNhxu/XRjZUe/7ZLitFCA5DpDNXWbtx1r/35v09oDTRuPtO6v627usXj9pFouUkiFKHLGvkQsy1I0M2D1NHQPdw3Yc1Oii7MMSqkwMh+Px+PxLoKL2O0IQxGdSpJqUHv8ZFO3mWFOdITpGrQ395hlYsHYDL3yJ1ZC+km6orn/leX7d1d3mqwuf5B0egLHu4aWfl++v67b6owcKeYn6R50LN9W+15Z+eGG3iGbJ0BS/iDZZ3ZuOdr2wbqKsgPN9MmPwKEZ1uH1f7Lh2IqddQ1dw24fybAnktr7bZ9vqlq+va7ROOz0BrwBqnfYsfFw60c/HKtqNYWvhOPxk3trjUtWH/lud0Nzj9nlDVI04/QGG7qGv91d/8a3h7oG7AFy9LdwMAzr9VMtvZbN5a2H6ntkEsGccSl87S6Px+P9Yi5iqVSrEC+YmOEP0t1DDrcvmBGvU8lEJE3vr+2uaR/MTtTNLU5t7bW29lrCS6VcxezB+h69Vj4xJ44rlTIM6/D499Z29ww5AkFKLRMtnJp1ZUnWnPFpaXFqn58yWd0Yhhp08jjdiXHj/EHqWIupa8CeFKOckhtP4JhcIshK0BWlx3YN2P1B6vLJGfdePXH+pPR5E9KzErRuP3m4vnf1vka72z8hO+7yyRlXTc0uLUxOilWaHd5BmydIMkqZKE4nR1HE6ydbey2HG3td3iAAMj7TsGhaztXTsi+fklmUHkvSzJHGvvWHWnxBcnp+0sKpmVeUZE7NS4xRyzoH7H1mF0UzUSrJ/InpXKnUH6Ta+qwfrz82aHPnJkdfPiXz6mnZl0/OnJqfYNDJfQHKOOhw+8nMeI1SOiJAlh1o+mj9sY2HW7dWtO2pMfZb3MmxqiunZE0aEy8Tnyqg83g8Hu+iuoilUk5Oks6gk1ucvqo2E0kzPUPO7iEHgWHjswxCAv+pV3uSYrRKycJp2ZdOSJtZmDyjMGnehPTLJmeIBUR7v23Q6olcIIxaLs5J0hVn6eUSAYoiSbGqkryEktyESTlxCqmwZ8hR1zlo9/gLUmMum5g+f0L6jMKkmUXJCyZnzJuYrtfKOwdsB493U2EPmbAM6/YGp+TGXz45Y864lGn5iVPzEmI1sgGru75zyOsnJ2bFzZ+Ufmlx2syCpFlFyVeUZI7L1KtkolABnWNxeitbTa291qL02MunZM6bkDajMGlafsLMwqTLJ2fOLEpWSIRHGnqH7d7wrQOAccB+uL73YH3Pkca+uo6hQZsbQRCNQiyXCPlRGng8Hu8Xc9EvuAadPDFGybBsZavJH6Aauob7zS6tUlyUFkvgP3nrUhGRlaC9tDgtPkopERFiAZ4QpZiSG6+UCR1uv9sXjFzgnPWZnR0mm0RIzB6XUpwVFxelkAgJqYhIiVVfWpyWnahze4ONRnOQpNmTtbgoiqrlohkFSWMzYjUKcajhs8/sNA44pGLBpRPSx2boY9QysZCQS4SZ8do541JT9SfGEw8xO7w17QMUzcglwkCQau21Hmno3VfbfbSpv3fYSdMMjqNDNo/V5QsER9Txpho0MwqTZhYmT81LLEyPVUiEJovrWIup02Tzj8zJ4/F4vIvnJwezn0qAY0kxqhi1tKnbPGjz1LQP2t3++ChFil71M0pOarnYoFVIRUSoOIuiiEiAa+QimmUomo7If+7sbr/F6RUJ8PGZBsXIDjtJMco4nRzHUJvb7/GToRZTAkeTYlQ6pSRiLCeH2291eUUCvCgjVj5yMMKsBG2sRgowojDu9pG9w06WZdfub3ph2d5HP9jG/T3ywdaH39/6wbqKjn4bw7JOb8A/srn0iimZr9w1959/vOS520vvXzRpan6iN0BuPNK6dn/TeTYb/6IYkvS7BgddfvI/Oq5EaDeokZUG54ihWJ/V1N/b3d1tGrY5AyNTWZolXRazy+MjR7a3+71ul8XqpQBO3qH9gliaJV1ms8vjH7lXZ8QC5XHYXE5X4Of/0n4ZtM/jclmtrmDQNTzs8gYuwlAsLAN++/Bgf3d3d//gsN0Poa4SvNOwAJTXNjhktprdP7fAwwT8HpfZ7CHZUHHmzEivx27u67c4SZb+8dwXwE8OZj9DcowyK0Hn9AQ2l7dWtw/IJYLsRB06clDccyQkcIlwRNziRvrFMAzY8zqVSYoJkjSKImq5kDhZvgyRCAmpmGAZ1hegmJObQVFELRfhp5WtSZohKQbHUIVEGCqqcoQELhTgEeunaMbrJ1kAlmUZhmXYE38R5wtNs6Ne4zEMkUuEuSlRN83Jv2JypscX3HK03eo69ZKsXztPe3f5yjvvXHmk66wV9Bebu7Xj0Mo/3PVNRY/t5+yGq4/a+8LihXMmTJhw40OvfVk3MjVoprpWPvO3lT8c7Dz1zjMAsB7e/t3Kf7yyvRfglx73CwACQ/72lU8+unLTkW57ZNpoGBIG1n/w5spPv6sejkz7lbHsX//1yldeWdnUtPKvf125rbLXEZnjvAXdUPH2X3935YQJE6783V/froCfHSP+B1AAfbteu/2eR59/cm1LZOI5slcd2bjy0Sc3tAeoiDvVUXRt37TkiXmLnvqqLTj847kvgMgwcDHEamQZcRocQ3dWdQ5a3QnRypwkXWSmc4Mg3L9Io8z6iXAMJXCMYViXlzy9WOInKV+AQhBEKMBCNwEIAIahEc+GAgCOojiG0jTj8QcjOv2SFB0k6Yj1YygiwHEAuP2ysf+8+5K3779s1L/pBYlK2ejPt6AIQmCoTimJ1cjEQtzpDbi9gSD1qyw5GHdt+fDRBSGPvP/2jnaa9Nps3iB9PvdCPwtpY/rK/vVq2dZyo4Ol6KDXbvMFT1Xhn7uhge5j7z/TVHjD08+//8WLD96yIH1kOssA7XU6vf7gyJI3Ewz4vK6fWshjaRjasfzTsuVlx82RaT8FS7OU1+Hw+iPGz7RV7F5X9tb7BwYARrYTsED7PW6v10eebYfdra2Hy554amOjxfPjdSPu1pZDZU8+vbHR6j3Xuz8mCINbv/ig7NtNjZbItJPogN/rdbm81IkPePKwMwEY3Pr5k3+67f5Xn1nXGspuOrpi+T//eOMzZfUtZe+/X7Zqc5P11LpOYgIwuOWz98pWbWmygsPjOvbZS3WxE+742ztfvPHMn2/IAckFHl6s9fBXrz4V+qU8s2Ll0ZGd/12NdRveemDBgisXLFiwYMFtf//4i3IbQBCguuzpB+4/sdhVCxb8eem25hb3iEUB+toPfPnPBQuu4nL9+V8vbWqPyBGmt61m32cvbTP6yNGiUm/rvi9eXbBg4YIFCxY8+9aqyo7IDEB57AMbliz3jU2fevk9MxPBb4eqDx+/95YFCxbceP+zr2wf8lOnfnN+e1/lB9f+6cn3v9jTNuK+kyGDfq/T6afYsCocyg2m9e+9WfbDnnabr3foeNnfHi8r77B49BNLLpnzyHz243fW1/Rafs7N8U/0S4RSkYDQ62RpBvWw3SMgsMRoZaif7a+HXCJQSUVBkq7vGopocx20eYZsniBFyyUCqYgIL09HRlEAAJBJBAqpMEBSzd1mj39EYcM4aLc4vRHlTbGQiFZLUQQEBJYRpynJSxj1L1YjE5wclH9UJMUESIqkGJZlARl93/6zHHVrvv16x+YaOr7khHTGxfS1GCMz/lLoIHi6aqu7eofOr0Thtzn6e3ZXy7JKps+9/LJp48ekqiKzXFAICKMTkvUJBsXo91bnSaCO0uvTU7WiM5zhP4J0OIa6jh7ttvnP4W4Ol8m0+twxsQrBaXVBZ8LS4Ottaezq6LGNdmU/K27ZzoHm8mPdFfsrbBBkAFzNDQ2Vm3c3Nx3rcyLa+FR9XKx8tLdEoSCMSU7Vx8XIBUF3cKhtfxURnTNx9pWXlU4Zn6WF0+qnzk/f8SE/uFNKSkoml5SM0Rirehoam0+9UR7A0ed1Wof0JeMnlZSUJEn7WhrX7a600yRjMVaYvWRUSklJScmUkpKCtGi5LKIuz9zpsAwaDSXjJ5eUlOTHB0zWY4cq7RAW0U5wNmws+3zpK+99811Vn51iTv9CzQ37mmsPdxtKJkwuyVd11DccW18R8byfy+to3vFprcAwaeKU4iKVy1K98YUltVZFSk5JycTCnMxoIXbyPHP11R7f+Mb3df1Hj/aYTM4f/1UiOIj0qRl6fZRUQHl8tq7y8q5hp5+UxRryJ86em5fa+Gldk6lrREy+KCIrSy8GBIEYtezSCWlapUQuEeamRP8KX2cWo5bFRyt6h517aoxahTgrUScTCVgAp8d/qL6nrc8qIvAUvVokwH/0IZNYtSw+SnGsuX93dZdULEgzaMRCnGFYu9t/4HiPcTCyqkkjF41J1tV1DB5t6tMoxAiCaORigQADFkiK9vpJpzfg8ZMperVURHgDpMXh8wVJtUwsFREEjqEoQtG0yxvs6LfVdw1TNBOllEjFAuycL02/mK5dG/YcV6ATFv71L6XZAADQvXev2V7XAxQAWJp3H+wV+FwglKn0BbOyNCBhhk1dXY0NXO2cIW1senKyVsEEwNtbeaR10Onzg1ymTigozdIAMMMtnZ1djX0eAASU6WNyEpN1EBw2Vh1pcwBQINUmpKTmZsSfGgOKDHgt3ZW1QwNQeQiRMFJ6yMuyEkvTzgNdhN8FQrkmLn9mphbE9FB/Z1dTY58DEABFQu6Y5KRY3akg5jS3NdVsr2hmXAkV24XeQlu8Ol7hbSpvcwDQEKVPS87MxOSnNutwDhmrytsdALSjurzZ7wQDAAu+3ubadmO/zQMEiqnSJ41LlLmdg64ek0cr7mzr1ycUpiclaOTcL4pQRsVIACc9A+3VLUy0tNVkDdjcIFLo4vKnZ2pAxP2yaR/t6a9shNiUmBg15R0YOl7tT5qVFSUDf++wvbcNZEADOLoqqvY0uK2AYoShoDRdLVNqIU4gJoBFwNJ1tNHYa7YCoChrULltfpAPtbYcGi4fAACIzpyYkhRnkIU+nt8+2NddXzs8ROzdLLeMnZxnkKuCpppjHU4AGqLjMlMycg2nut5hYrFcm5QI4mBvUy3Q3iGEHejk1pw1KSXREIPanD01R9qcviAN4mhdXGJRpsByvHGgx9ob9O3YTqelFGRDY5PRMugIAhC4QJsxaVzC6Zf8cNrcDGtrgr92Y6s3o1Dsbd3WYRow4Vl6BsUIdUysSC3xO/vbq9upaGlrzzDp9IJEHRs3ZmKWWB2jpwQqxmvqqF93sMlnR4/vl6qDTn1MXgLZeLjNGiCDoNLok8ZMStT6ehtaadI/CLSr3xlfWJoZBeaBls7W9sETAVGekpaRlBknQBw9lUdarQEqCBJFdHz62Nx4MWB+Yez4ufPnjJ+fSgI0r7jrk6GhwR4KTj25iCqis0quyJ9/bTaI8eObXlx5sOpotX1+jhwA0gpKp0x/csG4U595pCChii+Y8ud512WDCG/f+a9Vlc3GNhJyWcBHXt4o14CptaW5jXZoiiMr6wAAbJ2HGrs68ay/PHVXNnj3Pf/yzsHKg0ZvsV4cug/zm9191asro6fflpKbpPIPNhqPbN8wPO7+vyyaUxgXE7auoKWj8/iB3bWtTPKU6F7VqZ/MKWTQN9C+f117AGVIiVqflJqfFi9Q6w2sXIH6rANdtbUWMxzaJQsGpuQkGwypY2+Kf2V3z7BxmMxVX+BKgwgX97nS+RPTuRGCZGLBmKSoOeNSp+cnxkedKpLWdgz+pOdKGYbNStDlpUSHb9HrJ3dWdlqcvrEZ+qL0WG7m6c+VcvM9/uD2Yx02l39cpr4w7URmroLX6Q1WtZo6TTaaYVEEYVmwOL3HWgbW7Gvs6LclxijnTUjPiNNiJ58rrW4bSIpRjcvUq0eOh4ChqM3tr2oztffZUATBMISmmUGr50hj75ajbd2DDhRFolXS0HOlAgIXEnh5U3/XgM1s9waCNIahJEXbXP6+YVd91/D+uu7dNV25ydEaubjP7NpT07Wn2hggqQBJ+4Kkxx8csLir2wbWH2450tgrJPCSvMQpYxJ+haM0bH53o3TGJbMWz5tw8nV2yqQkvV6C9raVbXVIHJ+Xrf3+y2Vlew5XdRh+Mz6BEQ7s2r7sk5ef+/i77Zs3rDZ64uP0Y/SxQZOt6suXnnjv8xVr1m44Vl7r0141KRkNmHd98fUn7/zj4++3b95SVkFr0/VJKkv31uXPPf7GN5s3r99Q3mLFxTlFedEEcuJH7rX11Gx5/aWyyqajlYfrO3q7/XJfDytxfLrm+zVffb1279G6rrjrihMYvP/Ajq8/f+PVD1du3rJ5fdWwPFGTnJyiChVCOms2rFv5+jf7yL62qoP7jns8vkFiYNsrf31n9dbN68qauilZ9MT4VF9z2W5ILUpIkve0bvz8qb++s2rr5o07Dx/tRQXJhdcsSIa6H5a99cH7Hy1btWnXti31weyJCXh9xdY977+/zd337pJPPFhWWnKOXsMVrQbWv/dRTX1bCzANzz192N337orvyr5evnZvZVOP4ZqJibhciCAAEBwO9Kx/6pl6ND7aoDUZt61++oGD4oUT9VpPz+a9e7/bG5gsP7LVxZpWH9yx4qMvfti66Yc23YJ0UUP1riPfbXOMvSwVs+xc88I7H73z5dfbNm/fudsTld7bQZN9e43Vn7314abN676pR3KV8Vm5saGjYWvZs27Tl//eWNdQfWRPC5MgQy3kseXPPPLud9s2/7C2xYQrYyZlpglP1q84jx8/uOOZ11ry81uWfV61d/OqhsrPl3y0aXPZN/VYgdqQFO+rqfzi6YeWfvf9uo0b9xvb3aLiqZKKt17dsP/oweqj1a0DfcpxY4zvvvPRVx8uW7t5w66dO5q8Y2ekSfr7Wu29Vhg/HnbvhoKSzNQkjQQAWBKcx3ccwpXqYEIGsr8taXaesGn9+0a7N6if6OqlZ03s+OqLlv7+Fo+r/rXnD3j7l36x4oeVK9ccON49EDt3inDjex/U9/isBN205rFPdnl7WxrKD1cP9drdicj+1x9euqLsh7Ifao73gm5Odpplw1tvHtm7/dvaio1frGEzr8uT9W7b+OFHb7z+xeqtmzZvWL3yEIlHx+YlB2z7vnn5ybe+Lvth3caDNV1+PG9Sjo4Q6jLj9bHJEo/L3Ge2tVT84BOlZo+ZGXbtk8ep9ekF0UCgALS3v7HVGgT1tKlj5D3Hlje5lTJ5lkbkcvtAJMDQiBc2gzxerU/L0wYDtgGLre34XrvDbyi4viAOgYiKL3H82OKi+BSlsKVRNPuqfK0QHxmR6o58O2A0Jk760/gkFGRie2e1128TZs/NUp0MpexQq+notn8MTbj+mrFjE0X2prrKnXu1d9wzQYuJPQ6Pn2QIiRAHxmvrq/j+UKu5Ifn+F0qdR6tQXVpSbp7+1E2at7ujpXnn7jrH8S++/nbT6lV7a3oCWHZOAbn+5Teb7AQI6Kb9H7z7Q11TTcWBJo9GZCgsiRcr3OWbvGMT9DH5hos7kOqvruDynxKtko7P1M8oTEIQZFdV56srDty3ZOMDb296e/WR1l6rUiYcn2UoLUqO6EY0qliNbFyGflyGgaSZDYdbn/v3nj+9ufGv723+8IdjAhyL1UhFAiy897JESGQmaH9/WZFBp2jttX61rfaxj7bd9foPd/9r/cMfbP3Xd4c2HG41WdwkRXNDLFmdvl3VnUtWH3nsw233vLnhzn+ue/CdTW+tOnykoY+i2fQ4zS1zC6LVJ0Y8/lU50hbvZRXayKeBAHyDUPtG35jX7nunomLDx0tvL1rz2cpm867v3l+2v1o299OKioqKDS/KrH1V32w6aGrf+tI1/8IXvfHqhoo9K+97YE7Tgy8d7KlZvW6N06a4+7OKioqj5Z/OkWUrqrZvqfrhC9WdFRWbKyoqtj1xy3hi30dbe0518JFp4wsXP/vQxBkPPfPmtys/f/GpmSjULenLW/KX9ysq1n/4r1vy136+ssW6+9ul9d222U9UVFQcPVKx4bepzp6KjccGT+19evGCa+9556Fx4x79cO32vWt+d6XKuPuj+ux3Ktbsq9i6dGKWovbNf4e6IbUdXb/6248act6pWLuvomLr0lfumJUGToo8+NEDLZpZjyypqKg4sGrvstKBsj31NZ324WP+4WbTpUeWb3z5zwvyUk5t9CRPL9vwUW/hR499VFGx7r2Xr88u+/e3rQ6nl0sVClF9XGL7QNDu7ukzukwVSZdDVSsMDVscwFpBH88E8eZPhwy/XfBsRcWO1TtenN+8Z3dNh9EBABAgfe3r//b37pzrfru6oqKi4vD+3S8tShjjWe/AE+P/UFFx5EDFh3co7cZD5eG9kLRjpl1y5b0PTZzyt8827l727Ni4jm1rlncXvFexcX/FliV5erz2veX1p7KHM66zE+nJd1VUHN5X8eHvZZbOQztXHD565J1lhQ8u27SlomLtkzf/3mA3S9Iv/+s90y576L4nPvtu1cdLF2flLf7X0hU7KyoqKrZ/uu7v8et2Vrd2j9LWGU6RNzYpMdfw7pfVLSu+7SwmpVPn5I7M4eyg2r4zFn/3wr8rKta89fiC5B+Wr2n3+HwAAAnpxZc/9NVDE6c+9OqnZTs3PPLXKa41f14V/ZdVH26r2PnFb67Ka3j67QqnOwida2zigqw/rd+x8e7LtA3bXvi03llww1cVFeV7K9Y9dcv41Gjobimv/OzJwNXfbvq+oqJixyuPL9LteqOsy+33AQA4eitXffTbudMnrXfdcMn0O6ZydTmjGK5vcwp7xYUT9EBgAHBgw3sP3lJcPGX2Zbd9Vn98YNRmaK/HfOz7B2ZdW/rRHmnqzFevHQ9wvgW3qBith5J3D5kAQkVYr8dttQ+NKZ2YqlEqwDjUW77l39ve/M20y6cWFxcXX33XE+9XQoCCoZ3/XN3Edife+tIVelFE0TjE7haYkeTH93y5tWL7xzfPTzB+/M6GLpLrhaRKLph6zcMPjR330FvLN379+p/+MEVDEIL4hNReq8PsCK8Zvyh+iQre/wooiqTo1Yvn5MfpFJWt/d2DTpc3gCCISi4qTtBPGZNQnG2QCE89hHMWKIpkxGtunVcYq5XVtA0MWN0BilLJxOOTdLPGpuytNR5t6hOHrQpBQC4WzCxMUkiFFc39DZ3D/Ran2xcUEJhMLIhRyzLjNcVZhliNDABi1NLZ41IwDGk0mvvNLrvb7w9SBI5q5ZKkWFVBWvSErLj4KLngArfbXBhkQpxCpdCcvmtCDaTfUjoxLT8jKsobH9ObkOr14YO9vXiOKCf78qlRUSqQTxmfenjA5jpWqRPWx9x8y9S0ouyoGEe6rSfV8MSe1hszvGh726bjfSJF9JIbin53kwCt33lo4/7qXRtu3a8GwIOWwUENHntZD0AUgAAAAEFRQiyXCQQgV6rVKppSRSOZN8+elJqXFhXlSYhJik/2eLHBnp7h/bsOdn/f9o0KWPCZ2ruzJ15nGAQwnNh7nBCJpEoZIcBUGq0WHQjiendK4s2zo5JVIKDy0o9XH99ZdexKpQ8A7MMWKsqZevnNs6OS1SAzKxUSIR4MMP0dreZtG9/e8/VqlYz2M77hurapacVJAlW2LnfiVVOiktQgHbWhXByNZy6eOyk5Ny0qypUQ2xWX5PWjzMnWeESBCYqLp661Ct3dRqmMMkz+jWFLVZNTY7aztCU2Jg4dIpKumjA+f8KYqCjWK85MT6IZMQUeAAg4aFPVPtucoqy8yQVRUVIAJgA+DI+blhE/edbYqChZALLSE3b4xGR4LyQUFwhFUpmAEKq0OjXV5UYNvrSsm0qjElWAji9Ir6nv2Vtb9cexYwAiG3r1M7JSSkrHRkXJfJCVkbjdLydwTBEUD2759C/RzIuLZ82anuz1ogimkEoEIloqV6k1KiUThOEja95eu7OyczjoDrqGu5WpwxOFZ+9pguKJulhXXs4LbzwuVk55dmqhRu9tHJFDGifK+s1lU+KzUlRRtkS9oSfR50dOdHjBcEIkUMkEAlCotFqBzYJIeuOvu2VmfE6qUiXLymrr0356sO5ylcMwKyd/8owijVbqgeGeHvGkmDGT50yMipKIwSeTEF7MZXNC59GO1dv/VCEX4gLSbrMILcHZRopKAJCALDp7zqLnose6LLVrfthrtrquu2TSiPdVAkAQoKHsjd0DeHbR1VPjMSEKRVc9/0ax2eEEm8fWvOFfH5en3idTjck8Vb7jiMSq7FkPf5BiH2rYffzAPy2O+28rjQLB6T/PkZz163dtXvvB9j4ASLxiOtESiCZOVjSiKMoCQo9oUmVZlmEYXCDAEBQBiqZ1UtU1f37nxhyJQO6sb64eOvLaZxVfzTUfrTy8o6zav+aQFgW/qaGD2dnb09ZVMT+29v3vO4MkE5MWw5JRosziiVkxiRqBiMrLqrPq9nT20bEBQABQDBeKZDKcAKVaq1ZIJQDAElh8coLZgdhdNoDT7+EvoAsfSlEUmTQmXi4RahTi0PjvZ1KUHisTC3AMjY+Sc1UQAgLLSY6664rxsRoZV7vL9XHVKCTXzsihGTYjPvJUkooEV0/Ltrp8BWmnKt5FAnxGQWJSjDIhWomH9daRiQXXzBhjd/uLwjJzpCIiM14rERLZiVqzw+sLUAgCUpHAoJOnxKqiVNJQ8JOKiHEZegxFE6IVEbW7HLlEmJscJRJghakxdrefZlmpiIjXKU7W6GI6pTi8YxCGoTqlZFJOnEErH5eht7l8AZLCMVQkwJVSUaxGlhitlIoF3KYz4jRSEVGYFmtz+Tw+kqRoDENlYkG0ShofrYjTyX/GA7u/DI2nP2BPtXogPqLMjItAnW3QiRQigCCBiyUqAMzvCwh0AnmsQQUAIFJr5b5eh99qIfVudXasTiQXAR4US6UKVU+nC51fdN018WndvUzPnqeecsKYiSU+u0COp4+dOS1fCVy1VZTWkBd3lltvTIyosg06kUwEECBwkVgFgPl8AUWsNjc6Y2oKd8GYBkkZxVkj2hjCBYIkIqU1+mQdCAAEcqUccNGQzQxKCgACARKRMmoDl3oCQ4OP9Mamp6XoEzKiJAAA6AzImpzraG52CtWGJN2Z9xmXIKqseJ1QKgTwndznU8kEgmnTcgMDbE+DUWFwZY0pHNO6ts4VY7VrMiTZaRLEjChSo3QKjRTAhyESqQIFAYAHABiS8VqHmWSFXDGijkMap9RExyoBGACxVIqTkRExXCAQROWgTkjUAg5AKFRyGhUM2ywAo7RmSuOUmqhYJQCNgFgixSkxEaPPzbr570gziB1bl3+7SatOHzfvt9GnmohIu3+g6vv3NzZ51bHj47Jwu9/aNnCcQin8xx4ukqgNyglX5H76jDX/Rn1KhhhqRqYTMkwVnaDDJQIAgsBFIuWZKvHIIM0QflUGl5mQymQCibzfZGMUQVm8SqOLUQAEaejr6ca0CdxkqGM0SVKYkEopmlxSoBETBACASqIYkyYRiAAACIk6IX2KPh163RvLGgY0beaIUOr22Vt2v1fWAsnJJRMn5UaJAQC0ScVTkgAAbPY+Tcs/33B5XY5RDgeGCzUJ4+ckgAltWnKgprPWdNt07Zk+5CmEQm/ILJ7mTwGAqLTogfIBCBV6nU6XEPPrFOqzdVgTi6RpY+deWqIQaX0pOnpb574jbZb5KRMXX63tK3IBMH5w1No9tC45MTs7NVaFTZ0aR1KMSk0NDGKNziidFCFQEMjkMpFU5jT7gGXOtDWGBb/XI1CzBH6xu+f8SKj7GVAUKc4yFGedvGU/q7yU6IiGTwLHshK0WQna8JncE5xXTMkMnxkiERELJmdEzBQJ8Cm5CVNyEyLmS0WCK8+wHm7UhRS9KkX/I/0vJSKiIC0mPHJH8PiDZodPIRFNzVeKhTiKIAGSsrv9Oyo7e4YcSqkwVa8+/clahUSYmxyVe/IVOqNCEEQsJNIMmjRD5C3Fr1+BorO6TnGgPCVuViL3BTt7enyOntEfaRBLRIFOR0DVbYEELfgsQw4JzihVUQJQWGr7Bq92JILY63G57NZkg5ImYovm5E0ICh3HVj/67sbKFlKdJxao9PGKuXc+OVULirOc6Q6PP0AGznQJkUhEUm1GYd7V99w85VwOuUgoYF2Y2dM2CNFaYB02J5A+vTaa+7GJRAKPi7ANDXpALwbWYXW47E5UCzKJTBKdN/v6+YtKxoS6WwxusTQ7R679J0NRRJ8RQ3c3d/QkB6X589U500QHrP1mq2qMIfOsP1JMgEoVsehhh8NudoFutE4gZ0RSrC3oZRhKKhIyDjBT7UMQqwXabnFgTCBWGz0i3p8ZCQJVYvJN981LMO5+84tV31ZWNDjjri3SswAuH+kN+EhHYPDY6nXW8Y/fdOVVE8dQzabyz/e1n9PLhyW6xNhL7v5N5WDuuKRkzVBXZPo5EwhxlBRbGjoHyUQ5EG6XM+BxJMZoMfTUTQaCAEHgHrPX4bT5QR86GwUCQqrUaVNn3vzXGamKqLC7Er+pfQCVgjI2VoQASMVSCiVIKvzhpKDV3NtQsf/I/nI6+0+XTCrJTJcB0EGwNrczSVKZIlbIsD4qIJRLpbiAtZg7hlta6eRZWToBDpZ+ly/g1qTEiwFDREIxCMRBb4BkPb211W5cH23IjDnTRVCcMH5CwvgJV3JTbdtrvq1sGx4yA6sFX3dHH07Z4qL1YREZxwmRUGTvGnIFEkmQi2WEKqa7tctVlEFoMQEuFEiFNEmqMi/53czLAQCAtEPPCpMtmD1r2qKrx8UAFJUCAIB537ZNlY0nn0oNuhxOyueOj4pCkFM3mjQDVo+Pork7B4YM+no6vdoxAqVcSrm8FtOxw974aekxWtnJ3hoXzBkuH7zzM2Bxbz3avvFIa2VLf3u/tXPAVtcxtPlI27oDLcZBh14jL0iN/dGewP//zFms9XUe2bKsbLfxhCMbt+3fc7AzMiMAAOjiEtAOsm3/xj1Go9FYs6/KaFBLZhaPU8sKXWsP7G88WmNsrm063tptu3FmOlJ3fPeBjdsHfUTOZf964jdzlHHRahntjjJtXbXZ2NhsNBqNxt4Bk8UzYlwhBAVcLhs2Dna3twyYLZ7TRltEENDFJyJtgZb9m/ac3Ok+s9npH6VQxVFGR4mdmv5tq7Yam1qMx8vrWhmamTt2LIAYAJRRUUI62lS945ixtcPYXFPX3NVtEojQmKTswL62yqp95dw2uo0mu/Psj2+eGwTDogonipu7fOYh3/hCAxYzbiI2aMfMFizhjCVrAAAQKPDYoum6fcam6v1HjUajsbu7x+wmgz+6T6gQp0Da19Rs7OqiJRIYlvduX7PN2NJmPH64rp1AkNKCgtNrd0fl7eht2vXpytqmZknW9Yuvvn3qtMSAx4IwiExiG3D0tDWZzMOkTJKZESXxM1Zje0trfUVVZyB4oqn47ITRssyFj336hysmJusj034KmVophzTrhi0722rqjY2VDY3DVu9VU3JFwlOlZ0IA+VOmoxZJR8OhOqOxu8fYZ3X6SUqmUcrYVMuGTTvbaxqMRqPR2NPfO+wOMKz92MZD+3ZsrDMaje1G47aaBj3lT4oPeyCfsdVVr1v54qPbmNtvSEsUEhZjj2lo2GZn6r8u21W5/ZjR2FrfWVN+zJwlkSlUbPPxTd+9cPfXh10BJ4Cntfz47rXfVRnbu4xG4776Zhgcys2I8WHDWz978vMV31eFfpK012YdNg8O23xei6mn2+zw+0b8StJTC+nY1IZjO42dHca6A9VdwSCdHBMVVioVyeRqnWFg/+Eus93OxEUnqnNn1O9cf6yxrs3YUNPWMtAWyEmMwc7pqQ4mSHrMpu7ubqOxobqpxe+nF0wsxLETVdcojrGEsr+lq7uzY9ju8FEk6etqbzeo5VqlHHx9Q9Vrn1384daGgaHI9V4AfCi9KIIU0zfsXLmj7h//3nPfWxvvfmP93z7e8cWWmp4he2K0cmJOXHrcKKXS//diLn364Xtyx/k+vqP4hBtW1+2CrMLIjJzCy+757bRC97bbi4uLiy9/0q2JH3vDZSX6tEuf+P6v9JqHHru8uPSGd9/ekb3kiZKEwnQ48OXqey4pLp4yYeK1/1ZfGpd//R8XX7P4/rGtDxRfN7O4uLi4eN4di18I73YEINAiCTcsml917Ks7/nT7Ey9s6h+xfeCeHC664r7fTs6xbvr9yZ1e9OQzX4d3O4qQXrzg2hvuym26r3jRjOJL7y1vdub/5bb8k6kZxTPHzp1v/ufVxbMnF9/xRcVRiy4NFDgx/a6374np/ead3xQXFxcXT5xcfPPSrw51ndMgRGeHIKA3gFmahMiL86O5qXp3tDWgyT97KAUhLky94oE/Ciu+fPO64uLi4snTS59Y29vwowMdKXIMuXnXzVzx1s1z//hsVW/qJYtuSqq9t3jB1OJ5D9aZqII/LY7o4XNmCiV4+h0vLbxy5uTi4nkPbzSaSn57TYJQmrBw7qw+y+GH773lmUcrCubGfvnNs1fPLi6+7M7H3jAm62lcGbmiiyohfcLl9751neXN6+66pHjO778rOz7m+QcmKGThtfICgAk3/HEMav/ur/OLiydNL174wlfHOgYhIWPSFfe8fvXwa1f/YW5xcXFx8ewb5z1Udtzpl0VD3YYP/jK/uLi4pLj4TwcL5uX/5srpYaHUYWzvaNx3ZHjXO7fNumJacXFx8Zwb73tkw7BLF2/64rEXry4unn711Y99o/rb3cU5qfFhuwIAKhVY23b848rikonFxcW3fW5WJNz7pyv1ozSUDu96/aUnHr/7qdd373h28Ywpj31efqhvRIak2QuzkuN77yqeNbn4skf7aHnR7xaNrPbTRUvz8q9o2jfQae1zgW7M9Gm3PTX3wJ1/u35q8Zynl5TTc967Z6pYcE5fmb2xf+uzi6dOnlpcPOfvRyvZWUv/OFYUqoOQJCszZtx29YZv/7bojw+/9/GhHq+n6+DOWrlQqpL/pEqVnwOBO8rYTxZGzuadH7vbX9cxuOlIW3u/zezw+oMUjiEahSQ3OWpqXsLYDD3Xh+h/UNDS2dvb02I6WWxQJyXoVcnS4PE2SM/TK6UCnHJ7HJYTk4TL2tPb2mpyAQDEJOUmJySoZUwQ/KbjVZ3DLn8AZFKlIWdKqgpsQ/XtPT1mGwAgiDx5bEacJlrk81j66qq6XFzLnFAtj0ocm6cXhd9Csqyt41B7v9OFyCQKHfjEGfl6hUSAUy633VrfARl5egXusnT3tLUNnOgFKNEbEhMykzWnGskpl9tubehA0vP0CgmBUy6Xua++mtuuJjopITVLo/ANHG8FbZw2Shb0DHYdaRoCAKlGIxCoJAJF2pgYkd/U2WjsG3R4ueKyPDkrSYjR4HAL08bEjthnYMFnausmERwUCujqQtLz9HIxgVNOl83WFJoMZQZ7b02/F5Mp05NihAzYO2r6EUymSY8XE77B460QlajTaaUC2k97B4+3QVQMkCS4vKLU7Cix39TeYOwbdvoAUAyLSU6mvAKVWhGXqBaxDPhNrUYKlSjiE9XhpUzSY7F0HG0cBDwmJylWqiSHGmu7nQAMaGNTE1MyY05dN0mHw2Zv7Yb0dDCZQChTxiWohNyauyhMRijFvv6K1kEACkCkS4xNSMuOEQKAs6fK2Ds4RKsV8dnx3qruYb/NB4RIJNNFg1eclIj6/eD1Qnw8tLWBITlKq5EQ3HNEflNLF03IlYZ41al9Jh12q729F9LTob8fRCKQSKC3D0vP08sEGBaW2tcHYoXSoBei7qG6NjCkRmvVYoL2ka7+uqpOW4AiQamKjsscG6fym1o7aYFSZYhTntiQs7utq6+t3wGkBxpW/r1j6qXz5z21MAlx9h+v6rIFKRIACLlQkzQ2Ty/39nZ09bWbTtTwR2UUJ+p1XEP6iV2295h6uxp6T/WvEsh16sSsPLW9vcE4YHX7AXCBOCZnSopWIEPsVpOls5OOL0lTE5jAMzjY31PVfmKwLGVcZnxSaoKcAr+pqdaDReliUk8MoxMYbGrrHuixnGgOjcqckBSr1Y2oHvU4B/o6qzsGARiIis9KSkyJGIIn4B1uOfLSX99S/v6qy2bfPimK9NtNx6uMdspDiRVRcUlj0vUiOFWyYEjwmxo6WJlWHaMPG4QkaLP09zY39bm4iiVxTHRcQk6qUhyWGQ94bB0HmwdoSpUWJ3GhrRuue8N017N/XTAxPZHw+OxDx6u8scUpOrXkgj8Zw4fSi4JmGJc32NZnHbJ5nN4ASdEoisrEgoRoRVKMSqMQ/88VSHm8/3l9h786UNlc2w9A0dBrN89cdNmsCVelX9SOpb8KjN/ubPj6pS9r7Lopc+bPv6H4vCrUz8nw8erdW5dtbGjJu/2JG/OL4uSj9A69oE4rz/MuBAxFVTJRcZZhweSMG2fn/fbSwpvn5l81NWtchl7Lx1Ee73+S39bT39nY2NjY2Gps9OXMHpc96X8gjgIAKpKrxl13Tb5WL/D12Ud9yPVCCzidPtYqybvjNxMyoy56HOVLpTwej8fjnS++VMrj8Xg83nnhQymPx+PxeOeFD6U8Ho/H450XPpTyeDwej3de+FDK4/F4PN554UMpj8fj8XjnhQ+lPB6Px+OdFz6U8ng8Ho93XvhQyuPxeDzeeeFDKY/H4/F454UPpTwej8fjnRc+lPJ4PB6Pd174UMrj8Xg83nnhQymPx+PxeOeFD6U8Ho/H450XPpTyeDwej3de+FDK4/F4PN554UMpj8fj8XjnhQ+lPB6Px+OdFz6U8ng8Ho93XvhQyuPxeDzeeUHgjrI9t6oCgUBkCo/H4/F4vB8jk8kQuKOs8eFMkiQjE3k8Ho/H4/0YkUiEwB1l5AcLWJaNTOTxeDwej/djEARB4I4y55uzGIaJTOTxeDwej/djMAzjux3xeDwej3de+FDK4/F4PN554UMpj8fj8XjnhQ+lPB6Px+OdFz6U8ng8Ho93XvhQyuPxeDzeeeFDKY/H4/F454UPpTwej8fjnRc+lPJ4PB6Pd174UMrj8Xg83nnhQymPx+PxeOeFD6U8Ho/H450XPpTyeDwej3de+FDK4/F4PN554UMpj8fj8XjnhQ+lPB6Px+OdFz6U8ng8Ho93XvhQyuPxeDzeecFg3OK/zU9hWTYy5f8lyu2zdZdXWgnC2t9v7R8KyqNkOAASme/C8fW1tw/1maw4bj12zCpUioUiAovMdH4oPwzX7z1ceay6rsfiCUoMWjEgF/Ej/VdjgPX0VO6t6nXbGXGsUhiZfi4CQ309ppYur1Kv+PGTx2Fsb2o+2jCMROtlOGA/kvsc0D7GbayottIEIZYJf/K5xDJgaTp6rOrIsZqufrNPlqQSAR66o2YZ8PU0Ng1bbFaStNbU2KVRMgGB/WfuuO2dzfU1ew9XtrS1u0TxUhEhwsNS/QPdXQMdvX5FjJwIfQu0l3Qaj1ZZQSwUSQQ/+eD8OrEUeI11DRany+rzWesbnPIYOYGhF/dLodx+e/eRY1ZCLhKJwy5ZtrbjtdX7y6vaOnvckkS5r7O1PmxShP30M/L/AxRFL1ooZUk64BzqGzRbrVabzenxBxCxRICOfolnSDroHjIHEALHcXTULOeL8jidPrfFaDfufubVDkNcx8GDHeV1ZN6MNDn3O6T9Pq/HaicFYgGKjL6bkVgGKJfZ6qdYBBecuhyNMLxr1Xc1B451aLUdr7zSkVScFBMjF4WWHRgyu8kA4NKTJyDpsTjsNrObFQsCVmuABhQXnHYhC20XUFzAss4+69b3n/xg9XcbtndYGUHG7LExcEEPot9tNlsGhoZtNpvNZguiGI4Lwz8u7fM6bYP9g2abzWazuYPAYgIRAQA+e9+A2Wwx22w2m8Nm8zICEY5jI8NJ0O+yW/oGhriV+xgawc98DQz6PT6XI4hLBegoMSzod4ZWFWRwHBfiEStiaQ/pqFv1xotfH6e8yuTpaQrwWfsGhs0Wq9NHkohQKjj1uRgq4LP2DDhYFsOI8HBiK9+9pfybLY6xl+XIAE5sgqVZyjVsCTAIimM05XMPmoOECEf79m1bvWbpquO+MSVZGlxKhH0zlNtm9/mDQIjOcPKcwgLlOZEZsVM9G5/7VwduiEpI1Uoic54dw9JO+45P3vjk289Wb27oGmazF+ZFgZg4mc6SMLjlky8a2ro7GKZjyTs9ubMzNAqRYORafgQTCPg8w+YgISbQM/zifwwLEHAeWb1y2Vf//HJ9xbHKQNrlabFyXfintRzY+MOxDYe8hXMyZaHqNb/J3bn52dc7FGl6Q6JaHJb9p6ADLpt9eGCAO6FPsjucXlYkwDH8LDdEtNfl8rq8jEBM/Nh3ehJ78uqHn+HqR3thcNPbHzYPWjuczo5PvxgouCRLKSKIi3rl9PWam7c+/c+O2DFaiZSgfIxAjKPgdxxY/tmXy5cs31B9vDGYeUlMy+rvv+Umm4JZV2VFCVWiyDX9fKFrsuScr8n/ISh68e5sfP222i8eX3jZlaWlpaWlV97+8FMbB1x+OjIbx99nbVj12MOr9jUMuCLTLhDz3rVfrVr66eFBgNHvGpx1x7ateurZzR1+MhCZdgaUG0xlS/65avWOFmtk2o+hXNC/5s27b7r2T6+9sLEtNNu46933n/3jTX9f1dG16pVXVq3Z2TrKmikn9K/518ur1u5qtYHZPFix5KmOybe+9sn63cv+9cTvCsIKGRdG/Y63/vZg6UlPfbe2anBEur3q4NfP3VFaOqu0tLS0dPGz//66wgbgBSj/+p7f3nZisfmlpfe+t8/Y4RmxKEBn3fp3ngmt/IElr2/tjMgRprPmwI7PXt3RB0BGJgFAZ826JU+XlpaWziotfead9XWnryhoNfV+/+pX0sVXXHfDX+amgNtEH3rtjsULS0tLr7n/hdd3Dodndvc3HHx99uK/fLD8UJc9PGFUQQvdveqlZ1dtOmx0uNs6ylc9+OD3VSanN/Wya25a9PRVwvf++X2j2ekN5WdpGNz65furvlhVPWKro2JpGNzy5fur/r2q2hyZ9pM4ycCRz15vS5j65yVlu1d/9tb9xaC+gNc+jqu5+cCqhx4pO252+yLTzhEFUPXDskavYMHzq3dv3bju6ctiMzSRmS4aS8Ompa/fGjopT5i74Ko//vt4nemsn8lyYMOKVW99cMAEcIaL3Wl8/fbGVX97dNXeepMzMu3H+PutDasee+TiXjnLlq1655PDA+BnoOK7j5uJ2Bte+X73xtWfPV7aXP5taHL54zNlicrIpc+Lo/bo1lXPPLel00+d6zX5P+cCX3RDOquHV7zUlP6Xt57/dNmyZf987A+XaIwmlGYi83FYhqGDXm+QpJnR49z500yYe9X8W35TpBulNAMAALLMvKnz/3L/jAQhfs734CwwQb8/GCTpn77bLDCkXzsmzmuStB/cOQw0C2A5cKzTXNWjiA4KIPqS3901/5LJSaOcnLgMYi75/R/nz52UpPB5gkPDLV6D2qCJiVXIJOILX8HSVEvmz5vy4rJlyz5ftuy1PxKNXmNLdXhssZtFhjFFTy77ctmyZcueupoYtm7YumeYZYEKePJm3vz4i8uWLVv26bJlf7+52JAQUVLobqfk8fonly1btmzZsrceHYNGdR7ZM1q4MO9d8tqjTzy6ZO0eP8mMdj9k3LW2w+aJe2rZsmVfvvUHMBlrftjTPTLLsG2o/vv3/dPGFuVlGkT2hpbt317zj+DU+194a9myd5/50x1TTl2th+s27v/uHyt8k3AvIaLO4bQkVJh+/t33z59ZFCcHmqGCHk+QZlgWIwTx2Un5OTd6Pyg/bjVaTuZHUNBNXbR4/jXzc84pRjBkwB/0B8/0Ezo3QT8z0Nfp1oqjdIY4hVwmFeEXoS1AmpIybv7jj83NVEt+ZphmGBjq63NIKFlUQpJCIZeLCfQsRcELTZU+45Y7/rls2ZefLvvXrXOnXX/NrU+/vWzZFx+///yizMzoszYKqMaVXjH/dzeOi/oJ11aWPXH1++l1g8JoZfr8Rx6dX5yuk0amXSDqCXMXzv/tb4p0NIUM9PY45aCKik9QyCUisaWvz3VyUi4TE8gFLRcDsBRNBr1ekh7t9/5rE974cCG5bUhvs6hw+pTJSYpY3D48bE+Jw4UCFFyNFXvKD5a3mwEDiC2++vLxORpxf9vR9Zu6OmDlR821x3KiNckSKmr2ogKdCCe83Z3tfQdrYfZsOHrU4RnsCHoH2i0AAJlzbp2Un37qXtXVUF7lMJPakllJSkftptUWYVbamOlJape5bk21ZKK0d1DAOOzJMWf4Vki71dRf0wBaTce2Q4D5mshAZ3UHAEDmJb+bnJeaSLf3VG9dcXAgSLGgys4qKpgzFjWu29JW728Zqukbnp5TNG027Cw70t9rDQBIpOrUksWLCqnI7YwgTU2PbVYR/fub7NNKlKaK9cNuNxKVIWEp8PU0NaCJBhjqg9oqd5rmYHkzbXODNqWwYOaCGcqepnomJlPq7Kzf9/GGRtJJfvV2/bEpk3KTp6S6dy4/0E8zQUhILSqedVVWoqPuh90MGmzwe93d3oIFd89M9jZUbjtSXmM8UeSNnlI6a+zEdCxorFqz/ICJYYOgjhszbvJlMwuUgCgLCibF5Mrjc7RegIbW9ypoD02G326os9LGZl4nyC42AAIx3n1fH7cMDJ24jdQZMgrHz5g6Jiz7CNK0pLzUy8dnT9ADQINrR2v7MBUc7WIlis3NHzPY6fKbIlM43e3lXqs3If/uGTNiWZeoomKT19Y26JgZdqPsGLAZW8uovLszouM1Qnuzqa/LKJuzaO7MCfmxMlnYujzte+uaWqqRsZdOJdYOiUe7tfK5hur2flTdMwhBUpNUOHHSrPwxTHd9HaRiQbe74diWTcYu5LM3W7OnXzVtfG5ubNqlOeSaAZvFGQCtEACAZcE/0NHqZQUQ8MDevUy65kBzj7vPArKoxNzL7pyRCPITG6YYarh2266malNfTYXDFp+kx+0+9UDl6rIOX1cPoDgxZsE9JVm6eMI00FK5btWRAQAKtMljJ02aMzlXEdpnm7m7ate/1tRanJ1lgba++oKM7KsmUzuXHzTaPV6IiUkZO/+24oRQ9hB3a+3B8j37m4cBA8iZfv3UselIsMu49Qg2e1FBLNrdeLCntV889ndTEsHRuaPBi3uDMdKGY6BSdh2oB7+tg2Cay1sAANJm3DChKHeM0hEYrlmz4kCnw+cDAJFWFF+yeFFBnFwoAADwBn0te9/7oaK5x2ztHni9d1fchJtmQ8Ouysa2QQcohJK8BXfPzAjtHkuBo3bbukO1bYMO0hlw9ja6SnwA4OvtaazcsLZiEIAGXdrEkokl6cn+xjU7QSusHLKgXunYS347OXGUi6BAHpsmj03LoL3QZ9px2KPJLJo8Y0Isl+hqqtx5dP/hVjMQAGNm3Ty1ICtWG1o0MNzXZTPZQSyEnTshRlQxYBlu6wdCLB9z+T3T0mQK67HjlQd+OGYGANAVT56Wk6cwHueufh831zVfWpiemO/fv+LAgDfIAChj0gomXz6l4Ew3ULQv6OiuqoLxWHejBfo7B6PElQcbIUhBXNGccVNmTtCfyhu0dvZXb15+YNBPMgDKmPTCKQvnFigBD8U/JgCO2o2rD9Z3W1yk3WMfbPNP9QeGerp8FCkQy8nqt9ZWdg35dw31UtUb5aKYtn2Hu6zMrqFeqmNP4tibZkP5D+UtPRYXSCTKlKk3LSoQtjXXObq6TVph44HGMbN+Oz0v1mOtObZ1U/UAAAvR2dNnTBhviHa3rt0JcbIjPYPWzkEQyrVjLr97ekrAU1dVvXtLw3Hhu88dz5h2w5yxmfmGn3lv9gs47Sy6QEQSShM93HrwB3Jg/KS0hOzY5KgoGsDSvq2y5vDx5n6LjwXwGb37U0TinGwm4LHbAwGwDA8M9YK5x2IyJuYvGKMS4YTf1NdSvX49FBTAzrXNLp9TYwCLJQiW5gZ3BoXJo6bFqLhN0v2th1qarXHJU6PQ1i3lO2y0F8fzowt9xoNrj2Xq5EcbhT4zaK4+Qyj19/c0n9jQjjUdNGbXGOj+niBYmhrQcQTBsFTNnlW7KkiZjIVge5BCiTGFmS670+/zem344JA5xh2kwDw02N876AM/hSA9nemTYlKDkRsaQWHISVRphZXbKgdy4w9UmEGkSM+O7TvuB0ftrm0wdizIBLY1X3ZPvITs62e9g33tJkczpBdOq96+nclHUvO0HofdFVAjAbvZMtjVypigpmVrBSlUsbSjd8Ab8KZJ/yiv3rmqhZY6FdFRJGbzw0DjjnV7d3bWDtIiWRB8PVUVhDpRacDZ/g1H6np7PQxLB3utfsSvTkm5JEGqH58JAedAc92O2laH1xOXl5oSrw9vtdJk6TVw4jfrCwTFckyrPtms1d9Rtde7eqBVrFBmThmfIJELR96sa7MMWlLr7m/bfbjV4e1BY6NyMlPkI7JwZJlz52sIGmlYezQyCQAA+of7lQHUEKcHAJCnZycGO21DtiGAUCglrWbHgGmgeEZStEwtcHT3djdUdyqmWFv2bOnHQaFPS8wqytKw3t5jNcfr2kl93IT518bu2rV5xGZO8Dt9Q91tXTBkAXdfXZfVMywSxmdUb94EpariMXK/12EPBBDzoGnI6nYHcIk2akxRxgfDdqfHC8DdKbDgaio/YGUkMK7As+qjtomXUC4v4zANUx2tR/FZ6TckpGkEOHBRl/I6XX6P3UnD4KBAItNR1qburoBQTg/1ecBhrBXMUMnTINBSt/no8d5eLwAT6LUxQlKVkDwrTnyihERTQZ9jyOGXg8Bjs5uMHay3vKdu+2GSxFnW39vTZ3MWJd4lD7/7YwDMXYe2HNhae6CdkijB22N0J6tAqNT3NGz/zJ08O0PorWw5VLmzK5lcMClaO9B46LhHbGNzFGvWQE4O7N1oNNushjSqt4cGS3MjnUFK5LrE3rbvl+84TAYELI7abR6885i89NKs6BOhlGEZv8Ps9BJUgHa7+rt7EPmxdTWHq9z9TgZHgXR2eSck3xLvBwCAIBXoPr7+2z17zJ0uRij2kl6nj2YZsA80DLdvq6jv7fUBMIFeOyKlCUoRXbH+q1ZDthcTJcj0nsBPK+4wAJaO/Zv2b2s8ZKREcvD1dHoztIhCVqo/eSfm6Wyo7Krphjg9ue7frSl5PhAw5j4H47NXErOiL1fJGo/u3XKoihRrAZytoDaIonJJt90e8IN1eGDI7HDE+oLeIVN/v8tPgbu93+bti0vPTDpDLCUd3oHqdWtBpYa22oFj5QM5E8nuXqCG21ucsmFRZq5eLz5ZD8dSgYBz2NTf5wnQ4G7vt/tMSYVZJVr8RKuuP+jualq7Ytc+p8nPCEQev9flZ1jG017XBMM+XXK+zj7k8AlpMuhy9vczagU6aPcKaTTocvZ3G0FS8f1wTUt3v9MTpAHHhp078zS5xyv21B+qGswaj/f06l2BIWNNZ/vOyobefi8A6+91CtQs4pworljzaWv2pAAFjLXfxpCBo/js+Ou1Eq/X67T7vYLB/n6l3eslz3AQfh0uVijVGny505tfe7/Znbf4xvlTieJEXCqOl9ds/qzemZW/4Mmp2bQXBjf/64u6erU695rc0lsWr+qGW5+4fHqq6fiuyqXGyBUCAJg92glXLLjnmlK5Darfu+XxikpDdMGUeeO4Kk2VXsc2D9qHez1BqKrX5ak7RExrsz03brhHEDcOCcqBPWsrRxhzBTlmceFv73oh0QLHllz3746WuiGMte44mLxw2QNzMmKCB/cOuVyMInnWrb/ZMhxMnzll0XVF0SwD1B/vHmP3+EnKXG+s2XHL1pobr3OfvclEllmUgDl7Pvxm19S43cNTZo6DcUSg73hYDq+JcXX6Jq99pFicNLRu1ebq13cfHCzhGgv1qeOS9Y+Se16G+5+9elKOrem7b79+w5j12to7xgnlTZ9+s7tp+fLam+5kmeGjwZQ7in9326J0F1AHXv9kl63ot9f/+dark6zQ992DrzJKuqel3LJ3uWfssscKCUxuq9i/r2vLyn2XzFmcgiJi8JpbD+78+N/L2qb87oXfpI5N0NKh/jYhDIDf3ljd6VOR0WNyNCgCEnWc+eDBY1sOUoQyVjfr2edvy8+Nl4X17OEEPZaWo1+++FXLlOLfLhw3PyeWOqcTk/bZnU6n1U0CgFDl9QQZCN2zarRqd7PXaw9vafZ5Pd6AO624QC8Ri6FtuL+9Ykv94fqXDgOgtDem4MoZNybdP1/ct/Pdsr58SVraLTpnR4/Z5YYhs214yExgPrM9CACEz2Yf9onQmMw/vfzXGGDLl36+rnnj6oNXPo6TAACKhNxxwuu9ZX3Yo69cV5iskQOAUxQVl2RpsLncHhrUkUcuaAfTXn9+2e9mZxQG95fv2vKbb3f2LrguTiOQAQAQGK4vuXbhfoutwFBw6+9TtR3f3bt8SzD+yXk3XjVf0+Et//DSz2o6xg85mvqPbYZJHz9ZCCC2HtyyzXR0zeHZs65NAhAAAOhiUybf/Pzigy/BvNvnzp2JW/avW3LbIcM/115fmpI8VLZ9+5ZHPjq68A5/2OFngDq+87u93ci4y55//LeZ3sENDz96pGGvbMzieFWqucESoHrbjJhoUJ6XUnHUM3eaaRiTCjCIDTUUWmopRWna9Y/+I8sHx5b8Yflgc/2+ev/gqrePxv5z7Y0zEnLxqsoDh5//LPwLlwklRdc+em3Dey5p5rjFv09TDO96ZcFBfPHzt183bypR3brx1d+uPlZ8RTAIAIzT76hY+eYO5OYXbr923pyobkfbhntfAindXr3deHyfsOTtJwsBhOZ9P2weqvjhaMHvg7RpX3D+P6++9pLZiac2eW5IoOq2Lt/To5515QsP3pBiG1z/8IPlxw8pYqdclR1Zk0IHwLQ3sPCtRYtmlUoaBg5+delnh7uyhY6jpuaB8be+/fs58eq+Vd85Y8SypMzZtyxe3QM3P3r59ImJaoakg+l/K7T7aYbu3rO7tuNf2+ru/y314yHf2UaDUjLvwzcLQdr46ctrhqoras0L9HEnf6lCXVr6vPueKHL4aYYx7t5Z2/X29uMPFE+VEAIEABi7y3z0y1e3Cx54/+6FU6epOwbqt9z7Mpy8Z1bK1eNvfOb6mn8FkqdNvub6sTGkE/pWubjJ62LR9n2vzG1LefX60gnJcd7uodaD//hg+8QHCLejlUajFJe9/U4RiNgja/5eV92mmvHS7wsBsOEd35T1V26xJl3hZfp3BTI++80Vk0uI6o7931362V7j7EWXTJpa4pI1CVV/e/e6FDHxczuR/UIir2oXijpj2ryndm/Ysnv37bLg1mdLb7z3hvcr7O3GAf+ebz597K7S0tI5l5Xe+MZ36yrahh2h9qMfkVSYmJaYqQUQiqB40mSVP8ppt5xaODs5R5SUO9jbh/cakzImJ0vEjsGqGsoy3JWgl4pFoxV1ziB5UdG4cVMzAHAcDAnJIpFOqZRqAuLe759d8K/1Vd3EzJmTLr+8KCKaUC7oX/vWPTdfW1paeu3dv315q6+5y+z3u8PzjCIpKk6UkLXm73e960/KSByToY5IV2Yp8m++bhIRJQdQaZQaXfqZvjaH3c1EO/MXXzcRi5KDKjkjRagx7Kk8yjCulGvHjSucnAZAktDf2x9/Zfq4gklpYcvabW5bbUXH53+7ZM4VpaWlV//l8VfLGttNvSwbBABQJU+5+e5PV+7cNZNc+uHGz/dW2MKWPcELUP71M3t8WPS4y8dHgwRg4s0ffPXv3bt37/723y/fmPbeK/uPm07rdgQAEnXCtGuX7v520w05Lbu3Prd8+1BkjlHZjy3/6tmbSktLS2fNuv39fQc6f+xIR0pOyPnDq7t3b9y9e/eaN27PVrW8+/kRtu/Q0abqr//53l+uLr30mjm/Xbp159J/Lv3q1ZeWfLv0dq77yc3PLvu2SyzPHjfZABIC1GnZqcrYuA7TGTpDAQCAQIgYEtMHLazb64hMA5Dosbx7LpugSY4CkCkk0bE5cOquYBQoAek3TxmfNS4JQCBC4xIzcEJptTgclQdq3n+ktPSy0tLSRY8+//bG5s6BPoDRGxncLr9P0Jd716UTVUk6kBkSkmNSMjcdanT7Tv2kGAYGB4a006PHTp2VAyiOxxRNzuyyso1+ky5l0rwuu4vs7Y6WxaakjxUbD5ZTXZ1DcjGpUepCa0iYnzO2ZFY2AIpCbFyCWBLjcvn8IlPeH+ZPVCSeqhg9M7+fHrJ0p91cND6tIAGESk1C4aQx++oGBiy9ABDw08PW7rRbxo5PKwivm7aYbc6KPUfefqi0dF5paem1f3vlvS3NxiETLqaybps2PrUgPizzOaJpMPUPRM+OGztxRhZghCB2/NTM1sFgS3dzZFYAXApZv58xPjkvDkAkxvXxWRgm1+rU8gHrgRXPXvfhHqsnZtGiSVOmZEYs6O+3133x+FULrigtLb3lyafe30t3m0w0zZXBzyZ6cnzhgoVjQUQA6KJj5MrIWwV/n6Xm80evmH9FaWnpb5965sN9dLepn2ZOrNnnJa0eY+btk4oTcgwRS/4Yn5caaDcyG9/+662LS0tLL7vlN/d9XnGsrcvjc8WUJBbOv6IIBBiAedjiPrJt5+sPlpbOKS0tve7vb3+2s6XXPCBUsTl3zS6Oy9YDSKSCWEMOil6spt+L5hxu/n8WBMUJkZwQAeQuvOXP8fFbm/avOlq/QGVLmHPZhNunzMk8GTA0Mcl6A9hHucCeDsNQ9GTvAwzHEBZl2bAOIZhKAxKrtbKnsbfTMF2ek08NOTvrG7PFsRMWiFWHAM61UAoogWE4jgLQACiKAoIiCZkzJz1aNuN2GKr6+uUXX1bpZlx6858n5YQW8fUNN+1e8swObM59f/2TIQHtGzbWLlmLidkfrUFCdUnpxfNvSt46WDxGF6e39raOTEcwBBMIcEARAARBECSyTBPCsiwggAkFOIIggGAoiqAoSdMsACrAMQxHASgS+ro7KY0Bx0Z09GVZVpEaO/PePz44MxpDBQAAYpE0Og3nzmkExQVCPEoIk3KL3qkVDw3ZAE5dLwHAbO449u1fVgUXXD9l1vjCKG7duEDC9eGKVqvjklL8qIAZrYMWgqC4QCIXQGF69hrbQHfvELCGM/QOC6PIW3j1gxPG3uQHAGm883BX/anLzfCQRSH0yzRRI5aIgKKYUCKXywDkojHJqT1ZTa09g4bJ9ywtvMXrIgFIGz247+3lkHfZJfPnpCURi7JnewBAzHaWV9hqjRiOAgKAYBiGoCjDnq36KRhkB/uNunxEKh7tlg4FjCBwBEMAEAAEPeNXHIIKMAzFUAAEAQRFEUBYllXnpMzLeeCeqboTP2ypVBmdcrJCORLLsiwwmBDHEBQBBEVRFEVJiol4MI5hGARHMJzAABhAcRxlWJYGQoRqE8lay/EeI56TMSZDobS0H2ztCaAJV6hULOI5WR3A/ZQwAObETwlxOdzmQDMWz2Ln2EuFBZZlUAGOoxgKCIogGI5RNMsdcJYFBpjQ0Ti1EMtq87OuGPeXOybrTtzyymSigBqqBKiQW9XPwTIsQiDcJ6IRFMMxhmVpZpSvHkEAO7khBAEURQEQNHPyzWMKp3cPuHuO3X/7957csTdfvnBh1IkmKgBwNdXv3fXlR40pf11ydZxYG2yqr+/9oYJBz6UiGsVRnDjxBCiKIggy4iO6Gut27Vz2eWv6o0uvM4g0wca6uv5Nx5kReRiWCe3zT4VLmcyb/nTL5Kx0nQwAAAPQJeuqynqs/djJvWIZNmp80bUzH7l5fNSJame5UuzGqTo0/EtB0NEedfu1+xnH7Jx0mdzLt3b6AjTIDUmJiWOS1KiAQDUadXBIiMsUadNPys1M0MgAgKKhz+z0Bb0A4Asw/RYrwwQBvObBob7ufoARJytJQntLizSKjImKC7syKQ2xSjHqPLC72ZAlVmXnRwt1AntNS9CQrBRJQo/O/SzeYafH3SfLn1wyedrcCWlKH9XX3GUHhgUYsnudPhftDXgsdYNRKUXF02ZNn5iXniL1uZAzFAhGEqhTUqbd+uDf/zgvX68/W2Hkx0ikIsQhNu491Eo7feAZNA2SLmteajqKnForQUB8YqKtLzhoMYWX4qRSsYBR+4YD0VMLJnBfTfGEcYkaBPHU7W1s72z3cI8omG1DIiYo5Bq1TvB0NO/d8e3nR+3jLh07Z0Jumk5FAAQc0Lpub4utywEQ8ASs5g57jEhKiOiOpj07V7y3u4Vl/QCejpqOhuraEyU1u8uO+FxiMe5BLIfWLN2452jXyMduRiBU8YnZJ/Z1XMq4vDEukcrY1Q3AgqOlvgun3NHq6LD8IpFYJJD0HG8Z9vsDEKOOAm1C3Z5DVreHhqDL6w7YPDKpVByTPb5o8vTp06dPnzppWnFqdFRqZlpiZlZaXOq4E8clJyFederzuwd6B8DnyEnOOFGPCgAAARJ6hu3kiU78VNBv7TNKojRS6XmciBan3+4+4/MSMrkEC6iCdlI/fdykE0dlXEG8+vSaeI5ILBBSmu6tNW2eYRf4reYh+6BpXFacSHDqJ4UgoFIrXQ2Ozqa6XmAZ2t7R0h8lQ+Oj0+RS/ZgM8vBuI417Y3LTldHF8daGFg8qFqujzloVp1BK5dLUnsZec9B19o4EHEKAKuW6gb2d7QNGM5Aet6WrpScnUaWWawGAIFClMmqw1TLkNHuB9LrNbY29JOmTy6WoT0l6mLjpE6ZwR2Ps2FyDKuKSx5BgO7b1i81bdzT1hc8fFYqCSqNy1Fk7Wxv6gKFIW0dTv15JGKLOtRTn6hkKIJ6owukzpky7ZIKB6XOZekwuAJqBPovTH/BRLqfL0+aOHzdjyvTS6eMz9LHioDPi6vfzkE6Hy9vhiS8uLZleOn18emysOOAMj9ACASaXRvU3DQ25rT4IuhzmzuaecykNc8sqZFHONpCnJuZxR7tk+vTMBJV4xPVMoZSBW86QaML0KVO5bEUF2bHKswROT4A2Wa0Mey4X0v+si1UqtZl6D6xdDeZ0oRAHd/+AhZJeWmyI0pZk7i3vrdyyErckAQCAPCUjKzkzVkZIDRnifQ2HNlLeeJFXmCGu27WhrEsskFpq67odJPeVOztajno2EJ3KoB/aWjzZ4wvGpyWE9X8RxRgkhBI50ii68ya5KibRIOxSExUtsivnIeH9M38OxjLYbt2zgTRPUuM4Js6Oj5dHq1kCkaYmiY/1Nm7bsicvAbTp6S3mxp17LNUil3Go0+qnz1pSCSHU8kT1onsAAOBcK7tHI44xxEUVxB7Z980aMh0neqpaA5LUK4uS0Gph6MdISCBx8vzU+vK2Q2u/s7RK3GCt6bSnZYnTDMpAQUz5vm++p9IxtQRAqJbFpJcUJ5B9lYd6a3oxQ67CB9BWR45LislIDauGDgwer9mxccWq4TH3ZcVW7bIcB6EmLkYfXWw7tuewQyqVJEn6bL3GwdS58Tqlmq4/cqx8w1pce/fMWASQ4ebm+o6ddPskNSBIW+uAWhA7Pk/nBUf1juXGZKkqakJyDAAA+HoqaqvKDx1r7+5SbFmN5BXOzjGEOjcBgD5tSvTgsa7aFauxNNZ2pMMVPS0vJzb8exeotQpdjOjI/m5zYUqMPjYrMbvkSPX6bza3qRVUv7GLRnMmZivPWrMa4jfbO7s2r2Y1AF5jazeuy5ufnwQ1J0IpoRJL1RnCXUe2x7htM8anGGJ91paGNn2KSiH7eRVXCEgS9ZLKuq5dmzYN5+EuT/C09UgMSYlWi7xp19eryQyQCQFEOrUhbdLY+JPdjkYSajQxcTNzrBVbNwXb1WpHU9cgm3rjpGRFtTRUf4OgIE8tSC+vbK7dtmK1IzFoPWIMps1LGZ8cJwV/Ri76zgbB5MmylKQYeT+di3xzVJpbgMcoyLOFSEWcPplZFFd5eMsGa60shu7s7By0Qs4Zfym4lFCnT8/zH67dt9FtaiRMw3X2qMvGJif2GwcsQMgIdcq05J211bvXuNrTUJPTaHaRKYwkPjXR5Kir2/n16mA6iAUA4midhkgXjyzesRS46g+ubWEnMFFzsuPCk06H4KBIL8pE93VVbV0pNOt9tiO9zJjxKYXx4XdsZ0MPdFX2tdZDb5EcVApNfqI2VqVApLgsLkO8r/GQnPIlCEhFclxv18EfXCIhYa073mUnIbKm9ucQaOW6qCRDTcf+dQ6hgAi/rnIIuViTMitlW1X5DstQfRLbY+myeOlU9gx3YiMQCrEuZVa+p/zIrg3mtqYoAFQAysziWN+IM0GamJki7TO27Fi+OpAOBAYg0cdqmTMePaFOISViyMPbyrTDY0qKk/UJqp9/I3qxXaxQGgUDBc7v318CXgoAYtMnzb/pqdkGEaTecYPv0++Wff3SVi5fyrU3/+4qQ1KuPHHK1QvffXv7v6v7bi6dlHvtFfv/+sGb6310bG5udNy4SbFyMepGzJWH9w/u2i3EQQIw+0/vTrpkcvKIxy5lGqEyOU7giCuK0SoEMp9MEB1nHUgt0GFyr1SpUuoARCIwGEAiAZUKQCw59flRsViujI0FgQCiokApF2LcpYRQ6KJIRaxaSrXBni/+tQcoAP3M310xa+7UaAnArNK5K/+9vmz1cmv+pYuvzn///bWH2sygSkhILCyZZFBpJahZDQRxcrunRgni1kwpI8Z+w8SSk7sRHQ1KJUgkEBstFyCAAAAmksiVMTFAEBAVBUqZEEcEuFipP7HmqNTxsxdi3qqH3vhyA+2FwolXLLrrqmxssCsqmlbIuDGERAB5l91aVPf5hm+WripjKPDb+uJun4bGZxanx2O+yode+zfFeAFAnZs05cbMcfFxBtXw5g1l+zrKAACg9K9fjJ2ZP+bUIxbgtTg8pN0rGaz47JUKAADQ5M0tufb344uy2SPLNrcOWACU8VmzH38tX49qSLFUpY6NxyQAKIBMJ/db2nau/G4nAACMveGJaxZdNkljBVIVFe9Rh42z46zfsHbN/q21VgD45KUdsx4ZIysND6UQN+WytP7vj7z00ssAALNvfKpg/uSR10ZNrDo57UrHZ80d1syEqKKsknEEPvTcI1/thmF/fNFl111//4K88PwIhhDK6BiQRwy/hImlmJPt2/nJS9sBAOLnLfhNyX2XJ0N/V3QMyCUEJk7QpRdcs/Ct1759v65XQF85eaagc88xp368SiULi9S4TK2lGRFIJGAwYGJuEB1UKJQoDXpMHD4uEoKBtmTSjE3dazaueb+ydnqpSCk7sVcIhgiUMTEgF6fmTTBEof5jT770IUAAAHTjc2ddnzk2XhgKpSiOCpQxsSATExjotGnTFj/rbHloWdkWmx0yMoqveGhxrmawV6114gqQSsFgIER4zsxbroWvV33275d2Ag4w+3cvF8weHwvgQKJSNFh8TGpsRpxMgAi0ydHD1XF6pSJO4e6XKg0GEIlApwOVkhvvDwFcrtEhIkVCQooy/U+Va1/7dJ/FA6TXi8d4swogfDgbBAFCrtGhYoUIB5lQOvaaJ37X/+KKTZ99+z1ES1WXPPJEfhbBWpupKH+MTJx/7b1FR9/b8u2GfnlMTMrkGQUx2hhxetFcnQYLHnvupaVcG3b05HHTpz50jTJaDzJRaCgiBHCF1qBlNdLRqsFRwBWaKFzFXQ0AB8ie9fvrnZ9/9+Xyl7aBCGDWXdcWTCvkbvYAAACXyFVKnReEQtDrQSrCMQBACEyo1OtBGhuNdu0a2ri5bCMAQPKip27LLy6MVgTFJQsXvvvO1i+rehdPLEyZnbjvtXf3uQIQM2ZMTMK4yXqlRAhRUaBSgUwG+liJED1ZeYsSmEipN4BUCioVUITkxEiWmEShUupCkwAgS49PMs6Me+e1d/Z6ghB2XQ0ddqVMmX/DX4r2LFm/rWxIGReXNG7qhFiNToo61cCKJfiJi2FQKRPip66N3KRSrp1w4/N39jz19Y6d3d8AgEAFGbc8d4dQqFZqg6HLbMr4y6+gkDWVb7z0BlfU1s+cNrv497OVsQaQctdGVICLlQY9SIQ4KstMzOuYUfzZa0saGq55QXKV+tccShG4o8z55ixmtNr+88HQFOn3kQx314OgGCEQCQkUgKXIQDBInnzSHCUEAkJAYAjL0EGvn2RZTIBjKMEGfUGGBUAwDEUwhPIILWufeMMdO37cldcWRgMCgAvFAhyPGK6JoSmK9NOoWISjCMpSFEX7aVQsIjCgSJJhWMBxCARAIACGAZZFiVBsY2maooMUCIUQDAKKYQSBIcACQ/mDLIohKDCkP8jVMyC4gCAEQhwBADroDZI0DThGEATjC1DAsICgKIphwKAnN3Ryu0ICw7hzN7RmbkMnsTRF0eTJ3cAwAACKQoTcOGQRqTiOY8AylD8AAhGBoQjCMgxN+n1BBoAFDCMIoQjHGNLPZQ4NLUYH/UGSpBhwD0DFO1eXl9xwSckfpsezp5YFQDAUJ8QiAg1lBgAAXCgR4Fh4awpLB8kgGTiZAQAQDMcJgQij/b4gxbAsAIKiuFAqwAAFmiIpkkQIqQADQBiSJEl/8ESHT4wQEQKCQFlgSL+PRQU4fnLEPpb0+0mKOtnWevpuADA0GQz6SQoAABeIBCNG+wMAYPwDTR0r/vIH8+/vvXrmTRNiWe5g0cACihEEIRQQI2qaWGBIfwCwiFHZWIoKkoHgyQ+M4gQhEApQJCwzMDQd9PopQHAhMVhes3fzNStjPnr7ppJUrTK0IoYMkiwLgGEQDIJQRKAnvkHKH5oMbRSAIbnvAUFxHBiUEHB7xQJD+gKAEziOsSxF+v3kiaOJYBguEI0YlTAsM44iwLIM6fcFaYZlAUUxQigRYAwZJFkEARSFYBARinEUaCpIBk98XlwgFhA4hgILLB3wkgghwAgMA4alg14SJQQ4gbIMTQeCIBQCRQGCnjzDGTJAsgiKETgCdNDrpxiWBePufUeP3ds8Y+cjU5K14lOfN5Q5tGwgSFIMCwiCEEKJAEdoimRoFhUIMZQO+gIURTMIcuLgCIQ4hrIMRQZGHA1cSEAwCIQAxzDuC2WBoQJ+BjDs9GEmT6QGWST8R8pS5KmjQQjEAiL8KsRSJMnQDBDhG2IZlqH8QSAEKEtRVJA7RQElRAICJzAEWJYOegIky2ACHEMxxh8g4dTVDxCBAEgSUBRQFEgSEYgIlLu3Dq2ZAIYBhkUF3AWN243QJLdrNEUFfQEqfM2oUEQg3KoAAFiggt4ASTPsaVcwlBBi6IijEXFwWGAovz9InRhmBwFMIBIAe/plliT9gZPPtSA4TmCC8GsjyzDcBU1IYBgCNEkF/X4q7Fj9KmEYdrFC6QVGuaBv1d/e9CdMnnTtjePCbgJ5P0fT6ke/29lY3g1AC8AZX/zUHVdPySr8eWO7/1dhgg7/0IH3X/20Sj5r6ryF98y8EFVnZ9e1ff2a7V8eCab+/uF7pkbFyy70ywz+Czl7qmtXP/3RQbD5APwqTeqEyY/denOCQnHOw9byeL8qGIZdtOHsLzAEMJFQEZeeEWfQSX+9hfz/EpTfwUpitIa0tIzstLwpl8zJSdONWsH1/w2CEbg8WivA1fFZSYnxydqzdpC5IKiAH1PJ43MvnVWQJMVOe6b2fxFLkzRNoqq0xOS0tKyiwuLxc6cka7CRPU55vP8eKIr+l5RKeTwej8f7VbrIpVKWAb/FNDg0OGR2eYM0IRsxdvaJN4X5ggxyqib9xIt13GZrUCARYBf2xTq03+dxm22k8Eyv7GFIKuAaGPKjJ1qh/v+i3Ha71+P/Ka+CCjmfZS82Jhj0uQaGAoSYONkYdh4YkvVaek1Dw2aLO0AzhFQc3kuPpVnSOTTsZ1A01KALAEB73S6PzUVxL2w73304HUtx22UjthuWAyi31erzkSxxqn8Nj8e7WC7mS9YAIOiCY+8/etf1paWlN9731EdV4A0fDIb2gumHd99Y9e3mxhEPgDiPV+9c9cTTG1vdgXN6pOncOesqt6966tlN7T5y9DX7eobrVj3811UHm4cu1huLfiWGd333+aoPv6o44yvnzmJ45zefrfpoWcXQz1j2YvN0GCtW3XffqmM95zbox9m5TfTB17lXsP3ub28trx+ZGrTQ3ate/MeqTRGvYLNV7Clb9fLru/rPMvjR+QiYg12rnv/7qi1Hu0cZOAlOvJHti/dXfbm6drRX7PB4vAvv4oVSu9tx7NNXmlJm3f/cJyvfee6hxblhbxjmsGQgQJIRb7BiaZokff5zea/VT8TSNEX63Q7atPGjd8rW7WqNHPyOZViG9PlIrtNpJF+fufqrp6675vorTrj+trveOuDt+2+MuiwVDJKB4DkM7Hk6hiKDZOAnve3La+yrKXv0kbKqHvupF3ZeKKSd7S9767WyrUeMDpZmaNLrvSAv6xsa6Kl6/7n2Cbc898/PVr7+6O1XRYzwxrLAkAE/GbkxlqJI0h/eofl8DNbUf//8yTPuiivufeGx75uAIf0+kjRX7Flf9tZ7+wcihwZkgSGDAfJUP/kRiRQM7Vj+3J8f/tuS9w+cvIm1HdvzQ9mSDw6ctqqzYkkY2r7s47JvNjREPg4dGPZ1lr3yQtnumv4zjilxYdnKd6wte/eTQ4NMkB7c+u8Py1ZtbhzlXb883sVx0UJp0B0YMpY3iqIyC6fMmlZckJOshF9FT2YEB0lCTl5ykuEn9lilfQHP8PEeWXxBSen8+fNnF09MwSs2lvcMO0Yv4/JCaK/P3l9T22/3nnia6EJiSPD1tzT3D1hH1HqcL7/DNdB/qFGeMnb8lNJp48akxY824t9F5W7dtX3NxmXbvenz58+eP3/+/PmT9Up1b10rQBAABDp9UnJ+buzoIzCcCctCYMg45Gyrrus6uO2IFXw0AGkd7u9va7f4f1JNA7eqzv4ekyNyTAYmSHv6Gxv7hx2+C/+NjypoG+rrb+uw+hGUlcRn5iSnJqh/2g+cxzsPF2uIBnufuWrdwWa/Ba3cheFOc1xMbjxZf7DFGqRIUGsNyXkTY06NZU25/TZjxcEWC0mT7rbmNpsd8lkA8PV1NLa3dAy5AQVQphaPTdGxlM3a2B6MkbV0DUZp0tIzsmNPjWAZyWXrNbYcbuoDYAA0ck+3jRsbUyJX4BIxgYI/4B5o2lHVQ9J+AKkogLFw4k7e1dfT1VPVA5klxYlyXMI9wYCJIWbKJf/H3n3HR1HmfwD/Ttnek81ueu8JBEIIHZYemihgb2c5T0XvznaWa+qdZz079l5ABOmdAKGEmpCQnmx6b5vtfWfm98eGECL6U1cUj+/75R/OPM/Mzm6W/cwz8zzPXHvF5KwIham6tXTHlg9arQOyOrfcaTBJ6M66joiM6SmRcrettbH8TKsZgIOwuNGJCfFivqm7qBKSsiLVIvtAS299Exc3O01Nuy313TYPiBO14rZTJ+qMRrsP+CqJNnFyTrTU09FYUd/Q0m8DCkCROCE7NlQ5fIyyu0/f3NRQ3uqfAFAekZYeHyOXOnuKKkEtru8z2fstwBPLI8bMSQshJWxfd3NjeXmbGQCMp860SGWJKef2BeCzdPW1VBytM3McgCQiIjY+K0UpdrQVH6vrMjtcIBDKQpMn50QPtXRYNzjaio/VdZodbhCIZKHJk3OixISQsvQ3NeqL6/0zsakT0oOhq/vMGYMBDu0RGI2T0uPiU7WDv3Lu3trGxsbKdv/lWEVkRkZ8lETk6C2qBI2krtfoNFiBL1VGjJmTFgxitrezsbGyst0MABCRmJ0UF68Q2PtbT53p7YTiQg/tloHJDiDpr84/3EA7rCCQqiLGzE4NBjHb09HQVFXl31YRlZkZFykW2nuLq0ArresekAg08aljh+ZXN/fVV5/Ze6qOM2mP72JNWWOig6IVjqrjejMAAyFhCfGpafxz04N4TeaelmJ/qaWyqNprgVAADhyt1aX1zZ1GO9AEqUyePD5GarP0WFo67CHihrqOiOgxSbExwcOmuxjO0Vl6tKSit1ez8MH75icCCAD6q6u76k54wMkBACkQisS0TEgDB2BoOlnZ1No3AEAQXITaOuAENQB4bL6+2vxSW1Byany0Vj2ULYqkcEW72lG2unhm7ORh/Zg5FpxtlSX6li6TA2iSDkqePD4myO1oqG9psriSJoyPFomY3lZ9Z3sfG5IdC6WVXS0Gm9m0e5crISk3J1ok4pEAHoelt6H4TF83nDjIsjAxJTY2U9Z36mhdn9PjAYVSEztqetLZqXH9WABD47GKpg6DEYCk+RFjZicrLZbWxpq6LiuQABGpk1JiQlhvn6Fc79NK69p6vWYHiJTayNFT04Idhvr6Nn15Y0f7ro3uuIgIHiFXUVZTh7VoeGVVaFTmpFRxa229j68Mio4LFnEMOFrL63x8ZVB0tJAytxYdretzeb0gkodEJeWMjhIPe5wnQt/tYnU7ai0t3/jiqkJHX3tzZXm9qc9iCXEeefu5NTsPHjqwr1rfC7LJSQmeuoMnfPIITUK4tffQ6peeXbPj4KFDJ06fbnY5gzOXLoyjG47kr/n60y827j5yrLCgyhKSHCLp7i459PKrx5zG1eu3mO3K8LgxUedNq36Oz2muKMvf8OnTn244UXi4sLDLxZo4raPPNy27+dOPGq2kKCrOa67c9snj7284eGjf0cK6zh6XIq6jDibMiJD3FR3esOW1bc2aKdOi5TwpDeAZsPbod+wzRqWo+KTb1qpvq63eJMhZHtNQvKt444b8nvbtn671hU6NVbjLyzauef219XuPFxbsbjIqQ4LjCVHz4aefqg4dH6emqsu37nz/Pb34iokRgt6qbw6dKWnxpkoMq597+avdW/IPHT7ZUNbJnzAvnqvav+vLtZ+v2bznyLHCgipbeLo2VB0qO9dFy1a758Dmz1/+dEdhYWHhvtI2nlaqoeXt+/76dJGp6+v8gvzNW/JPFJfWBy8cHcnxegqPfPPVG2+s33u8sPBkWbVJpU3NnDk5Tu7vGsM4DdVHDn352tNf7i08UnigqN9CyzNGSXxF2z5868tvduzdf7iotLLXk5Qbz2+ornY6aeXoLJG3aNsHq77Y4C+t6vMkT4gPJij7mdPb13/+3BffHC8sLCzsE2qdZkPH7i93Vzc11pa2sqGysMQxEYO/3taqHXs3f/HqZzsLCwsL80s7JOFyNSdq3v/EP4tsfV/t2bdvy5b8kyUV9erFY6N8VMfBgnVrVq3asPd4YcGuFltoWEhykMJYd+i9N3aWN1XWlDd293S5pY4Wj8i1Yd++/Vu35J8srWpQLxob5aPaTx7euO6DD77eWVhYWFDZKwxTKt3QXPD3p07Z+7/ald/R5lEnTE08O2S5vebA3i3vbT3u7evUl59pdDkcvVR3wapn1uQfLzyQr2/3ipRZYQme+h1HIGZURIS4vWHP6heeWZN/vPDwidKyLpKOTF88L9pXumvjJ1+tWbdt7+ETR4/UOWOywnm15QWFH3180GFY+/k6Ny8pLjpZO/JZQAAALPhajm8stiiSJv/hmqmSwXNecUiINlYbZKrZfRjio3ub6xp3HbBkzYvlevbvfOPztZ9v2Xa88NjxE251TGeHUKtVpUS5BnZ+8vcPi6yahMi4yDAhAMeCtepIEQRp5CljRF8c6tNlxqmgo65uoGVAMmlWuLdk1zcfr/nqm+17D588fqzeFTsmUmPqOrB+w7tbt7tHT86U0V2H96/fvXl/Kz8ntnPtWwWnykpqquo7DP0hkyfFSiR8EsAx0FJ68KN3d1U01dSWNdkor0AS07Xp5ee/2ppfsP9AZXWbVzYjK05ACwZ7hnEc67B279/y6mdrV2/dfrzwZHGpJ3Gm2nT01Mav3nt/095jxwp2tXkSY7RBhoHTBf954bjD8NXmHQU7tu8pqm5rD5k9Psaq3/Zlfn7BsZramoqSDofhUH4f42pzO2pef/Fs5W17imraOoOnjRfu//Sz2nanMGlMhJR1Q8/Otz+sbXdS0dFeU+GWt1/7bOu+goJDp6vbnFzi2JQQvmBwThWEvtNFHAzDWho6z2z903/h2gfmT87huvM3rf3rOs/jm26dGhzStGb78fIPvIt3L2/+7/tMRG5IqqJh96Nr3Y9vvnWKKpksOna47P2d4r+9GXPoniI6O2vs3dMzfDbo3PLMBxCbCiFk+YcvFib+e/NtE9WpWj6ff8FOjADQfeqzlw+f7rMteuOeHBDxgLScPna48qMt8Pjj8N57kDY1ZWxE0+l33mtYuvGWCfIEFRDO5j794T8/D3+4h67L72k2hi96/YbJIsHg3Fq2+o7ir1be/F6Vj7GTBMEpVGETbn7vtRsU+3e8/snehuAxD79291hKJq3c/cyqg6cp+X2vrMwB4+5/vlarYZJynhxnfnHOsZyv7k4h93cd2rdrYDRv9sP3ji8vX1vX1W4ePZt5+Vb9vI/vmJYbxys9U3Nwt/CR6UXXHg+aMyH71kmpXhN0bv3nu1TGnMlLrsgcetoJx3i9Xu/gvCun3/3XaYVdqn4k9szKm9+LfGz1igXjJpLFtYVbr9iQ8vZzkZbVX5VWiVUrX1yZA3TP1vfWGIzi9D88PCvCH6WGo/vWFH72teeqzfeN51E9W7Z3c52e7PgTeYeyvrwze0xUuFXfUnH0sVWCB//oO3ac8wgUixaIN+Qdzlrz++ysyHBrXXP5scdWCR5+cbzrwHvlDSS74Nl7coAkgOLxSXttU9G++1+AB15cmp0WEcTj8YemjmE8Xq938KZt0aq/nQ6hVaq7tSUrb3k3/ulN184dlcOdKD+y64oNKZ+9Gtn73mflrZqQu/+9chzXufnR5xuSgkcteH6h0tv41f0vQM4VU+dPIUxHNzz8+48S/7352jnp45jjZUd2X7kp9fPXIrreqjGDduyTS7I5Drq2vLPG5hMSE9Jbn7v9w4R/bb5uzqjxUTz+ufluWMZwpuLYwUfeIB966crR8QM1q7/c/mmZ77Fv7ssB+vSqL0vNx4RTNy1uWfksTLs+TNFx/NCHpb7H1q/MgVDXoe07G/bVyh55IXJD3uGQ2+ZmXzUm0dXrbd/+2CrhzNmso+nYli29yU9+ffdYOiKIx6Mv9AXmfNC58aXHyo1RY5Y+syx3+G+5q8vdvGnlf2D2ArDZoLQm6M/PjC566LbaxD+m665YmATA+ei+7S9/aKEV5Ngk17sPdyzdeN/0tIhImqIIANYLHeuffcdERWUumMnWv3/HmRl7roxtqD9af7BevPIfYRsXHg5buXDs4lEJri5n867HVgkX3K6bkWZq3rn/6aett+252rNuvYmI1Kz43ZIoDpq/evZdEx07+trbJoXzBELa/0+F4+ytppqN978A82+bNXOG0Hx852d3rXI9vuk6XXR018b8I4XPuW7cdX9OTJD/jMrptuk3Pfi7qswnsmbkzUsAAB8tqPz63ufPMGNjbn/k1lRr1+ZH/946OTtNPZc99vcntif+a/PN0yLSbfsPHTr2pyMZn716RYbn4Ob1DSc6Iu/9uy6yd9tL7ziCIokEtf7tv+9K+NemW6aFp1n3Fxw89uDhhM8f8X3zFReeOe66W3NDGSd0rHvyDbsyM3hMFLvvz1VjN9ydHSpXm0pPHy97a4vysVeWJgdLhj/nHqFvoyjqYl3gJSlSIBZQFIjEEinb72OlPfFX3zg5ODZcKqcTE2q6NV+eKl+stAAZYTHZhKLu+BU3TQmKC5dIrSKRgEf6fNDT3m4+VPz5tq8K3pJyDLj7GtuzF6kSyKQYSWr4wtzgmFCR8HsmazDUNBi1RvmoK3KlKjnQBICHf97IAEtrr8BTDlctn6iK0YqkPAAQmhkLUbfxv09njVmal3fnpPES4dAz6AEAeHJIvH7lrZNSEtRSZ4+5s37dp/lNy4x2dU6kKHb+WIlSDtRAXz8vmZcWvXC8VCkH2ZisuBMtjcX9DTNGj5/1tYtxtbcr+OLIzCzV7pOlzuCWAT5liwyPCO4N9e5f90+x5eFrlswaPSVcBv2leywH8z/ctWanUsL5wN3X0JYrzMowAgxFKWGvKc/f/elHBU0AnLW9UTh1/LSxfclKLunG6Tkx6TFSqVOtioxI8PoEfV09/DRBWlxejlQuB9ImFIwYRyGXiWRWrmHfSzdJ//zfa3Pmzoqz17U1F35h33nsr2d4MqGAcThtjL5lUrMjzA58nsPm7mmvs+88+sQZvr/UyuhbJze3UJ3GWEYVu2icVCY7+9F5aFogICkQiSViIX/4Q2UIW3XJ7l1ffHa4CQAsbfXimdNmZvbFBEHSLbqcqJRoqdQRoooIT/B4+X2d3cJMcXrKvGypVAYx47LjC7uMbEPNotxUgYCiQSCSiEWsUxZCJN88MyciJWpw20SPh9fb2W06VlDY/E3Nl3IAcPe1daWMm5kal62G5Ftmjo9MjhKJzruxRlI8Hl8koChSJJFIvW0uKsyeGHPjFGmYHPjpafFnzlQcPlO8WOkEAJPByGrsSYtvmCINk4NkQCjk06THzXW1NFv373mj4Iu1MjHr4VwDda2TYrJjhMrU4PTxV+RKQ+Vw/vzL5+MYNjRYrFGFfH+byGNhukuP2+aOTkzLSZFKxQCcF0wk2XVg71Zf6XjdFV/cPSMpLJTnn4NyGJJShIZPXLhi99aTrbNcFgDwuNjupibrvr2vHPr8C5mIdTNOs751UupVE8Yp0+LH2e684rX3HzpBRy9amKebESHgkR4Q8CmegC8QicWiYbNdEARJ8wQCigahWCJmHAY33RJ73Y2TQpMipUpxfIK+OfztEzW3Z8qDRCoAcJu9XeXH7AvHJCVnJ0ulIgDWDf1d3bLxwVE5M7OkchElzM2JK+hzgU0/NkKQct28XE18uFRq1gaHamO9XoojKB6f5gl4PJFEIhHzz46EkkQIUq6dP14THy6VmjTBWm2c13vhB5ZZzfbe1rKuDQX3nBQLaJ7PajEJjd4ZrV4mGoYef43Qd7rACfHPz+tjOJ5HHhWqooQ8oEUSMU8o7jOZWc4LAD6vj+V55NGhSkowFI0cBy6XSx0fmzM9Ly8vb8GivCt/d+99V+RNjFPzJJQ8KlxFfl+OAoDHaveJvXxtqAIuPMDQ63R7wEJGhSrJc69L8kCRHBtiMYNRb+NGPv2H5IE0NnnM+ElTp07VjR83LpJ/pLLfaLMKg8QKjVYBBAHgdnspBSkfXOTLFFIvR5k8ToEsIcNpcbZUtRIGb3JSbGxC3cn+ljqHUipJygqJnHTNP++54dpoQdXuzc9/8MEGfZfNYQ1JTBg/Y35eXt6CxXlX3rby/sVzcmKChg7GUnF0y4H9RwfEk/Lm5eXlzZ84Jkyl8HhcJB9kcSFKoUQAQNGkQCgDoDxuD62gFCFa+XeMdORFxE+Yd8PjN1y/QNi59r0vX9u46WCrgSXtUdk5M+bMz8vLW7Tsqmtv/stf5o0NV0gBgGFYjrRHjc0dKr3u5r/8Zd6YYAIYKSsI0XzXCw1nLju86cDBUxbppLy8vLy8+ROyNAqFx+smBSCP1ygF/rdACYRyAMrt9vBUPIVaIwcAEMiVEjdDWOwjO4hSApCd23bw7bvdbkWEJmvK/Ly8vLy8vKU3//7uq5bNS9NSAkIWp1Hy/5+pnrweL4hYRXiECngU8CQyCdACg8UIwACAx+MjRKx8sHQQy4LL5dSmpk7Uzc/Ly1t4xYJlt/3pz4umZ4Yr+Qq+PDxCBd+e8nUYAhQquc/MDRh6Rr7D87E+zmkycuESiVQx/CdfHB6sFiplXYcMLI/hhp++DKElWnXmipnqMkN/V10fAMuC2+sMTcuYPHN+Xl7ewqWLlt/25wcWTk0LVdJShVo7LkvUXlHV7hYSipDgC+7xgnw+liVdslitkhbxgRaKxXyRpHfAwrCDnZVYH+eyDHARUqlU7g9kjgOXy81XCxVBahkQBCFQBEkdHs7qtNEiUh4TpqRFfAAej+ILZN/zK0aLSXlMqIoW8gB4PFogkH5XZZ+PoYS++PHT58ybn5eXt/jqa2664Y8rZ6TIBBd/Qiz0v+DC36ufmYDPIz3C/qrGbp/dDR6b2eK2W6K1IRQpAAC+gEdyYkNXr411M+CxWixGg4kkOYlUIpAlZE2ff9N9Zy2ePS7mWw9z9nldfY2HNx8tb2kxDutIKApW8C0CV3Nj39meRCMIZGIhEcxUN/YyjqHtaBFoJ81amh0r7mg6XnC82fGdg3IYhnU6LV6fZ8R9ZpFY6O339bc09QHLgXOgzyQgfBpVmICOTIvwNJU29rv6JBlx8tgp4pa2tj6XQBwSFkQSYvnsm66+Y/akeL79TPHR7QcqGBFBy5KyZy049/YXzcyKPHdj2FZ/prSr1RU/95777l153x1LskdFyb/zIoNILPLawTTQ5wAOwNnfa7Lbhj+uFNwMLzg2+orr7105JYlvaT985OSJ8iZCJufJRs+69prb/Qdw5333zRqjlcsAgMejxDIFXzZq9vDSmWPi4qJ5RtLZ2tJ//rm/jwGDxcEw53WytelLTnd3+pLn33Pffffdd/viMekRsu/MF5FY6O5297W3GACAc/T3mMQ0q1YOdhQy2d0uj//hoBcgFosEspiknFnXD32YVy2ekRw2st53EAj5nI3q19d1g9sHbtOAGTzOcHWov9ueUMjnvHxjb5cNfCy4TUazxWShKJDKpHxZ6oS8Jbf4X3HlffflTU0NPXcy5Oc1mdtqCjaUtFic555NTxAgi09SO9muyv37anvOjlGx9/Z219aeN2SF4pNSTShZbzYZe4eHrjIldVLujElSw8GvjlZ391gv1JGWltLBo+bMlHg72+orOs0UBVKplC9Lnbjoilv9x3zPfffNn5SkUYHdabe26kNGz8qNZszOlraOoWO1Oj1297kjH8JxYLS53F43n09TjMRQ0dzjsbrAY7NYnFZTTFgwjxp8Sg7FJyXqMKLOaDL1+4eWEQRIJGJnu723q30AOI519HaZFEIiSHah+8pnOd0+q8N2wUbnCFanx+F2AnAsY+/pMrqdTj6fFsuCpSHZi2676ff+937r72+fkiIRiFydzaUVp47U9/rPnBC6kF8kSiVBCjmZYD+470BtaZm+vKi6dsDKLMxJFfCkACBVKaWiREv5sdN15VX66oqq2obmbopm1TEJVK2xtrjgiH5QS2+/1fWtnwSn01i597lHPtx26nTHsGEpyqQkjV3tOrZrv762Tq/X69t6jObhv7XSSK1GMlZ8aO+BujNler1e39zRbXAAx4Eq+4bFGeI08473tpxp6ne5h4Zfcgy4DT2tzQ16vb6kur64vn5iokQpPu9hqKqwCGEvr/347gP6ulp9SWFFm1IqnpCcJhRpx07gFVe6GA+blhouCsqeSDS081xOSivtNbcfXr3uZHGJW5E9dcbNuulppE8Qm8hW9ladPnT07Ntv7TPY3Of+MdNScXiYKkTAN+gb6vWVJRUNvf0jR8oOUYVH0jZBZ+Xh03q9Xl9ZWtE4orJD31BR+M2mqro6QeKKq+YsSc2MkVC0cgxz4PTxipPFer1er29o0reZbP57s0KZKEgxhjlw+njludJ2k02SlKw1SC0n9hQMHnV7n9nq5dMEP6i/tqFRX989YHScfRO0VBwRplTzaINer9dXlpQ39BnOm+5guKCIaEEn13Jib4Fer68/fbiiI0wly05IJCjgKRXmtp7Wuur27l7LhUbEqCKjBe1My8m9Z49K39zdbXR867v0HeQhIVKnxnBk6x59RaX+zImqBoalZo3OBBD6S0WgNVQcOKWvqtFXlVXWtXb08YRkSEwacbql7MyR43q9Xq+vr9e39hvtZx+CM8TR2nZqxwv3fHm00zzsvZMASWNnJQSLOo58un6PXl+l1+v1+uJDxw7tPtTsHwzjx5NSmtGTtSWd+tLCE/7Xaeg2e10+EEfnZk2a9yfVN1t2HS2s6jU5R76y/xk+wZMXaIxGX1NNJ09EhUSlQ1Fj6ZnCwWNu0LcaTA6b1VhXU3Jm457IG5+4b6HMYDl6eG+NyQEER8ultj5bR11FS3uHedgQcYImaJnS2NzRUldr9LhoKs114PCh6tOl+orT1dWdA96lE5IlwsEu0Hw5T5sxRVvUVnOm8KRer9c3NLV088LCiUZHw6n9h/V1tfqiQ+XdCWGqzJjY4Uc/HCUWuh1cV+2ZhsYWg9N59tEjIxEE0HKly2jraizX6/V1+orT5c1Gi0WiUih4Sc6CgoM1p0v1er1e39jS2Gl2MSxrOnNk7aYPX99f/aMG3aLLzC8SpRCZlJN321ML+l67/v6luiUrt+2pS338rrHSwXnYopIyx1x3J//Lh5Zdl6e7843te/u0ycCnYNyKR29JEpR8/XvdoN+98vbumm8Nu3b6PIa2muSU6NjoiOFD/9SZM+eNShCd+JNu4WydTqe757nVW+uGlYM8Mm3CnGtndz67/J4rdDqd7ob7n/qwBPxhFT19wZiUeOHbf/zL1w21vWcT2GOC6nefuevqJTqdbvm//vSJ9NFnlk5ICjl/wGH6jBtXzJhCHv2TLm+2bsU/ewjF6OsXJQJNQ1gkdAkSZYr0pCAeD8IjoMigZUCWFCEGPgvv3vmnFfN1uqV//OBQ9eQ/XRE5+b5/3xrrPfLlHUNv//UP9+vPvf0Q3fiYbrbkkWt1upk63SP5hnaL/LufXZwx64qM2LDTz1yjm6XT/SV/oMOqOK+yUgXdFY3PXDNnlk6nu/r5SsI17nc35Oge/Gwlt/vpp6/V6XQ6Xd4K3cq1B5sHbAAAISHRMx/8bCW788lzpfd+fbCZSp6/KEXjOni/bpZOp9Pp7n918+6euKDE8Tcv2bbmsev+9ORnXxafDXHN7Ikxra7jD16j0+l0uscKbD02efjwozpP5tw7rp2Qad1/n06nm3nNv+yq8Kxlc+OAryIily+aXV729R8fvPepF/Z0j9wOCIDM+XdeNyHNvO++sx/mjU8/s7akd2TN7xI/Zu4Vy+5I1/9Fd9NC3ZUPF9VZMu69PuNc6eSsWfNMr92ou2KubuUXxcUDwXEgpXiTfvf8HZquje/fqtPpdLqZs3V3vvfViZYLT1F0IarcW669de7NSbse0ekW6HQ6ne66Nzd+CaPHAwy76iigeDHz7/qdqHzdO7fodDrd7HkLntzSWt0PACCPjM+9569JO55f/8W2DWUXfGUKIGvxDXN1i9IB5HzR5Nv/+/vg5q/evkWn0+l0s+bqfv/B+uL9+776/Os3d1FP/mlM8IxbbkiTc42f/efrIpLnCs2bPrXXeuYfD9+08pHNXf22s2kt1PCjF141/0The3944MHVmwfG3vPaddaP7354mW7JH75eX5ryz5XjghRDj24V8oVxC++9nVf0+Zs363Q63dyFy/61Kyzl5hszNY1b79bNmnfldc/zUzLG5E2NOnfgIwRPHjWOH0W8/uiCJfd9cPpM+3fMBUIKIWzRiuWUr/a1P+h0865Y8c8SkdMp1kBEXNb8u56/auCd2x64SqfT6XSLf3fl49vKTU4cNY5+iIvVgxcYl9cxoG8FbXSwQiagGZfX3quv7rT6GB9IZcHamJQQubuvuYMVyORqFcEZO840GrwMK5BK+UIFjxNFJ4aIWGNvW3dnt2nw8pE4NEIrkvCg30BFJ4WIKJIEAGN1++mNy7/Q/O2+hTOzwqXDL3H6LOa+nqbGXgcAByALChIIFawLoqOhqwvECrk6iAJbn766w8qwDIBQIpEHa1wmiIgLlktZV39vV2OfKzwtLkQkFZDAON3W3vqaTn9lACFfGBI/JlLBGPt63C5OFB59dki412Lq625u6nMAcBCkjQ0Li1BKgAGwdpT3MPJgWbhaRXrA2l7ew5cHK8PVfM450F7aZGBZDwBPGqQMi08MEZDe/s6Wrq5ey+A/ZnFYZJR2+INxHP1Nvd2dHWYAAHFQEAUSuYhWqaC1FSLj1TIJn2YcLptJ3wqRCWoZWAZ6uvWd5nOVpfKwKOXZu4QOa29Ph77TP22NMDhKGxoWKQfw9NfXdAzY3V4AIPkgiUiNArsVOFIcGi4RfLs0Ua3kOc093a0t/f6xovKwBG1oaDBlt7SXNhmAU0RrtaGRZ4fHOvoauru7uywAAJLgYJIVKyS0QgGtrRCdFCIT8SjG4bSa9P5F2m7u7mlt9e85OCwhPDRU7r8/aGkrbe+z2wixUKIk3IKoRP+2dqfVXN8GUYkhMtpu6u5pbe0f/IkVqkNCZBo5tLVBdGKIVPStZ58xdofF3NBORCeppUIexdgdpt76mk47AAuKoLDQyFi51N2vbwWFRhkk9roMnWVNAwAgVCh4tEzEk0QlBAvc/e1Nnb0GmwsAgABJeGw4n2LBaudHJagF/jvxPrvdZGzUe7RZkUrxeX2yAMBn7zf1tNV2nQ0GcZBcrckIdte3gjIIGAZsDn5UQrDA3dfW2NU7YHMDEAQRHBHBuHgyuVQbJqYZc/uZRps0QhUaEibnAXDg7mvt9BFCqTZMPvhy9p4Og8vgkybHBwncfW2Nnb0DdjcAECSIw+NiJTy7ydLnImMzI+XAc/Z0dNn6XKLYzHA5gLOntqunv98nk4UnJ6kF/LPDMDnWZ2k709rvcglCg7WaGJFZX9Nhdvt8IJEoNbEZ4fLhJ/IcC56+loauPqPdDUBSdHD8mHCJw9HX1dFhdAAJEByZGqFRcD6zpbWHjE4MEfMpymezDlv0Gtv7ulrazKQkOJjwioIUlEgE3T1kdFKImEdRPqvVbG3tIaOTQnjW9q7uvk6jmyDPVlYrNSF80t6rr+60eH0+AKDFPHl4aqJawpn7O6wWJ1+THvZ992XRZey387zS7+ZpO9Fw6NMnHH/8+4LY7Mih81yEEELol0BRFxrS9tvCCZTi8NHXTogNU2KOIoQQ+hX85lulCCGE0K/of6FVihBCCP26MEoRQgihgGCUIoQQQgHBKEUIIYQCglGKEEIIBQSjFCGEEAoIRilCCCEUEIxShBBCKCAYpQghhFBAMEoRQgihgGCUIoQQQgHBKEUIIYQCglGKEEIIBQSjFCGEEAoIRilCCCEUEIxShBBCKCAYpQghhFBAMEoRQgihgGCUIoQQQgHBKEUIIYQCglGKEEIIBQSjFCGEEAoIRilCCCEUEIxShBBCKCAYpQghhFBAMEoRQgihgGCUIoQQQgHBKEUIIYQCglGKEEIIBQSjFCGEEAoIRilCCCEUEIxShBBCKCAYpQghhFBAMEoRQgihgGCUIoQQQgHBKEUIIYQCglGKEEIIBQSjFCGEEAoIRilCCCEUEIxShBBCKCAYpQghhFBAMEoRQgihgGCUIoQQQgHBKEUIIYQCglGKEEIIBQSjFCGEEAoIRilCCCEUEIxShBBCKCAYpQghhFBAMEoRQgihgGCUIoQQQgHBKEUIIYQCglGKEEIIBQSjFCGEEAoIRilCCCEUEIxShBBCKCAYpQghhFBAMEoRQgihgGCUIoQQQgHBKEUIIYQCglGKEEIIBQSjFCGEEAoIRilCCCEUEIxShBBCKCAYpQghhFBAMEoRQgihgGCUIoQQQgHBKEUIIYQCglGKEEIIBQSjFCGEEAoIRilCCCEUEIxShBBCKCAYpQghhFBAMEoRQgihgGCUIoQQQgHBKEUIIYQCglGKEEIIBQSjFCGEEAoIRilCCCEUEIxShBBCKCAYpQghhFBAMEoRQgihgGCUIoQQQgHBKEUIIYQCglGKEEIIBQSjFCGEEAoIRilCCCEUEIxShBBCKCAYpQghhFBAMEoRQgihgGCUIoQQQgHBKEUIIYQCglGKEEIIBQSjFCGEEAoIRilCCCEUEIxShBBCKCAYpQghhFBAMEoRQgihgGCUIoQQQgHBKEUIIYQCglGKEEIIBQSjFCGEEAoIRilCCCEUEIxShBBCKCAYpQghhFBAMEoRQgihgGCUIoQQQgHBKEUIIYQCglGKEEIIBQSjFCGEEAoIRumvieNGrvH7rvUIIYQuQRilvxKfFTo3vPLcug376gaGrzeXnty17h//2tXsYdzD1yOEELpUEXDHZssrM1mWHVlykVmNxi9feqnZZnMCAIBAqhq9/JHZyZIw6cia38feqK9pLSgVLrxxXIi76uQJY68nRLc4QwVAjKz6HRgnmIrX7/GFJMWPHSVkO6q+3AEzlmYlRKlEI6v+fxgHGIvXfVZQ1tJvObc2Y9KVM6bNTIkYXhMAvEZoX//gi97U2VOuXJ6lGVpvKNy358yn+aon3ro6VkALz9sGIYTQJYeiqF+tVep0evPz9W0Gh48kSdbu7juTv/rzQ2c62q0ja34fd293U9X+gvoBL8sAQZAEQf7QDB3EesFae/JoVVWjwQUEEARJEj88iM/DesBWc+JodW2z0UOeQxA/aW8IIYR+IyjIvv7xvDjuF787Z3dy2494bnrod7fdfu2VM8dNiCdKV39Qw6XKtBHxIRxr72uqaWjr6OzsMpjsPlIqE5LgM7d3tLU0tHR09fR1mTi+iPD211SVVBytdEQlilhKqVBpYyOkUsre2mp3WVq6u9taWrt6+wfc/GAhjwRHn6Grpbaxraurq6vL6GApSiTg+UyG6oJdRwd8AlqulhKC0LiY0IhQmYhw2vu7mgZrO7wkzRdznH2gscXutjZ3d7W3tHX19g+4BcFCmqT9JySsC6xVe85E5iy95p4Hf7c8zy87MzZYzro81t7G6ob2zs7OLovNTQjkBM9Stecoq46PTk1R8my9jdX17Z1dna1VFbW9tf1BsxZlKDnzQHtbc2NLe1dPV5fZJ5TwSLfTbGrrMHntDS2tThdB8yUC3siPFiGE0C+HJMlf7QJvb6/t3nvX3fro7Gnjo5X+e4cd6594xRmRO2H5UhWUfHXfLW8VmRwWiMiYefVdL//96kgY2P74Sx9t+eRQN/CVXPq9q16cHnTmq61vf7y6HgiCSJ47V06Nyo4OWrYM/vMMN0bzSWltw6EKkGqiFz174M/TVSH6D9d/9s5jXzUAAHDJ8+5/4LaViyaxp9etvOntImuDFYLj4uInzeEaoh987spJUa2lX3/2jye+riaA4ebe+NQffn97VHDF3nuf4bJDPyquaTpSyclC4xc9e+CBafKkIAAA8JqgY93DL3oSdZOHXbMlCALApm8/uWblLW+fcXqsXM6Uq29+7M3FEzvWP/KiN3X25CvniV0nV6+8+Z0zLo8NOC5oTOyMu758a0Vc/7ZPnvnwg6+ONoEQIP3O9165cay570TZW6t7Zia8/dHuuTMf+MMdf5ieMfxjRQgh9MuiKOpiRanX67Xb7SPXAgCAUCgUCoUjo5RzgvfwG7eepiaFhY+WNb1QEfy3BQlSgcxSW13dtb8m9KG7Yf3TpZ6k5Mwrs2Os9vJ1O8Puui5O1FK3o/Dd3ZI7Hp+bSFfu2WXpt1PLllj+c8fa8JsfnjZ1VAZX21O276HT0/718JwZcbRvoL/T6AYAqN6yulPriZn+4gKF6fQHf3vXFTI6a+5sJd1V+ezb/Hv+leQ9squ40ORa8KerR4Hl8IebrHHihJT7w0vuvePryNsfnT45I42t6So78NDpac8+OmdmukY6FKUrvz7ZZvIpRfTg2528eOX4NGVb+X+3tl357NLRQknTjiNN5pOa+atn1fz1VTZ1dmSKtLHw5W1tS59dmiUIZ0tPnmrfXRn6r7dSj/2x0JsSEzEnNcpng97Dn+wPG5fN8I2ln71flfbIs/Pj1akJ6mC11H8/1Waz+Xy+4Z8zQgihISRJymSyi3HH7SJGqcfjsVqtYrH428dN0zRN0yOjFFwAx99ZXshl8ekEx56/7GUXjQoW8oTu3u5Ors08+l9fJhas/KbBGpl40/Ibb8qRlpcTSUlyprp0/+m3NsufeOvqRNue1avb9H2w7Er3fx6pmvvon+fPyEhkatpPb77hVemDTy7Vpbh7i45t+uZkJwDbX3XaMyp6yrI378tSdax79L/uuGmTli+U+Sr23Psf+MODksajTc3d2gV/vWdaCHgr3nvji55mt+y6a9iXHqle+PeH5k1LTfBWtRZvveE16V/+feWMrAjFUJT+rcIdrEkdFyUbfLuRSamO/ubazZ8ZFr32z+mRAmnHtu1bTn1QoHzmWcG7b0D2BKFaaNzxhWHRq/+cHikIthXu23Pm093kE89IP7p1fSPBE6aFBbFusDcdL8tYdENEaJBz/0b3da/9Y0YEP4h/7lP1eDw/+x8RIYT+N/h8Pq/Xq1Qqvx1JgaMo6mLdK2UYxuv1SqVSHo/nz84hJEkCgN3u2b69aszU+JgIhfBsn52CfBMvBARyZ0mpKTheLaEpiieTB8WmZWZmz0oNcrpoHul1my2tDY09UmW0RsXr727qOlUrmLYoI8jTUF5uGXBAWjp9uDhs9uLRqbEKIWO2m9sOHCbG5wocTWUnDpypNANfQJKky+pQBgfHTp4aKbNW5R9jVDFR6UkCtrdh+2HIGePtHJC4hYl5CxIUBPDZ9qqCLkOPPXiyqrQobN7S0SnRciFjspnaDxwmJsxKjQqVC4fulRar0mbMXn79/MlZfnFRwv6OBsOpruhl12VqhJSQ7euq7izf35ewTF5+iogM8dECXnV3zFXXZ2iEFO1sa2roOaPnpk1wHzrc6eIJlUESPsUjhZromMzsMRLgeK290cuvywwRkGcbvuD/W474nBFCCPlxHOf1eoVC4cWIUtKfapcAr89t6Dh6pl8bxI8J10hC1HHTb370uadffOWVV1555ZW/Pf23JWPp0HHX3H3XM7feNEvQ8fGHq578dF91Zw8D4GM4p9vDcf9Pi8xcdmRv2anWiIX/euX5/77ywiMrFmYPNRwBXB7Gy3iHFnl8mrGz1oF+G3AceO02J00wMrH0p3XtpWmK8NL2nj4L5/GBz+V0Ml63SiYjCMpfChzPYba6wceCz+VwOuwOggCBQBCUPvWqux76j/9DeOWVV+64enpS+Mi9I4QQ+pX9ilHKAXAcx7Esy7IGc+/ht1a+79bExEyZEMW3qqu+2HLS0WVkB/ns0L3lm70VJ6rkCVOv+9PXL9w73iB0Oy1WAqxORt/R4fU5ue9tWhMEoYkPTkwbE8KSwPZVltZ3trUPFbb2mvpN/UN5rNYEOyo95Xu2l7BuL9tbUdqgoF3jUrMAqGG7/KEUShllVFWu3nDC3WNmjU31TY7+rpnjxlGUDAAUKinFhNSePNHmNbtYU1N9U311A81jw6MiunY2lpw5pj/7IbDf+wYRQgj9Sn69KPXaoPbD5++9dolOp9PdeuN9R2TPf33jNbkTI6KScvJue3J+z8vXrlyq0+l0uivuuPrJ3TXyEPfuV9+/e4lOt+DK3/1zx+i7MpPiUyMyYzJidRlfPLs8748v7dhTPWxqhBHU07NjB4TVj12r083S6R7a2dVoVkYBAC2B8CvnzmhozX/koTv+8uS2TqeXBUibfv1y3XTesT/rFszWrfhnNycfdcOixJH7/KFiUicvuOnR6e3PXPGHK3RL/7TvWHv6Q7eN5vP8H3502tisK2/gPr574Yp5urve23+wX5MIIhLGX/ePW2O8h7+8Qzfottc+PKA3jtw5QgihX9lF7HZks9mUSuV3XUN22u1Ht2/vc7k8AAACgVibrpscp+RLaQCf1WloOFpQ1ef2eQBAoBJrk2ZOkXYePNPSaRgAoARiZfrMCfEKtYR2DrR0VB481QrisEg+EaSWCmJjobQUUsdGa9USvs/iMHYcLYWU7Gihvba9tqK8CwBAERnJJ4LUypD0sRFiAEPV3srGrm6vTK6JAKs0c3yMVmo3NOqLTzUYATiITBqXmpIsFRg7jpZC2rhoTbCE77XYhy/6b/fam06Us4owTUxc8HmTJXnN9r7GwoIqg4/xQkhofFLW5GiNvfFkGacI18ZoWU9H1faTrT6GlYaEiCQaMaHMmhwnc7fWldTWNvQMniAoU0enyGQ0tHfyx0yOl1LET2kiI4TQ5cftdjscjovX7ehXi1KEEELol3GxoxRzDiGEEAoIRilCCCEUEIxShBBCKCAYpQghhFBAMEoRQgihgGCUIoQQQgHBKEUIIYQCglGKEEIIBQSjFCGEEAoIRilCCCEUEIxShBBCKCAYpQgh9Avh0A828rO7tOF09gghdLGwLOv/MfT5fD/7z+z/NpqmRSKRWCymqJ/hIVgXezp7jFKEELooWJZ1Op1ut5umaaFQiD+GPxzHcT6fz+PxsCwrl8tJkgwwAi/HKPU37X9zDXyE0P8kgiBYjmNY4NHkj/oZdrlcLpeLJEmFQiEWi3/Cj+Fli+M4j8djtVqtVqtAIAi8bXrZRak/QS/Gu0UIoZ/Gy3B2j08upMkf89NkNBppmlYoFBKJZGQZ+gHcbrfZbDabzUFBQXw+f2Txj3HZRSnLshRFSSSSAM9BEELoZ8GyrMPpNpjtcvGPi9Kenh6pVKrRaH7szyDy4zjO5XI1Nzer1WqhUDiy+Me42FF6Kf6BCYLAbx5C6BJBkiRJkRz8lFtO+GsWCP+n95u42XcptkppmpbJZP7FDRXW7bW2kZXQZWN6nPjWbMXItQj9shwuT++AWSHm/dhWqVwu12g0IwvQD+Z2u+vr6zUazSXeKr3Uo/Svu/v+U2AYWQldNu7KVb57VejItQj9sjBKfy2/lSj9cTl3KUvT8MPl9HctXlQxSl5i8Llb4iMWfzGxKl7CsNcdsRgomhTL+ROiRBOjRaOD6LCfb8cIoe/DMeDubakqKzlxTk2HyeQaWRH9in4bUUoQBI86+x9J0Bc66teWaG8Ze+5K4GtLtLdkKwgCaBKGn4T415DEeSsDdN9k1dNz1UOL909WPTVs8YJ+2mGQBFDfvcmfpwT9Y1bw0OIDU4P+PmzxggYPY+TqQcNLCYUoZZz24F3Rh++K/mym9GrtyMqBo0iCPvsn5p3/V0Po8sU4oWvzG/fdtGza9OkzZsyYMWPG9GkPf3zsaPtv4A7i5eO7fkUvJTJBWJZm310xRffFFt0XW3Rb2FadWMn/Ab+0YtGUDNVHSxUT+MTg9WIBPzRK9cW1qqtCeSEja/+CBPyIaNVX16mu0ND/T+QOp5DdMVX11BRJys/1ZxPwY2JV625QLQq50GEIBDGxqvU3qBaqaTUIJkYI/5DGrv+6Zcm7zdfkW1d3j6weGBJA8vA1Edv9f+K7IosWStMUP8+7ROh/QdyyG/75ya5Tp04dKzi1+Ym4vtbm0sr+kZXQr4aC7Osfz4v72btIMQzj8XiEQuGPvTDNcRxJkgKBwL9YaiP4Ut59aZSp3Lqn2VnQ6qy3M6yCb693DTDc8CscvTYmPpiXrhE0Gb3PL9CcanftbvWGyOmrYuFohavTB24A4NFBKtG9o8nKenejmbEO2zwQJicj4pGLU6WFLc6HpgV7WdhYYW0xeUfWG4ZjWKvDV9XrM3i576t3PsbDtBt9zVbWObIEAMDoZCV8ckGK9HCz8zFdsMPDbqq0tf5/h2Gx+yr7fAYv5xtZCBzDWhy+yl7fAE8wKl64MIo7vt+8Z8DX7OIcP++9dT4FEYprpK7GdsfOenetmQ1LFHs7nAMONi5UuCRNOrI+Qr8sr4+xO91CHvWjftDsdrtAIAh0UCnrAUvFnhO80PSsmfPGJgTJtNaiL+tkqiCfxtP25RflZv3rn67WN3kk6hgCGvPfeer1L9dv+GZLWVU7pxkXqhoo/Hp9fZedUGu87obDbz913BmjlmpIe23tybVHrKMSvOXrN6/+5PUP127ZsW/LGTYkSh3M62g4svmtf7/5xZYtm7cUtXhEosgobUB3Kn86hmEGBgYkEglNB3TDjmEYr9f7EyLphyBJ8hKPUnsngJAkRpltbxdatrW5jne5a81MN0d6ety9PH5arGhyGCW1+XoZ0Bu885Ml2eHCQ02ON5Zq3zpmOtbDJIXwZmi5gnJXhz9KaVohF1yXCEW17m6Cjo2RLksW50aJcjWUiOHMLoKnFF01WjItWjQxSpAsI/kOppcnnB3HSwsVpYaKpkZQbJ+PHyKeGC9ZkCDKjRTmhhAuG1vX7w1T8u6ZqPqwyPz3WeqqXveaSrtcLrwqWZAUJsmNEmUH0eEkF5YgnxkrShcDzbBGgk5XEX1OOknDy44WRqoleQmiCVGiRCFHc+AUCpel8EKDJOOjxDPjRGO1/AjG08fRagkpJbkeK+sUieanSWbFiydHCUeH0FKbx+iDRrMvIZh/R47ig1Omf80LKel0rat2KBXCZSmChDBJbpRorIoOp7nQBPnsWFG6iKMY1kzS6UFEj5NO1fLGRgmj1JK8xMHDoBjWQtLpKqLbSMbEiOdniqYEUYyL1KopjqBDFMJ5GZKpUaIJUTylj3O6CFohXJ7K06okuVGCFAl4zJxJJFyQLpkZL54cJcqNEOSGkDYLayfomDDxksFtBeEEx7iYAY4ACS3tsx5odO5t8XW6yXGTxVy1vcnMhGOUokvArx+l2840tTS0ddaVnTx16mBZc9iEcUmEqOn4h+8XsOESlzc8MkklZRvKPl+9s0lCiQWkpcdgszQHRU1Q1m15q9YmUITGe10n1365vtmZnqUNJ7z6qv1rq0JmSMvX7D5d32+UyqRA9tUZYieqHPqG6v0V9RzQfD7faxxwCtx0cEqCkg+/wm0XjNKfI0o9zW7KZzKQpw4Y1zvA34h0uti2HncbCy659MZJ8t8l0WST/aQTEkP4C1OkWindZvEty5CVd7vbXYRWTl04Sht8Aq1kwRj572IESaGCaTE0Z2YHnFR4qvyPWZLx4YLREcJUOalx+U6D7PEZ4hkx4uQgwRgNtNf74saolqdLrogSpIULZsXSnc0eiiTHJUomRAqL2l2L06QWF1tvA6FS8maeNC1YOCZaMjGUnyvmQuLlukTZNBkjYrl2vvTVOfz2Af6cFOFVo8RRUtGMOMHoOGmulBWx0CGQvponjpKJx4UJJ8SJxkSIphKOYo9kUYZwhppoaONkyYrfj5bMjhGODhdmhPASnO4aCyuX8nSJ4nERoqIO15UZMqOTabAT0iDJqgXS5CDh2GjpxFDeeAmo4xUzk6RTpQyfJXqEktfm8pv6+HlpwisyxNEykc5/GBKGxxK9Qslrc/mN9VxcjGhqiihZQAplvAQFQfGFGZHiW8aK0tSCCYmCSBdjtZNOreytBeIwiTgnggrh2L5ujpei+ssE8cxoYUaoaEK06PoEOFPn88pFkzNkt6WJx4QKRkUKkkjGZ/dVmxivxVVlAVbMj1ML0tW80RqmuMRZZWUTIjBK0a/v14/SDYdOl5VXN9ZWVdSVNxMJ46blJtFsR9mRA3VRd7131/XTdCnWjsJ9X7x+Jv7v7668bdlVo2xOQ80HBcKli6L6t1aCRs0LJZkTW40JIe1URpjYLnD0FJZRsyd3b17V5AufvPiPd966dO4oc50szX1iXWV5kS/1T1fPGjUqK8Zaf6a/sY0YPS9V9XPdWvoxfitR+st/Mj9Gf1W0tyWKx7SagLlQ1rMs+JjBov8u1F47Wj49TrT+xgghTby4UHPDGPnIDYbIpLMTeBlgfeq91plvtzxU5alzCedGif44BXZ82Xbje626LwxvNXOTpslH04RUKpHbHKcL2xd9ZfpaIl+QQXiaBh54t2X+551Pd5NuL/HoROVfZwaHyuj8O6NHhwr+MEH5t1lqoAhQ0N0lvc/sNbzRB1lZUihovzffdIzl5cRJkoe+lEKhmGGdZS1z3muZvNV0nOPlxImTKZJUyEN6+j7Y0TL5i547SjyjRyvGSP13NHlahfj55bymo733v9eq+7Tn3qPe7JmKsSr6qcmqR2cERyrogrui0zT8lZNUj+uC/YfRVdzz1N7+dwaI0RkS2Nd6115zEcHLiRUnDZ1mikRihrWeaZnxbsvkbebi80pd35y2fnTEXNw0cM+7LXO+sHfI+VkRzKFtLdPeabnpIMMLES7MFJAUCQp5SHfv21u77i5w1qmkL10t5+l7/7G6ZfJHXTfssbVy4AHRinGC8VLnqvdaZ77XqltrrRTyc9PFyYN/FXpmjvrlmzSvTKePvN+/s9/XMrgeocte7NJr//rBlsLCwkM7Cr9ZKqqqKjtU3S9PkIy+fcUEUZgSwGK2e5X9o2+7aoIoTAny6IRYeXjs3tJST1b0ZIdca2xpFRsGEiYuS/D0NZvKK21ue2dCrDYyNkFSceqjT974x6YKkSj97nvHS8QC28l9h155YObMuTNnzrz6ydc/PtDYaegB+Hnv6vyPubSjFACcrM3OtF7wr2ixfb6/987NAx+YwMXCys3dOW82P7arr9Pim/1Ba86bzZ8Um0duMsTiMzkpTaLikZuDVgiI2pPmDd3uCpkgQyl75K6YnffFFt2ufXWmNFpOJxAgstlOtrn3dwGwHAx4er388VOU981XTLEzu/b0bTB47is05rzZvOyLDruHvWtjd86bzX/b0wcMCyZn8QDb0s84BtwNA659Bs7Yz5hczMDwI3G6Grqd65vAywKYGZOTMQAAw4LJvK2RqTQCuFmvydcB4PbXF5A8pSCKEN+5PGLtfbFFvw/fuESeoObF0cT7hwZy3my+ZnWnm+HuWN+d82bzP/P7/YdxysC2GliHwV1vdOUbwGzwGZ3seYfhcOq7HBuageUAzD6j6/zS4RR0EOs2dDk3tgDLQX2bq55HykP4sxiWMJm3NDLVJgAhxZeSUSbzrkamxnT+tkLhrIzgF+6LPXVfbNHNwXeOFsWKqcjBYt/eE333fNxz937fjJXh9yTxs36l2zMIXbooCsIiw7pNZK/xB3Y7CgkFhmitbGkvak/SaCdPNraSzaXthC9m4iSSN+n6Nz//4tTTD83r2TBeN2P8Ux+faOoInTbptle3nDp1/JTfJ+89e1U2QECtwv91l3aUKlU2hRwkdIoMqG83yhmm3+xtNPp6fcACLM+UPTA1aFGqVCEg75mgemBq0PhI0chNhjCugjOmf28zvlNDTFikfSJPcX08P5ZlXP32NUeNbxwZeOVg/9N7+h/Zaz3s48wMa/dwFg8Ax4HPubrA8PRu2yEH/4pl2ufmyuaqqGVx4gemBt02TsGniGtGyR+YGrQwRQIA4GNtXs7tA9bHuRjW4gWfj/OxcF4HH5Z1edgBN3AAwJwt5TjwMUY35/ABcMD5ODd39mSCAILg+Dbn7hLTW0cGXjlkeG5f372bTFsMvtR48QNTg27NltMEcV2W7IGpQXnJEuAAGNbmA4+PY3ycy8eafeDzcQz3fYfBjDjI4WiC4jivhx1wAwC4PKyLICgeqeA4wscYXeBkAAQkT0FF+Ri7m3My521Le7yNzdYPjwy8cmTglYK+x3YMvFzqKB8s5sw2b1Ovs7Lf08CIYxRkMEYpQiP4vNBQWysgBmSi8y4cS6Qi2qbUbzlQ4e63gr27vdPe1zkhM4VHx6WkiAZ6DVWVTWk5WlFiTjzHuOwtnVx0FE0NnD7dTTqlaRNnz118W14WVFhYirX2CIxt3bzMlLTMzMzMzMyE+OggCeMk+gvWPLt2486KVv8QnW8trv7PV5t2VbQOP6rLxqUdpeLYBibUwBMsGiseTRP+O2ZyGZ0RL86gCKmAPzZBuixdNF4ENAEuH2f3sG4fxwI4vKzdw3pdjNcHThEvTkyIKQAAoYDUKmmlm7XwSLfH29FiX13uLHESodHi8cF0LMEZfVxvm2VLmfnjYvPHxdavKpxVDJzrLksAiCm+1VlSZ99c724iqFGp0gnBlJrg7B7W4eUAwOll/Ydx7l38vBiOdbFmIPq67QVV/uO0fFzsKLKxvQxn97AOHwfAOb2Dn8bIzQPnYp0EJZHzMlRAAAQr6GCGddl9DTBsilIfy7hZo4gXJiYUw09lXayDgQG7V99g/qTYf/C2HS2eTj4ZGiUZLydDafCPZx2cO+QiHD5Cv0nGyjP71n28atWqtz5a9Y7eNyoxLjv6vDFsAm14TOyMbHfxmo8+fXvVWx8dPdkuzrlhfJSQp4pJ4Bs5fsdA8MQUOU+RkEgPsKLGbmlaOEPR3dU713/z9pdfbTtezXKy8VmR4aMnZ4bGy1rz31n17qpVq1atWvXZ9m0nWqysh7PWnthxsqS8Y8B/B/cCi6dKyju/84LW/7RLO0ohpqJdWdxPRGcpr4sVzYoWTYoWzUkSXzNakkYTYrFo1hjFnyfJ8qTAJ+DNY8b7t/R8VGQyOJhHd/bdv6Vnb4Wlz+or99CTEoRTYkWTokW6WIEugjK2uVtYfmqc5PrRwoxgrqrSXtrm7bR6O11MlU8wP1M4I0E0KVo0KVIwTkMrCDj3hBqSBKF4aYZ0aTpPTTGlFfbSbnYAYH2t9f4tPf/a3+/yca8fNd6/pef7ri0HyMs4LN5CKz8rTjg7STQpWjQpSjgpnKflE1sqrPdv6fnPAYOXhVeODNy/pefzEsvIzQNn99RbCZdYsDhTNClGtCBFEOb0tbR7SocHn91n7nZvcPHSokS6eNGkSEGWmhIBkHZPvYXwSASLM0WTokWTokWTIvgpCkouoEISlTcmS66IF02KluSGibJ49kYz0zt4URuhyxhBgkAbE2wzNxRuW7169dfbVhdpp82eMHdKZmRwaEqyRkL5+7xoIjNmXPmn5aGNOwo3r950zOoU5967JEksoEARGaRJy4pNnDkqiE+TiohQUWS6IjhulJpHqxNCLTXNRzauXr1+c36pfcb1oxImL75qycyF6fTJ1d+sXb169erVmw8WnOm0EzQn1MZmxEZFKCUAQFAwYlGgjcuMiQpXBtbJ6rfqNzAH7ztVzhm52vfG8eU8AACwuFpqDRN32QfE8gd00iUKb/623lcHwD/ScXmm7D/zQya91TLgv7AoFERGK9dfq0gVECIAcHs628x3rTGedIuunK9aOU2aBQAAnWe6/33K9mE3HR2jXHeNIuVs5Y5O21174J6pUF5n+7LYqQcSQPLM7eoV8fxYAK/T217cdcsJ90kjCwBJav6xe2KWfdFxqMkBQkFclPzrebBqs2m3mZ+dJn4o1ff0GtNpmfyeXH6KELZWwj/mw6sHYWwEyMH1+i5rGQAbpHx0Ai9ZANur4B/z4OWNpr0d3i6hID5avn4evFoA46JAyrpe3+coD1Z9tlwxL5xWAICPAZP5/q9NWzu9XQDpGsGxe2PyPmo71uoEkTApWrZuHry03pRvE0zIEN2X6Ht6jalUofjjRF4sDbtr4R/z4IX9MDEGBD7Xm3usZQBckPJvE3nRNOythX/Mh+e+Nu5zCCdniP4Q7/vXGmMpCza5dNk45QuzJZEABDi+2jrwQRnTFyNbNw+e/dq4r9vXAwAiHiSFHJkjHh9EAQDBMDyz+Y4vjdudwmk5yudnSQbvj9rs206ZnjrqLksOOTpHPE5FAYDF6DqW3/KgHuodOAcvuiRcmnPwsizr8527FUOSZIDdXC9Bv5U5eH8DUfr8EaNUTEeIiMHbpQzncfvqrSxDUmopKSc5m9XX7xu8lagQkqEyut7gYfzLBMHjUzEKSuCfAI/lvF6m3cQ4OVIuo4IlpP9uqtfp63WyA17g8akYJSUgzlb2se1WCJaAy82anKwbAIAMDaIVfIIPwLGc1+lrc7AOBgBAQBOJwfxmo9fuYYEg+HwqRgr9FsbGECIhqRZwvSbGSVJBYkJAgNUNGin020HEAxJYg3/WBYrSiAn+UKmFsXo5H0nweVTM8Mo2zklRUQpSxiMo/41Vhu0wMxYv5wMQ0kRCML9pwOvwskASAh4VLYN+M2NlCLGQVAu4HhPjJCn12RfSyqDXBhIeEMD2W1nX+YehlUGvibGxhERIBvG5XhPjBGBJUiGmwqQkDwCANVmYARfn41Ex/so+zuef5JBPJ8hIMQWgEKXGSL4Kt+m22Y4ZOYloaFsAlrU4mB4H5+LTiTJSRAEAMAznsHo6PeBhMUrRJeHSjNL9+/c/8MADQ4uzZ89++eWXz6vx24dR+rNFKT4Z5rdIKuGNG61erAE1D0BAAMvAyYGn231N7h93/xOjFF0KLs0obW1tPXDgwNBiTEyMTqc7r8ZvH0bpzxOlW6tte/X2kZXQJU8ipkdnBM9TQzAPABij2b3nkPUMBz/22bOTY0TXZX33+GCEfhE/LUp7e3ulUqlGo7kYP9+XCZfL1dDQgFEaaJQihNCv7qdFaX9/v0gkCg4O5vEGb2igH4VlWYfD0dbWFhISMjQx+09z2UWp18cASctkOFccQuhS4XB5+owWtZRPkT/ih9hkMnEcJ5PJVCrVyDL0A7hcLrPZbLfblUplgKcjl12UvlPY99nJgR+7FUIIXTwsxykExGc3x4VIf0QXWa/Xa7PZGIYJCgqSSCQU9eOm8L2c+dujFovF4XAoFAo+nx9gKFx2UfpqQc+rBb2m8+bIQQihX5OAJpJCBN/ckaCV/Yi2Ecdxbrfb6XS6XK7ho1bQD0GSJI/HE4vFYrH4x+bIt112UXqk0Xao3mp2/czHgxBCPxmfIiIUvJvGB0sFP+4HzZ+mVqvV5XL97D+z/8MIguDz+WKxWCqV/tgQuaDLLkoRQgihn9fFjlLMOYQQQiggGKUIIYRQQDBKEUIIoYBglCKEEEIBwShFCCGEAoJRihBCCAUEoxQhhBAKCEYpQgghFBCMUoQQQiggGKUIIYRQQDBKEUIIoYBglCKEEEIBuYjT2VutVj6fP7IAIYQQ+mWxLMuy7MWbzv5iRanP53O73SPXIoQQQr8GgiDEYvHItT+HixilCCGE0OUAH7KGEEIIBQqjFCGEEAoIRilCCCEUEIxShBBCKCAYpQghhFBAMEoRQgihgGCUIoQQQgHBKEUIIYQCglGKEEIIBQSjFCGEEAoIRilCCCEUEIxShBBCKCAYpQghhFBAMEoRQgihgGCUIoQQQgHBKEUIIYQCglGKEEIIBQSjFCGEEAoIRilCCCEUEIxShBBCKCAYpQghhFBAMEoRQgihgGCUXjSMA/oKVn+av/9kq2VkGUIIof8dBNyx2fLKTJZlR5YEyGt29tXu21na7fK6AYTBUeFZM2clSQU0MbLmpYx1g01/uJhRRIQnJoeIRxZ/L68JOtY//JI3WTf5yhVZmpHFQ4w9ddWle0saAVgACM1ISc+ckyIDa93BPaVNvRY7iMSKyDELZicrKAlt7KmtLs33V47LmDZ61OjI4JE79AJ0lWworOkaGAClLCh52jXjwilS4C9kXGDTF+wubaKjo9MzZ6cObj2gP1Td2NsMSQtzoXhvWVufxXF2d/FTV4yO10bIzi4jhBAahqIoCrKvfzwvjuO4kYWBsfe01Oxe/8WGwpLa2tr6stoucxtkzMpQCnm/qXYw4wbzmZ37BxiJPCI2SDSy+HuxLrBW7TnKBsdGpaaHSkYWn+WsqT22b837+4pb9HX1lcWNNgcpGxUvthat/2r94cLiyprq2oa6jnbt6CQtRRqLS/N3bPqysKhFry/pGhDKBRHaaIWQPrc7xufq7anZtOmD/YdOlZfXtrQ0WmzJ8ZEKkZRHkQDgs0Dvnlef+XxDUZ9Dps3JiBHTQLj7S3e//9X6/B01olnZbR/9Z93Bk2V1HS2NdVX6isImyA4L00SH8Knhh40QQggAAEiSvFjB1lhiWPN885inP3lzw/bt2z947pHl8f19FOPxuD0up9PlsPu5vAzDAscyjMc5uMrucLo8vsFkZ30et+tsgcvLMCzDeN1nqzpdHh8z/ByAYxif1+XyeN12h8Pl9jIsx3KM5+weRuzZNbRnu9Pt8Xp9Pq/L7WP9Ffy78vFZzbzb7l64YEqM7AfumfN53Wffn8PjY1kOAAYrO88uD9PRQSri4l/a/s3W7du3f/LstODE1oIttS2bXzsSeePfnvx6+/bPn3zuJuVXb++o7Kg9tmnD6UpL3EvbN27bvv3VUcKeijWri3oAhu3SYemu3PLIs6a5f7rnk+3bP3/oqavtLz2+uaRpwD78RWMmZRAGZfvxvd0cywHTs6+4zVE7EBkPQABA7NIbnnjzy+3bt29as/2938saa9vqm83DN0cIITTMxYpSAAlFRUeEUUIhAEQlJk646/YUsXnXqpdX/X3l7x++Ref36Gcnj3eCq6P0zMd3LVkwW6fT6XTX3P7w+zu6wc0CQM2RD556eLCu7rHPT52orijd9PxdOt1snU6nu/Xxt3cfGxj2mpaKkvz1D/3pozUv5N284rHnV5/UO9v7Sz56ZNH8xTqdTnftnY9+uLMbPCwAVB9+98mHzu5Zd+ur736zfu/e9X97clejy+sGAHN58d71f/vb+sbG9S++uP6bb9bv3bv+4T998NWL825a/viLa4vqnW29xR88tGDeIp1Op7vu949/vKsbvBxA38ENL/z5Jp1ON2eJ7oZXNlZ19AOAs62n6PMH8/70Qb6+zjbsgAEgWpc2YeFto4FHAUCfsVvgHAgJ0wIxdCFcLBFow9MIQgy9A90xpHts9mggSYD00RmcMLndMCJKvW57S9WClFhVmBZArZElj1pU3e5zuM9/2dCEJJk82HHqTA/HcVV71/vAFZKWel4VAPB6oKO1MUTJyqWqkWUIIYQGXawLvO6Bmt6a9zYdPbW/hRZIgtPCVWIhS5hLtn1xxiyJTV98Vd6EsVM1fcdOMh6JPHZ0RIgiNCJ53KTJU6YmigQC957+4AWpTPU37xa386ixy69cNHXq1Km52XLL0Tp9qTv0ukVzpk6dlilwWrg+A508Siv0N6cczfXFh3duOkJNu3XSxMlTx0m4lsZD7zbIrl4wZca0GWNClHxfWYUnPZtfs+6d0k4hL3vZlXnZU1OJtg5VpJYVUK6iEmLywnQln+I5muprmg8WuSZPdh086FIoXKSj7vDW49T02yZPnDw5R8w0Nhz5oFF+zcKp06fNGKOW076KKmd6tvXwax+e6Q8Jnr5ixfzsqRnCfmNYclrCqATS21Ly1QdlqlkzE+O1ocJhnxTFp/kcZ6ktfPvJ99e0mzSpY5dOHhuvjopl9dv25G/45ptdR49WehOXXDk9izEU1vUM8IJnT0gSAsnz9ZZWWj0eelxukhDIwei12vqbDn9wRrZYFx2tVgtYj8PSnr+fnDFNq1WreQCME6xVuwqJqGyNVizu2dYUNsmwdbtFEaoJDpL3dsK0aXBsff7pk4cOFOzZsW3flvxu5ZSFM7Lj4xW8YQeNEEJo0EW8wBsUo514w9yx0ZExnobygm/e/Gz9p8fanR4GaIU2OXfyghUrrlm24oa50cYWo76pm+FLVDKyv9/Y3d3d39nS2lxRVD1gqDxWZHMqR027foXf1GiPtbHk6PGyxu7uru7u7r7W2uKK8qL67uHNMpLmSbVx45fmLZmaE0u5G8sOHDhV19HZ0d3d3dveVFNbkl/c5m07c6DfLUgad/2KFcuuXLEgOzFY+v/fByVpniw0LvfKvCVTcqLB2XCm4EBRXWdX5+Cea0ryi9oGqgtrgI7MybtuxYrlS1csGJsQJBUBAE8ljcpZ+odlE5NDQgb7/wxHkJRArNKqNRI+Y7b2GQ1WHg2NTkosVCgErKWrpqKZpEkiLC0nXBvSVfj2m2+tevPNN9fuON3UzpLUeX9DiUQRNeMGTU/hlg2r3nzzzY8+Wr2/xEW6COJs1g4ShKSFhcg1ves/eu/jWn6OJjo1Xnm2jBZLlMEhoaGhYdrQWI3cZPFZHc7ztkYIIXTOxYpSaVja2Kv//bcn//3vK+MjnCXfbNj80Zenu5xeb0isOjQkQgZA8yAhOVnsVZi72qsri3dt3bx55/Ydu3YdLy/X94t7ek2GujpvhkSdkBZ+dqcWi401tFr0Zbt27dm1a1dh64CTUKtF7PAoFYcJY2ZOTOYrxQAOu8vV30V2Vu/fW7Br165D1XVd3vAIMZBGU2+8lB8WETa02Q8gDhfFzJicTCvEAHaHy2XoJDqr8/ce2LVr16FqfbcvTCsC04AxaJw2Pj5lxJ4FamXizNv/eefcrLDw4U3Ss8UiZeKE2//54N+XjGZr6zZ8s6+8ed/aQp7ummv++s/H/3zNFeOFDQcKWntk8TMnjZsc5Di2a8+uXbs2bzlQYW5nQkKVw64Gg1wWkrnkL/PU1prqgl27tm/fs+fI4YFooUQoHfm6Gk20KiGra+sbp+XJ8ZEJwzpGaSfPuv6+x//9738//Zd/PzGBLKlurWk3nrctQgihcy5WlDIs5/IwHAeQtOTmR/7y2p3zJh4qrfH6ho2w5IDxMQQJ9trK/bv++9/2Mf/+7I1vtm398vn//GFWHAEUSVGEj+MYZmicDkEQIdnZy//67uZtW7b5vfzC4wtGAQzrwjoMQRDyuJCJ9764ZuP6rf76H3z2/i1TJUIFyXDwrRFAHAdnewVxLMuy5155JAIIebx28sr/fj205/c/fffmyWKBnGU5lmU5AI5jGYb1Xzr/7m5HHONjfL6znaGSopJBG1akLz39TcN1yVGaeI08cuz8ZX984Hcd2+o7+hrpzHHLHn5927at27Zs+uDBO66fkhAZogWOYL1up8fjZVgAoGUQtnjlqx9+vm3rlq/efOfpFZlZ8TFigfS8lwUAUMemjJv/+7GyKydlqMJCRpYCANA0aLQhXSbGZDeNLEMIITToYkVpWb3xb++VWJ1eAACL2e51dKZEainyXNPI7YbiEyeUUa6EmJS4EEH6pJxInlIIltamptqKOkrAhOVkCQ6Z2oqO1J3dRB0S5Kj0lO7cWgoe39COvptcIaGNQeWfbzrp6j7XA5UGCNfGlAw46mv051UHi8On7+hgWDeAuaWhSV+lB2DOrzJIoZRSBmX55xtOeHqHzg5oGsIjwrqqTI1t+gHwuZxdJw/VWkzf3+3IXFZwpmD77h7wcQBQ1VQJHe3JsWmCuNp3C0911XYBOPvsbVWHKqMFEqF0MA+9AJ0Fn63Rm8zitESt10J0bnz5rjc//eZ0w/n7bik/umf1ZnZKTohc9u0oBXFs+MQbXst/cElGeOjIMgAAcNjhZOGREIkpSBY0sgwhhNCgizVFQ9XJ45/999kBaTBLkODhBOrk6GkLb0s/+fI/91YbPLKYICFLQr8o+Mor5k6NDus7vePD98vIKBoohZyzeRTt5jHPv7lIUvrZ7p3VhfWsWAkAMPqq36WwzYZThzefYaRqIAiA4KzMiTNuvmq0yn9SMHD80P6Sd7bIH1+1IlEmEIHV2HDy9MavPylkKRlH8wGk0cGps1b+bhRz/INtO2uPNbBihRccbaWW6Suunzon1lz6+dc7WKmUI4LlnMWt6jYlPP8EvPsOZGaCSgVbdiqeWLUiTswXgXVAf/z0pvUfF7I8OUfzAWQx6tQZK29LtHz54denmoutRKQEgtTMqZq0xdfNvz5P7Dm1aeWNB3Jee+6KeaOzFOc+KHf5pr378l876YoWAwEDAsXkjNyZs6fy7dve+6LQ1e/j+HygSWXQ2KtXrMhIgeqyIwc/3F0F4ORUo3OmztFNHJWmckDHNw/e1qi5bsHiu6dnukzQsOO5tcX1nX0gUsmjJyxcsmh8rFQhpAAAPAPQsf7PzzOjFky9Yumoc23R/sN7dlesyYfHH4eXH8rv8ZHSCIXAR4JBHHL9ioUzRuVGKC5wkxchhC57F3GKBsprlXh7TKRMJJFKFZGxaWNmzBkdy9QcOthppySauNAgmUqqzZl3Re7Y5OhgHqnkGw1uuVgsDYlNTUjNGZcQO2pUdLhGRTIE6/aSUqlUKo1InTo6Iy5GK/aaraRMKpFKpUGREdExaQnqwR68HMOAWKgMy8wMk9IkBQKRVKGOCHL3m2mpWCiVSpWaoLD4MelRYSFBJAOcx0tKhFLa3mmLTBkzZuL4mOhgb5+JlIolmri0hNTscQkxmRmhPF5oQkJoaGioUhmWkREmoQb3HBwR5O430VKxSCqVKrXB4Qlj0hOiNDwPgNcL8iB1xOipmdFJ40ZFRWikNNAcPzRjyphYrUw27Ho0TfqcPtZs9cqkUqk0JHnSrNypE0Zp5WEJGrfZRdAUX67VxIyadf3sdLVQ5hkwGAZaBxipNChx2rIZOWkZoUL/nWI3p4kbEx8TpZKyXrB1VXXaGUKkTRibNWPhwnSF6NzMGBwAuEltQlJEuEbGHzoOjmUIiUQVmp4eSrlBLJOKpVKpXC0NzV20bHxmpPICjVqEEEIAJElerFbpBfhs0LH+r686w8bnXn3DOO3I4l+J1wId6x992R03ddKya8Z89/R+CCGE0AVQ1PkDKS46gicQ8vg0dQnNw0sAkDyBgMfjjRgtghBCCP0gv2CrlGPBZ+s3sbRQKJP5b9xdAjgWfNZ+I8cTiaQywaVyVAghhH4jftlWKUECT64OUSovnRwdPCqFWqNUYI4ihBD6SX7BKEUIIYT+F2GUIoQQQgHBKEUIIYQCglGKEEIIBQSj9DvY9NXH9656p7Dd7fOMLAOw6auOfauUcUDfgS8/3rvvRMuwqYYRQgj9j7tog2G8Zkdfzb7tpV0ujxtAqI6OyJo5O1kmoC/t0ZusG6x1B4sYpbils63zix2KJ1atiJfwRz6CzXDsQH7ph7uG5hEEAACvCTrWP/ySN1k3+coVWT9ltofuksPF1aWNBlqsUI9dNDNFITFV1lSWHakdNpm8MjIoOfva8VC28UhN54ABAIQyiJ++Iici7MJT+3kBuk4fsMiiQiMS1eLzyxiX2Va3b2dJX5/FAwA8iSp47MJZ4b2tZZXlNZ1D8xaHj9JljBqVGnz+xgghhC7qxIH27paa3etWbz5+pk6vb6qo67K0QcasDKXw3Ax2lyTGDZay3QVGhrT4WE+VXjhtUbqKT4187LWzvbmxu6ReOG1Ruop3tpR1gbVqz1E2ODYqNX3YM8t+CMYD5uay/G3f5B/ZV1LV1W20h03MipQK+opLju5bv6+0oaGhoaGh/Pjeo7XtNfzk65NqN763t+BEeVVLXU1D49EGcnRGrDZIyj//02UcA6b2suLKfWs+beNUwdGp2uFHxTgGDA3FB7Z8tfloZVl1fVNDXUNbR4M7cWxQecH67es3Hqnr72xpaGioOt5oD6FVCRkxwgs/gQchhC5jF3HiwPLtxz576K3Y1W9ckaaMEjVWVrZs3Sq4b2UWj0ezrI/jBh9gRgtEPJqmgGG9LqfH//wxgqR4fKGARwIA43N7PB6f//EstEDEowiC8brcXhYAgKT5fB6fN7yhy7Hn74rm8QV8HvjcLhZoiubTFHAAjMfBAE1RNAEXquzycKT51NGDZe/vUDyxakWcgCU9Pi/jP9ugeEIBz3LyUH7JBzukj/x3caSQJ+AIkubxSSev62yrdPkoNeN1OT0sADe4ZwGPBOB8HreP4Qjavzh02PYepvDF5c8SyTcsve33U9PPlQzD+arW/313Wac+6c+vRn7zEXHnqKTYKZHWgebSdfe+wD3w3JQJGaPk521h0x84ue7ZO98tt0bd9uDD19955bD564E1V+0p3PDhXUXz3n5u6YxUjRxsxu7mTW+czF7s2XGAc/NT73x4ZgQA0b7+9c/6DKK0PzygC/PPdYwQQuisizpFg5iioiPCKKEQAKISEyfcdXuK2Lxr1cur/rby94/crPN79LOTJzrB1VF65uO7Fi+YrdPpdLpr73jk/R3d4GYBoObIB089PFhX9+jnRSdrKko2PX+XTjdbp9Ppbn387T3HDee9qrP9dMlHdy3KG9zVnX/5cGeH3dOx+fWVqz5cc6oeAMANULz+oQ+/WXOqrP306Q/vWjjfX/m63z/20a4Om7dj0+svrP9mb+3A2X32H3z9xQdW6HQ6nW6eTnf3a3v1dVYAsFv7Tn7zUN4NC3U63XV3Pf7x7h7wJzwAgLO1t+iDhxbMW6jT6XTX3fXEJ4OPUesr2PD8c/8aWjzL5fAWHWue88crr1gwLvHc6vP1FZw6IegcmHLFlWnUxD9fNyEiOxQAHF63sbUqViERfvs5auKYCRNvfzn/8/uXJId96ylpzU3VDafyFX94eNmoyGApAIBYrk5a9sDy1PDg85rUvd1dQtqkDtJgjiKE0IVcrAu8bmN1b/V7GwtP7G+m+eLg9AilSMAS5tJtX5ZapPEZVyxfMCl7mtZw7KTPLZbHjI7UKiOiUsdPnjJ1WrJYKHDvNgQtTGWr1r9b3CHg5Vy9bPG0adOmTRynsBytrS/1hN+wZN60adNHiVwWtqefTh6lHXwyDABB8QWqiKi08VOmTJ2WJOLzPXsN2oWZEeaKr/sEcjZ0TKrIBrXbV5ULpUkJUzIjlaqI6NTxU6ZOnZYk4vE9+/pki8Kadx5wipWMQAS1euG0RelqqSIkKn1U9qRpE8ZM03QW2LQKnk3a23rycF/sdbdMnzYjN9TtsfYcahFMTDYVnuQ0sbTA1nPso2bl9Yunz5iuG6tR0ExFJZM+Llxsqzy+u6yuTxA5e2q6HM5ORmyy9hVve+HLgrr6E0f25W/bnH/4VI96arickp57dAs07nmlsE/GGzXnygkREp5YxLM07lu98YMN647SGXcuGj8+NlzCH3EhmqB4PD6tIpoPHCfCEqNThl/gtdbXVLYfb9Necee0eAklJAGAIElaKBbSjtpT+YcO5e89WJi/Y/Pmzbsa3BFjJ00fN1Zz7mmzCCGE/EiSvFit0qCY0Ek3zs+Ji433NVYUrHv9k3UfH213ehigVdrk3El5y5evuGr5DXNijK2m+qYeH0+skHA93f0dHR097U0tTZVFNQOGimPFDqdq1LTrlvtNiXJbG0sKj5XWd3S0d3R0dDdXF5VXFOm7AIZag7SAJ5aLue7BXTW2NFWVthoFMWNygnyEray2z+fytJ6oko2ODk+OUAt4IrmY7e7q7+jo6GlrbGqqKmkc8LEjHisuVEhoj9vR0dHR2d7R31p1Rt/WOeAghXxFbMbMpQuvWH71lZPHhvJ6DpR1+Bg3ALh6uxvKCgpO1bS1tXZ0dHS11FdVl+wva/Mxbmli1uy5eYsnpMlg2DyFTq/H1NWsVYVERMVFRmrEEk/7gY8LarpNgz2BWReYywr3W3xBURlT49WD5w2UQKpSadUhQYS7q7HP4LK7z+3x/+d2e4ByB2m0UoJH2dpL9uz+7PXX3/7w9a9L9AaHhxKJ5OrQyMiIyMjIeK2K8XH9ZuvIXSCEEIKLOBhGGpo2ZsXTT/zj6aeXJkS6yzZt3vrpl6c7nV5vSIw6NCRCBkDzID45SexVmLvaqiuKdm3dsnXv7t35+SerqhoGxD29JoNe702XBCekhp3dqcVi4wzt1qaK/Px9+fn5JzrMHkqjkZxrUHstptbBXe3ak59/qqq6YUBkMBo5TpsxRcgJjI0VPW7TyVImJzEiI5IytVYU7RyqXF3TOCDqN5o4zju0Q84Hrs6GEwX7d+zcuiM/v+BwfnW/u8PgczhtYgU/MikpmBTxQBwSqlGEaLoGjP5tHXaXy9BFdNUe2H84Pz//qL6pj42IlBEkwckzJl511dU3zhyjhPOfRCMEyJ5/x58efPrpp//5yB+vn07t3lDf2dfvAwBgXBZj+VenulODQkeNSxy6jCuPnbRsxZ/vvufGaNNHbxwv72izDd/h/4fPo4HlWY1GJ+djXcaWivJDW7ZuWPPfD47W9FhdqvSM2bc+9PTTTz/99NNPzEvwGFsKq3v9DztFCCF0vosVpQzDOdw+jgNIWnzTww+/esfcCUfO1Hp9wwZccuDz+UgS7LXVBXtefqVj7L8+eX39ls2fP/uv38+MI4AiaZrwsqxvsNMRAJAEoc4eu+yxtzds2bTF77/PPZY3CmCwZ6m1qmz/nldf78r+z6dvrtuy+fNnn75TFwtAAUDytIliYXb/seP22qNdk8KkqjC2qmzf7tff7Ml57otV67ds/uw/T94xI3bEJ+KzQ/fOd1841K6Yf/fnW7Z8s3rTW3fmJYeqhtfx93UCjqVp2t9eJAhQxIdOvufFrzZ8vdl/nO9+/PaNk4Q8Gev1OJ1Ox2C/qbNIgqBovtfHMAzDgVAlDEvKTez0uNx2BwDHOk19x9d/6ZyaFpuVFAcAHMd6XF6GZTgACBJJ4sbqGp2M025nfB63w+b2/ZDMkwfJaSak6fTRRrfZFZx55YMPv7LqvX8sz6DJkSN/VEEKq0fQY+ofsR4hhBDARYzSM/UDf3u3xOrwAgBYzHavoyM5QktR5+62ud1w+vgJRbQrMTYlTi1Im5QTyVMKwdLW2FxXUUcJfGE5owWHzG3FR/RnN1GHBDkqPGd2bi0F94iLsEPkIYK0SeMjeQohmFsbmuoq9QAMAIA6OsETRFcd+7KiYfxYiUohAwC5RpA2cXwkLReAubWhua6ybrDy+eLGxiREJwWBz+XsPHm41mwcESrmloYme2/7rHHZNCUHAIVSSvYryr/ccMLbO2Kyhv6D37zw3NN/HdHtSC2Wxk9esPtYWW2V3gaOfkdr5cGqaIFYKJMCOFrNDUdXb5+XPTolLUkKAF6LoXPja7urO+ptANDnsNYe3Z4qpiQypvTEV5/89XefHPX4fsDF2Ji41Pjxc8zvvLihvMNgH1k6TOWZcsqtjwi+VJ7WjhBCl5iLNRim+uSxz176T584mCVJ8IAwJDl2xuLfpZ94+R97qvrc0pggIUOAQapZvnTutOjQntM7P3ynBKIooJRysPtUHeas599cJD3z+a4dlUfqGJESAGD0stvToGXg1KGNp72SYCBIgKCszEm6W5ZnBflPCjyG+pN7N370XglE0UAp5WDzqrpt2c+vWpEoFVAtuwu3Hvhomzj7hXtXJKmiKJP+xJ5NH39QApE8oJRysHqCes0Jzz0B774DGRkQFASbt4ufeHFC2UevnKrr7QaVhIZgDRTXpCyeKw+lWz5++ZRsXJSYJn0gD0oeO3nBlBXSA4+/4kvWjZqR5WrbvP7jQx5KDjQfQBqjTp9z/+0Ttf3bPv7P7pOG6DkvPLYiEnhnr/H6XKaB2vXr152s7nTYvXyaVqlzrrt6WVpKGGcu3X1wzerPrbc/+uCUnESVGIC1djsP/Pfh3aYeC6PkOUkeTxJ264rrc0YrKk59feSj1dzNBQ9NEvKUAK7OsrrDa97YdKyoklWEqrPnLpyx9M7FSYPdnXzW7u6a4zu2bjvVw7q8wPNavED2Rt//7JLGQ18fyj/eLU3VigAIgyRIN2vSwikLUzQjG6wIIXTZu4hTNFBem5Tpt9IKiUwuV0XFpY+dMWdUjK/m0MFuJ18WlhCuVqrlYePnLskZkxQVzCMUAovJp5RJ5dr4tIS0cTkJcZmZMWEaFcVSnI/hyeVyuTwqdcqojPhorYSxOmiFXCaXy9VRkTGxafHBgz14KTGfJpQCq8mrlMnk2vi0xNRxOYmxmRmhUprk83kcpRYII6bPTwkT0TxKzOcRCoHV6K+ckJ6Ymp2TFJOZEcrjhSYkhIaFhapUERlj07U8A5B8hpSrgkMis6ZmxiZnZ0SEhcglPL5IqVDI5UHRWWPGTVyYGyUmCC+ljUuKS0yICAsL8gxY+AqZRC6XB4WGhMdnpWnFJMuCUhOXmJIZFyYE4myUkjRPEhovthsZgmbFodq40bOvnZmmFkpJxm2zOdy80BnzJ8UrVQISAAiC4/OJbhMj4Avl8uCQiOTcq5aPjxGrBCwDEqkmMiM3LpgkeACMy2I39bc6g5NSYmMiNWGRcdGJabGKwdclBVKJSpMgtw04eTRfIleFaKJTxs+amRsjFpG0QCIWy+UKuVweOnbKnPGTsiKV5/+JEUIIXdwpGi7AZ4OO9X991Rk2PvfqG8bh1UKEEEL/Ay7qFA0XQvKFIr6Ad3Y4JUIIIfTb9wu2SjkWGLvBxNICoVQmGDaqEiGEEPqt+mVbpQQJtCxYrVBgjiKEEPof8gtGKUIIIfS/CKMUIYQQCghGKUIIIRQQjFKEEEIoIBilCCGEUEAwShFCCKGAYJQihBBCAcEoRQghhAKCUYoQQggFBKMUIYQQCghGKUIIIRQQjFKEEEIoIBilCCGEUEAwShFCCKGAYJQihBBCAcEoRQghhAKCUYoQQggFBKMUIYQQCghGKUIIIRQQjFKEEEIoIBilCCGEUEB+6Sg1m80Oh2Pk2u9mt9t7e3sNBgPLsiPLEEIIoUvALx2lVVVV7e3tBEGMLLgQn8/X0tJSVFRUXl6OUYoQQujS9EtHKQDw+XyhUDhy7YWUlZVRFDVnzpw5c+YolUqapkfWQAghhH5tv0KUEgTxA1ulLpeLz+fL5XKCINxuN8MwI2sghBBCvzYC7thseWXm918+7ejosNvtAEDTdHR0NE3TBoPBYDD4SyMiIiQSic1m6+zsHNpEKpWGh4f7/3945dbW1qSkpLS0NIvF0tLS4k/H4ZWHO3r0KE3TGo2G47jo6GiKovr7+wcGBvylkZGRYrHYZrP19fVFR0d3dXWJxeKgoCCv19va2jqUuzwe77u2PfdKCCGE0E9CURQF2dc/nhfHcdzIQgAAYFnWYDB0d3dbrVa32+3z+cLCwqxWa09Pz8DAgMfjcblcJEnyeDyr1VpeXk6SpNvtdrlcPp+PoiihUGg2m3t6eoxGo7+yzWYLCQkJCQlxOBzNzc1Op9O/W3/lEa3VtrY2h8Ph9XoZhgkLCxuxK4Ig+Hy+2WyurKyUSqV9fX1CoVAoFPb29nZ1dblcLrfbbTQa+/r6EhISLBbL8G39x8zj8Ya/HEIIIfRjkST5/7RKXS7XgQMHsrOzY2Ji+Hy+f+W+ffvkcnlmZqZIJPIvKhQKuVxeVla2ePFi/33Qtra248ePz5w5s7i4ODg4OCMjY6iyRqNJS0uz2+0+n08kEtE03d7efvr06ZkzZxIE4T8SgiB4PN7Ro0cjIyNHjRrlT/r8/HyVSpWenu7flX9RIpGcOnWKz+fn5uZGRER0dXWdOnVq5syZCoWCpumWlpbTp08vXry4oKBAoVCkpKT4tz1w4IBarU5OTv6ucwiEEELoh6Ao6gfdKxWJRBzH2c5iGIbP5/N4vOGLQz2J/E1Pp9NJkqREIqFpenhln8/nr+Z2uwsLC3fu3Llt27aioiKCICQSSWVlZUFBQUFBwbFjx7xer7+mz+cb2pbP59M0PXxRJBKJxeJ58+ZFRUVxHOdvcUqlUq/Xa7PZXC7X0LtoaGjIz8/ftm3btm3b+vv7BQLBD+z9hBBCCH2PH9QqnTp1qlqtdrvd/pXHjh0LCwtLT0/3jxA9duxYeHi4SqU6fvz44sWLWZb1+XxdXV0VFRWLFy8+cuSIvxk6vHJoaGhFRYVWqxWJRP67mE1NTUuWLOnt7XW73Twej6KokJCQgwcPhoWFpaam+rf1N1JHLMrl8qKiosWLFwOAx+Npa2urrq5evHixz+fz+XwdHR01NTX+VqlIJIqOjh56ayqVSiQSDR/kOjAwUF9fP7SIEELoMpeUlKTVaj0ez8iCYSiK+nWiVKlUnjhxYt68ef52YXt7e0lJyZIlS/xt1qFBLwUFBeHh4T8wSoey87uiNDw8PD093d/YbW9vF4vFCoViqO0LADabraenZ2gRIYTQZS4yMlKpVDqdzpEFw/z/UerxeM6cORMZGSkSiTweD0mSQUFBtbW1AoFArVb7L592dnZGREQIBIILRmlFRQVFUUOVq6urY2NjtVpteXl5cnKyz+djGGZgYKCtrc0fpUNXgL+dnVVVVSKRKCgoyB/qnZ2dkZGRNE0Pj1KDwdDU1JScnOzvrGQwGDo7OxcvXlxaWsrn84e27ejoCA0NjYyMHD7AhqZpgUAwtIgQQgj5fL6hluQF/f9R6ldUVNTb20sQhFAonDJlCp/Pr6urq6+v93e4HT9+fGRkZF9fX3Fx8fz58xmG8fl8PT091dXV/sWqqqqhygAwatSo5ORkg8FQWFg41CiUSCTz5s0bEaUnT56MiIhISkoaugxbW1vb0NDg35W/n1FPT09paWleXp7X6/Vv63A4CgsL/f/PsqxQKFy8eLHX662oqGhsbBy+LUEQ33+ugRBCCH2/Hxqlbrfb33vIn6Yul8vpdHIc5+8NKxAIGIZxOp1er1etVjudTn9b0+fz+ReHV/bPdkQQhN1ud7lcQqHQfzmXJEn/ncvhUep2u8VisUAgGIpSr9f7/a8LAP7OR/67sB0dHZWVlf4o/fYxezwe7MGLEEIoED80Sv1RR1GU//99Ph/HcQRBDN3UZBiGZVmCICiKYhjGn0/DF4dv7m8s+q+sUhRFkud6Efv3PLTor+Df/9Ca4bsael2apoe2dbvdlZWV/hcVCoVqtTouLs4/1PXb2w7tFiGEEPoJfuhgGH/4ec/yJxbHcUNr/JnEcdzwLBy+OHxz/11Mfx2GYYav/3YbkWGYEfMFDt/V0OsO39Y/CEckEgkEAplMptFohmp+e1uEEEIoQD+0VYoQQgihb/sRrVKEEEIIXRBGKUIIIRQQjFKEEEIoIBilCCGEUEAwShFCCKGAYJQihBBCAcEoRQghhAKCUYoQQggFBKMUIYQQCgjOdoTQb4l/8kuO4749y+blgCAIkiRpmh4+dzcAeBiux852WRmHl2Muy89Gwie0EipCRvHpsw/h+pH8z8dkWfZy/PgA/JMWffur9UP8iOnsEUK/OoZh3G631Wq9bB/GQJIkn8+XSqV8Pn/oJ4/loNXMbKtzbtM7u22sw3vZZSnHQYySnhUrWJYuTlBRPOpHpynLsh6Px2Kx+NN0ZPFlgCAIPp8vkUgEAsHwh6/8EBilCP1msCxrs9mcTqdMJpPJZDRNDz0D+DLhf3CFzWYzm81yuVwkEpEkyXLQZ2efOWw2uok5idLZiRIx7zL7XAAcXq6y172v3lbR5XxpvipeSQnoH/EZsCzrdDotFotMJpPL5Twe7zL8ajEM4/9qiUQiqVT6o9qmGKUI/WY4HA6v18vn8xUKBY/H+1H/1P9n+BtPBoOBYRihUCgSiRxe7uNSe6cdxoaLZyeIw+Q0TV5mOQDgY8HoZE60OdeXm2U87rYxkqTgwSdg/hBOp9Pj8dA0rVQqhzf3Lyv+69sDAwMej8ffPB1Z47vhdPYI/Wa43W6CIGQymUAguDx/7PwXeAUCgUKh8LdQ/XdJ9zQ444MEujhxtJLHu/xyFABoEkIk1PhI4bwk6fF2T7/zvAdT/r/8D52Uy+WX+VeLz+fL5XKSJD0ez8ji/89l+qkh9JvDMAxBEAKBYGTBZYYgCLFYTBCE/1oaw0Gj0aeV0RGKH9EO+58ULKbGRQj7HYzbN7Lo+zEMw3GcUCi83K7rfptQKCRJ8idcpsUoReg3w99/deTayw9JkiP6MAspgk9d7jFAk4SQRzp9nI/90b2u8KvlR5IkQRA/odsafnYIIYRQQDBKEUIXAeuFvgNrPt7+za6agZFlCP0cnB191duf/Of24iaDfWTZLw2jFCF0IT6Lt+fYxlWvvPLMoOde/O/GM8Yu28iK34EFZ2t1eUNdk8E1sujS4+rsOLPz05de+fRwW5vJCwDgNTm7T61be6q6zeQcWft7uTraak6tXVfa5fR6R5ZdHmxdxjMb//vic4Pfm7c+f/tgq9v3o+8+/v8Ym8PQcORIQ7fZ9at/1BilCCEAcNotPVWnWs0u72DvT6/F01O49v31m7buPXj06NEj+4/sXfv1rpq6bvuv/rP183O2t5bt+eDVj1avyy9p7jd5AbwmZ+ex1V8cq2wZ+HFR6mhvrTz2+ZfFnQ7Ptz4ot6m9o722dQDgIgTLJcFrbG0pLti5bvvmw4UHjx49evTogQOFu/OLu72+b30a/1MwShG6zDEeu9lsqK0qPfzxSwcaDY5zjUiSDwnX/uGZ99Zs3779m0++evF6T1FxZ1uXxedyWQd6BxlMVqd7MBm8TovR2Nvb29vb19dvcTJe/3qW4dxWQ7/J4vQMrrkESTR03JSk6tWna2rLBs4fTMJ5vS6rsbe3r7e3t3fAZHO5WZZjXbb+fpPV6fKywDGs12HuN9mcbqfL5bLZPG6rsb9vwOp0eYd3YDE3HDq0/4stJ/r6u4x2l5f50Z1bLnWssWzrls++enpv0l++WLd2+/bt27ev/ts9f5TWNRCsxW21mvr9347eXqPV5fMxXo/LaTLZHdY+Q7//y2Sxe4EDAPC6bWbT2S+Z2eH1+Lweh+Xs127AbHd5LqXvEkYpQpczFqDn6HsPPnzFI4+/1jn9zeXxoTLxyDoAAOB2sp2ttREaSiqmqnfvfPHa3EEr7v3PugN9AOADOL3x8T/clpubm5s7efqsv25ur+kHAABzkyX/31cu+MPTXxedsYzc8SVDLBTFrbg+obix7eiZtvNKLJVlm/5zS27u5Nzc3Nyr//TSpkP9Rlv/rjcWzvnjM5s2V1jA1Wku//Sh+fe+uWnfmi27t7/738LD/75lzvRb/rN5S+XwNxw8auno9Czj5skzZ93y0aayzkv3w/iJ+pr0Vk6efu9bd08TCxQAABCcljb57rsnC8XgJs4AAA4xSURBVASeAy89c++i3Nzc3Nypubm/e3FXTU176clda+6/++0v/j11+cLc3NzcZX/42zsl4GEAoHLfq4/ee/ZL9uBnxSeqSk6sefLm3NyJubm5udc98tbeY5fSTXgKsq9/PC/uJ/T9RQj9khwOB03TMplsZMFPZeusPP3pvU+9frpXmzNm0ZVL5o7PTg1VkMTg+bXP4jWUbflk45Gje7Zt27h+/Z7Nh6yJV1w9NysyOlgpj0gfM3HWggULFqRyJoIqtcnyEuyHXn2ylMyNy7vppmsW5M2bPTWJbdazMqlTyrR8+lJb4u+vnjttdFqwWPTj5je9MLPZTBCESCRy+rhPSu15ybI0TQAjbl0d7c0dh8ok825fqGzd5rY7zZL4SLZ2SwGMnkoPnGooK3An/PGWZQsWLJyo8NnYtjYqMychSmY4c8jmE5E82UD5p7tss2+cNiVrTCgDHK/eNPYPT/z+ilkTs2OCFOfeMEnxJdKgyNj0zMmj7BWb1q450FTDaqYmqs4/mp/O7GI/OGVanCyKV/2IUbYulwsAFAp/9gVgoOjgZn3tgHb876an8An/3IUkRdFCIU0QPLE6NCln0oy5C2ZNXBDVuccUqqSN4vZTOzcfoeb/ZcG8xVeOUQo47x49b9Y0QdnH/y0ZCFHOvuN31y9YsGDBjAmSvj2V+ioqeeVNyxcsWDhBbOtnejuNoVr73gKYND89OlQuHHk0P5HNZvP5fGLxhU8pL4jEgUQIXZZ6mo5v3/3phuOeUZFJo7KnzJ6ZN3PmlIQQgPNijiBAGBIWl5w2atSo0anpmWHCth6H2eETUjThGSgvry4vL6+vrais05dW9vVX7D3Ok6ZNnH3N0qVLly5ZvDAnRqJ0lJ3ec3BLfh9vzoKlV8zIjVcH8Ye/wCWGpEGdrhutldkNJwvrTP47mrb2xqqigsNHS8rLy8vLy2sqSo6WnDnR3CuMSl1yw9xMu6lk7ftr9h8mxs9cNHVMfHh8dGRU2iht6JgZCxbpxsREq3jnv4ZEHpo67orFi+dOnDAua1SQ01Wx/+XX91fa3Y7z6/0muYxmELjEmnARkN8a5SuU8Xymvs7y8vLKyvLm+vLimtaOARstEqji0icvnrdo6dLFunGJGm9DvX3gzJHTLKPN1l271G9CqN3YcOpQ4fGS8vKK8vLymsrTR0rKixu6wX81+NeHUYrQZchh6mpsrWu3qCeOHjc6MUwhv2AbhqAhbMbCW//42FNPPfXkHx+7f4wzv7itpryq6uThrTu2HzheeOz48drOng6zoK/bYGypYSeHhYbFqoftwdnbUdtU0+aUXZkbJxFIh5VcssLGLohWysjGo2f6wcMC2Cx2ztzt7Wk+fvzk8ePHK4xuUhIToyRJPijHzdSJoefwlq2nGtMXjg4RjszN70JQINDEpGdlJwVrvL1Fp1v7vcz/Qq8coVAgpYU8lnGeH3GcDxytVYfy9+3ct/fg8eNFJcdbrGy3kXU47eIwYfSMiYm0QgQgkYql8jDGQxrrm7yj5Oq4lNCze7CabYSly9HZdPz4iePHj1daOIE0Kkr+rbz+1WCUInQZiht71f23/e3WnJI7//XQP97adPRUi8FgdHi+5xyf5pMKlbq939V+ZNuGfV/v4S/6eNsXm7dt+fivf75yXDhBAsUXgMPn853tAQwAABFzpi0cM3t8+1vvFbT22D2/iX42qtzJYxRTYmq3HbFZ3RxLkmTwqFGLH3pzw7ZNW7dt27Zt27ZXX/7H4tHA8cAjEKjlqlCZVEDZrC4fN/j+WA68DMNd8MNkfG67uautt27np/954qEPyk6FLVn9ye9mKMUBX129BASFaZkBXlP5sTqbg+UG+5x5vR5Tj6d7x9svHOlQLbh39bZtG9dsfuuO+UmhypHb+xFA8fmEi/F5zs2ASFJkSPb4FY+t2rhti/+PsO2l/zw8L+OSybBL5DAQQr80ecy4mf84tv3AS/Mta7+4+YYb7/nyBMB3DvwwG73FhXti1C6FRBkSq0gbNzEcRBQYasv1zfomgYIXPnYK/WVNXe3plvO2k6ctmDpz8d+9j764raKo9Tt3f0mRZ4xVRyX53n232mazqDUqVw1TsnFdETjOm+TcC1C07v0BSVTen1dO17710ja9tdPf+9niYKpbO33Mhd5tm/7Qe/+YvmjaY4bYe15Z/dlTL61IHVnlNyw9e1qEVlm96t53DjvcZgAA6K+uPvrO20fdbnP8uLjEmNQg8DodnccOVJuNfSM3BwAAngjCJ+UIdve3FB2pO7syRKu2ljhO79hcAuedq10ysNsRQr8NP3u3I4KkeSK5TKYMDo1NzomLDKPKNnaGZ4ZJxXz6XLejDUcK92zdunH9uoNbD0km3nvVvMljwmw1PcUffbhm+6a1a4+19jcZ1SpJ3NzF2ckKQ0n+ke2rv1y3ce03mza1EfKqOp42OmbCzIQ4jbfk7W+qHEpCHZ6oDqB/0FkXodtR+6FS3sylmSESvoASi0lSQ7Rt7o2dOWv8pHSF2NW8/f1Pt25bu/brtWv31VUZvXExHRvve7YqaHpKXt7cVGmk58yba3tlKaGhsREie5+99q01OwtKjCFihTY+eOj+sLEuv7iqxBh88w2L50yZNjYhRi2X8n+OXlhn/crdjoASKDUqBSnt2/Xxmk3bvlq7fu3ab47rT0tzrp0zXaT/+vSRTV98tWnr9p2lLlFHV+iYJIFMBNW1wplLM4P4FM/Z2ljfVVQnnnnVhCSFufHUqa2ffbFu09q1a9c2CCfGxgSpvPU7Pvxs49a1a9euXXugucnoClNfKt2OMEoR+m342aMUAAAIAJ5EHRkRHxGukfoG6JiMUKmQ9v+6EySPIEXB4aEhWq02PC4iafLS5eOStdogHiuTEB5aG6rVxo3KzUzPnpARn5oSEaoJIby0SCJRarWhoWGJoyfGRsSOSo+Mj9MEqSNFFo8sISM6JjRC8QPvKH6fnzlKAYCWyYIjRo8Kl/EpCvgCoTQkOpSvSZ40Oik5NjQ4WEl5WHmoVqPVaiMS4uOjU2Ok9hZPhG52ZlZSgkocHCG3ulXpY2MjNGqFiB+s5lh+eGTSmORobZh86P36nEaGpwhPXaDLjQlWiXg/Z4oCXAJRCpRIpQhWRYTQDp9UG6LVarURiWmpE6bpkuNChFZSJOdLtWGR0QnjZmQnpY3Pio6IiNCERGRmhkookgKOoxVKTWRmRlSoJphHCAQ8gVyr1Wq1CaNmZGXGRYfKKQakoVqtVquNTExIjEtNiJDJIsaMiQyWCX7EG/5ePy1K8dHfCP029Pf3C4XCsLCwkQUXjc/nKywsdDhG9i2Ni4tLTf2VL0u2tLQQBKFSqQxOVvdJzyuLwq7KCOgko6+vr6ioaORaAABITExMSkoaufaS1GLyTnir6e1FqjnxP6KRZjQaASA6OnpkwWWpq6vL5XKp1cO7z/0/KIrCKEXot+GXj1Kr1ZqXl9fU1DRi/T333PP3v/99xMpf2PAonflJ738XhV6VIQukP+e+fftuvvnmkWsBAOCBBx545JFHRq69JDUbvRPfxigNSGdnp9vtxihF6H+TwWAQCARarfYXGw7Osmxvb6/PN/JB0jKZ7Ge5GPiTsSzb1tbmj9IBJ7todd8/ZmuWpskE/kkBfhKXy9Xf75+caSS5XC6Xy0euvfR4Wa6u3zPr/ZZ3Fv+4KDWZTBzHRUZG/mJfrUsWy7JdXV0ej+fHRineK0Xot8Hj8bAsS1GUQBDYTcEfjCAIqVTqD5LhhMIf8TP9s+M4zm63O51OHo8nEAg8DHewxc2nKbWE+r/27ue1iSCKA/jMzu7spklaW7WxNOLveo1SLyLoRQ+CRw+9if+DB/8Lz1VowbOCXhRtvRRR8EdSLVba2l+krYmk2Sab3c1md8ZDEDRV2m1AaPb7uc4pw8u+nfeWeUeSe++Xqara+jt/+W8b3qZCNZhaste3vGunjMHuEH1Yz/OCIFAURdd1Svf+OtIBbNt2HEdRlFBBjtuOAPYNXdellJVKxbbtIAgi+PorpfR937Is0zQZY5xzQoiu0htDsaXN+rM5a7ZYr/vR2xdCvEAulLznc9aLeev6GWMgGSKPNkOLMba1tWXbtu/70QytIAhqtZppmoSQUHm0CQVegP1BCOE4jm3bnHNN0xgL97jsDL7v1+t13/eTyaRhGJRSIUnZFaMfrEJNnD2onejVujRCSbSOVg0hF0qNLz88L5B3LnYPdjPOQuyAlNJ1XcuyNE3jnEcztIQQrus2v92NxWKhzpnolQLsJ81/e7FYrFar21uYHY9SyjlPJBKpVIpz/nspctMRE/OVR5/K2XyNkL/fM9TBurgy0KNfPt1za7ivP86233+7Iyml53mFQqFSqTSiN7OcUqqqajweT6VShmGEyqNIpQD7T7MSJaWMYBWu+cijlDLGWlp6QhLXF7YnOnAG6C5QShilukbjnIU5jv5BSimEEEIgtFrXdoJUCgAA0BbGWLhjLAAAALRAKgUAAGgLUikAAEBbkEoBAADaopCGs1ZuDtkDAACAcNZMV6FOOZuvtq4AAADALmRXK4pS+jaNVAoAALAnuXxVUdY+5vJW6woAAADsQi5vMV7bmGcn+wcGzx1ta3AuAABA1Iy/2Rh9PMFUVVXM5Vd0+Ob51IHY3kcUAQAARMpKyRkZm4m/u8dUVaWO6Xv1ZX1o+Fg3sikAAMCOVkrO3aeLy5MPjO/vmaZphBBa/Dq/Xh5bPXwowTNpVHoBAAD+afztxsjYzOLL+9rsEyEJjcVizSkTUkrZdzy4cPvqlUuZdCKTTmbSycHe0BNQAQAAOs9a2c3mq9P5ai5vTU697vr8kGwuSRFIIn8CPMmmQRCh954AAAAASUVORK5CYII=;" vertex="1" parent="1">
          <mxGeometry x="100" y="110" width="520" height="405" as="geometry" />
        </mxCell>
        <mxCell id="jHoJDD90ZgZnOCXI9R-W-2" value="" style="ellipse;whiteSpace=wrap;html=1;fillColor=none;strokeColor=#FF0000;strokeWidth=3;dashed=1;" vertex="1" parent="1">
          <mxGeometry x="122" y="346" width="351" height="43" as="geometry" />
        </mxCell>
        <mxCell id="jHoJDD90ZgZnOCXI9R-W-4" value="ここ重要！&lt;div&gt;説明をよく読むこと&lt;/div&gt;" style="rounded=0;whiteSpace=wrap;html=1;fillColor=#0050ef;fontColor=#ffffff;strokeColor=#001DBC;fontSize=16;" vertex="1" parent="1">
          <mxGeometry x="300" y="260" width="170" height="60" as="geometry" />
        </mxCell>
        <mxCell id="jHoJDD90ZgZnOCXI9R-W-5" value="" style="endArrow=open;html=1;rounded=0;exitX=0.5;exitY=1;exitDx=0;exitDy=0;strokeColor=#FF0000;strokeWidth=3;endFill=0;" edge="1" parent="1" source="jHoJDD90ZgZnOCXI9R-W-4" target="jHoJDD90ZgZnOCXI9R-W-2">
          <mxGeometry width="50" height="50" relative="1" as="geometry">
            <mxPoint x="330" y="340" as="sourcePoint" />
            <mxPoint x="380" y="290" as="targetPoint" />
          </mxGeometry>
        </mxCell>
      </root>
    </mxGraphModel>
  </diagram>
</mxfile>
